<?xml version="1.0" encoding="utf-8"?>
<!-- Generator: Adobe Illustrator 23.0.1, SVG Export Plug-In . SVG Version: 6.00 Build 0)  -->
<svg version="1.1" id="Layer_1" xmlns="http://www.w3.org/2000/svg" xmlns:xlink="http://www.w3.org/1999/xlink" x="0px" y="0px"
	 viewBox="0 0 200 130" style="enable-background:new 0 0 200 130;" xml:space="preserve">
<style type="text/css">
	.st0{fill:url(#SVGID_1_);}
	.st1{fill:url(#SVGID_2_);}
	.st2{clip-path:url(#SVGID_4_);fill:url(#SVGID_5_);}
	.st3{clip-path:url(#SVGID_4_);fill:url(#SVGID_6_);}
	.st4{clip-path:url(#SVGID_4_);fill:url(#SVGID_7_);}
	.st5{fill:url(#SVGID_8_);}
	.st6{fill:url(#SVGID_9_);}
</style>
<title>FSC_ICONS</title>
<linearGradient id="SVGID_1_" gradientUnits="userSpaceOnUse" x1="-3.072763e-02" y1="313.0536" x2="0.981" y2="313.0536" gradientTransform="matrix(186.393 0 0 -186.393 9 58461.6875)">
	<stop  offset="0" style="stop-color:#774619"/>
	<stop  offset="6.624680e-02" style="stop-color:#B28727"/>
	<stop  offset="0.1545" style="stop-color:#B28727"/>
	<stop  offset="0.2989" style="stop-color:#F4C283"/>
	<stop  offset="0.36" style="stop-color:#EAC57A"/>
	<stop  offset="0.4303" style="stop-color:#E5C775"/>
	<stop  offset="0.4892" style="stop-color:#996C24"/>
	<stop  offset="0.6051" style="stop-color:#996C24"/>
	<stop  offset="0.6051" style="stop-color:#996C24"/>
	<stop  offset="0.6161" style="stop-color:#B68B3D"/>
	<stop  offset="0.6268" style="stop-color:#CAA04F"/>
	<stop  offset="0.6372" style="stop-color:#D7AE5A"/>
	<stop  offset="0.6466" style="stop-color:#DBB25E"/>
	<stop  offset="0.6494" style="stop-color:#D6AB59"/>
	<stop  offset="0.6649" style="stop-color:#BF8943"/>
	<stop  offset="0.6796" style="stop-color:#AE7132"/>
	<stop  offset="0.6931" style="stop-color:#A46228"/>
	<stop  offset="0.7043" style="stop-color:#A05D25"/>
	<stop  offset="0.7149" style="stop-color:#A6652D"/>
	<stop  offset="0.7311" style="stop-color:#B57A41"/>
	<stop  offset="0.751" style="stop-color:#CF9D63"/>
	<stop  offset="0.7735" style="stop-color:#F1CD92"/>
	<stop  offset="0.7756" style="stop-color:#F5D297"/>
	<stop  offset="0.8468" style="stop-color:#DEB763"/>
	<stop  offset="0.8861" style="stop-color:#B38D42"/>
	<stop  offset="0.9116" style="stop-color:#B28C42"/>
	<stop  offset="0.9134" style="stop-color:#B48E41"/>
	<stop  offset="0.9237" style="stop-color:#BB933C"/>
	<stop  offset="0.9509" style="stop-color:#BD943B"/>
	<stop  offset="1" style="stop-color:#774619"/>
</linearGradient>
<path class="st0" d="M4.7,105.1H8l3,8.8l3-8.8h3.3v11.2h-2.1v-9.2h-0.1l-3.1,9.2H10l-3.1-9.2H6.8v9.2H4.7V105.1z M28,113.4h-4.1
	l-0.9,2.9h-2.3l3.9-11.2h2.8l3.9,11.2h-2.3L28,113.4z M27.4,111.7l-1.5-4.7h-0.1l-1.5,4.7H27.4z M34.5,105.1h4.1
	c1.9,0,3.3,0.5,4.2,1.5c0.9,1,1.4,2.4,1.4,4.2c0,1.8-0.5,3.2-1.4,4.1c-0.9,1-2.4,1.4-4.2,1.4h-4.1V105.1z M38.4,114.5
	c1.3,0,2.3-0.3,2.8-0.9c0.6-0.6,0.9-1.6,0.9-2.9c0-1.3-0.3-2.2-0.8-2.8c-0.6-0.6-1.5-0.9-2.7-0.9h-2v7.6H38.4z M47.9,105.1h8.2v1.8
	H50v2.9h5.6v1.8H50v2.9h6.4v1.8h-8.5V105.1z M65.7,105.1h2.1v11.2h-2.1V105.1z M72.2,105.1h2.4l5,8.3h0.1v-8.3h2.1v11.2h-2.4l-5-8.3
	h-0.1v8.3h-2.1V105.1z M98,113.4h-4.1l-0.9,2.9h-2.3l3.9-11.2h2.8l3.9,11.2h-2.3L98,113.4z M97.5,111.7L96,107h-0.1l-1.5,4.7H97.5z
	 M108,116.5c-0.9,0-1.7-0.2-2.4-0.5c-0.6-0.3-1.1-0.8-1.5-1.5c-0.3-0.6-0.5-1.4-0.5-2.3v-7.1h2.1v7.2c0,0.7,0.2,1.3,0.6,1.7
	c0.4,0.4,0.9,0.6,1.6,0.6c0.7,0,1.3-0.2,1.7-0.6c0.4-0.4,0.6-1,0.6-1.7v-7.2h2.1v7c0,1.4-0.4,2.5-1.1,3.3
	C110.6,116.1,109.5,116.5,108,116.5L108,116.5z M120.3,116.4c-0.8,0-1.5-0.1-2.1-0.4c-0.7-0.2-1.2-0.7-1.6-1.2s-0.6-1.4-0.6-2.3h2.1
	c0,0.8,0.2,1.3,0.7,1.7c0.4,0.4,1,0.5,1.7,0.5c0.6,0,1.1-0.1,1.5-0.4c0.4-0.3,0.5-0.6,0.5-1.1c0-0.4-0.1-0.7-0.4-1
	c-0.2-0.2-0.5-0.4-0.9-0.5c-0.4-0.1-0.9-0.3-1.5-0.4c-0.7-0.2-1.3-0.4-1.8-0.6c-0.5-0.2-0.9-0.5-1.2-0.9c-0.3-0.4-0.5-0.9-0.5-1.6
	c0-0.7,0.2-1.3,0.5-1.8c0.3-0.5,0.8-0.9,1.4-1.1c0.6-0.3,1.3-0.4,2-0.4c0.7,0,1.3,0.1,1.9,0.3c0.6,0.2,1.1,0.6,1.5,1.1
	c0.4,0.5,0.6,1.2,0.6,2h-2c0-0.6-0.2-1-0.6-1.3c-0.4-0.3-0.8-0.4-1.4-0.4c-0.6,0-1,0.1-1.3,0.4c-0.3,0.2-0.5,0.6-0.5,1
	c0,0.3,0.1,0.6,0.3,0.8c0.2,0.2,0.5,0.4,0.8,0.5c0.3,0.1,0.8,0.2,1.3,0.4c0.8,0.2,1.5,0.4,2,0.6c0.5,0.2,0.9,0.5,1.3,1
	c0.4,0.4,0.5,1,0.5,1.8c0,0.7-0.2,1.3-0.5,1.8c-0.3,0.5-0.8,0.9-1.4,1.2C121.9,116.3,121.2,116.4,120.3,116.4L120.3,116.4z
	 M130.2,106.9h-3.5v-1.8h9.1v1.8h-3.5v9.4h-2.1V106.9z M148.3,116.3h-2.1l-0.5-2.7c-0.1-0.6-0.3-1.1-0.4-1.4
	c-0.2-0.3-0.5-0.5-0.9-0.6c-0.4-0.1-1.1-0.2-2-0.2h-1.1v4.8h-2.1v-11.3h5c0.8,0,1.5,0.1,2.1,0.4c0.6,0.3,1,0.6,1.3,1.1
	c0.3,0.5,0.5,1.1,0.5,1.7c0,0.7-0.2,1.3-0.5,1.8c-0.3,0.4-0.8,0.7-1.5,0.9c0.5,0.2,0.9,0.4,1.1,0.8c0.3,0.4,0.4,0.9,0.5,1.5
	L148.3,116.3z M141.2,109.9h3c0.6,0,1-0.1,1.2-0.4c0.3-0.3,0.4-0.6,0.4-1.1c0-0.5-0.2-0.8-0.5-1.1c-0.3-0.3-0.7-0.4-1.3-0.4h-2.9
	V109.9z M158.3,113.4h-4.1l-0.9,2.9H151l3.9-11.2h2.8l3.9,11.2h-2.3L158.3,113.4z M157.8,111.7l-1.5-4.7h-0.1l-1.5,4.7H157.8z
	 M164.8,105.1h2.1v9.4h5.4v1.8h-7.5V105.1z M175.6,105.1h2.1v11.2h-2.1V105.1z M188.4,113.4h-4.1l-0.9,2.9H181l3.9-11.2h2.8
	l3.9,11.2h-2.3L188.4,113.4z M187.8,111.7l-1.5-4.7h-0.1l-1.5,4.7H187.8z"/>
<linearGradient id="SVGID_2_" gradientUnits="userSpaceOnUse" x1="-7.793535e-02" y1="315.4797" x2="0.9338" y2="315.4797" gradientTransform="matrix(64.2686 0 0 -64.2686 70.062 20327.3887)">
	<stop  offset="0" style="stop-color:#774619"/>
	<stop  offset="6.624680e-02" style="stop-color:#B28727"/>
	<stop  offset="0.1545" style="stop-color:#B28727"/>
	<stop  offset="0.2989" style="stop-color:#F4C283"/>
	<stop  offset="0.36" style="stop-color:#EAC57A"/>
	<stop  offset="0.4303" style="stop-color:#E5C775"/>
	<stop  offset="0.4892" style="stop-color:#996C24"/>
	<stop  offset="0.6051" style="stop-color:#996C24"/>
	<stop  offset="0.6051" style="stop-color:#996C24"/>
	<stop  offset="0.6161" style="stop-color:#B68B3D"/>
	<stop  offset="0.6268" style="stop-color:#CAA04F"/>
	<stop  offset="0.6372" style="stop-color:#D7AE5A"/>
	<stop  offset="0.6466" style="stop-color:#DBB25E"/>
	<stop  offset="0.6494" style="stop-color:#D6AB59"/>
	<stop  offset="0.6649" style="stop-color:#BF8943"/>
	<stop  offset="0.6796" style="stop-color:#AE7132"/>
	<stop  offset="0.6931" style="stop-color:#A46228"/>
	<stop  offset="0.7043" style="stop-color:#A05D25"/>
	<stop  offset="0.7149" style="stop-color:#A6652D"/>
	<stop  offset="0.7311" style="stop-color:#B57A41"/>
	<stop  offset="0.751" style="stop-color:#CF9D63"/>
	<stop  offset="0.7735" style="stop-color:#F1CD92"/>
	<stop  offset="0.7756" style="stop-color:#F5D297"/>
	<stop  offset="0.8468" style="stop-color:#DEB763"/>
	<stop  offset="0.8861" style="stop-color:#B38D42"/>
	<stop  offset="0.9116" style="stop-color:#B28C42"/>
	<stop  offset="0.9134" style="stop-color:#B48E41"/>
	<stop  offset="0.9237" style="stop-color:#BB933C"/>
	<stop  offset="0.9509" style="stop-color:#BD943B"/>
	<stop  offset="1" style="stop-color:#774619"/>
</linearGradient>
<polygon class="st1" points="78.9,36.5 89.3,36.5 96.9,59.4 104.5,36.5 115,36.5 115,67.4 108.2,67.4 108.2,43.3 108,43.3 100,67.4 
	93.8,67.4 85.9,43.3 85.6,43.3 85.6,67.4 78.9,67.4 "/>
<g>
	<defs>
		<rect id="SVGID_3_" x="-5.8" y="8.9" width="218.2" height="112.4"/>
	</defs>
	<clipPath id="SVGID_4_">
		<use xlink:href="#SVGID_3_"  style="overflow:visible;"/>
	</clipPath>
	
		<linearGradient id="SVGID_5_" gradientUnits="userSpaceOnUse" x1="-7.107328e-02" y1="315.1959" x2="0.9407" y2="315.1959" gradientTransform="matrix(71.0338 0 0 -71.0338 66.6794 22441.5117)">
		<stop  offset="0" style="stop-color:#774619"/>
		<stop  offset="6.624680e-02" style="stop-color:#B28727"/>
		<stop  offset="0.1545" style="stop-color:#B28727"/>
		<stop  offset="0.2989" style="stop-color:#F4C283"/>
		<stop  offset="0.36" style="stop-color:#EAC57A"/>
		<stop  offset="0.4303" style="stop-color:#E5C775"/>
		<stop  offset="0.4892" style="stop-color:#996C24"/>
		<stop  offset="0.6051" style="stop-color:#996C24"/>
		<stop  offset="0.6051" style="stop-color:#996C24"/>
		<stop  offset="0.6161" style="stop-color:#B68B3D"/>
		<stop  offset="0.6268" style="stop-color:#CAA04F"/>
		<stop  offset="0.6372" style="stop-color:#D7AE5A"/>
		<stop  offset="0.6466" style="stop-color:#DBB25E"/>
		<stop  offset="0.6494" style="stop-color:#D6AB59"/>
		<stop  offset="0.6649" style="stop-color:#BF8943"/>
		<stop  offset="0.6796" style="stop-color:#AE7132"/>
		<stop  offset="0.6931" style="stop-color:#A46228"/>
		<stop  offset="0.7043" style="stop-color:#A05D25"/>
		<stop  offset="0.7149" style="stop-color:#A6652D"/>
		<stop  offset="0.7311" style="stop-color:#B57A41"/>
		<stop  offset="0.751" style="stop-color:#CF9D63"/>
		<stop  offset="0.7735" style="stop-color:#F1CD92"/>
		<stop  offset="0.7756" style="stop-color:#F5D297"/>
		<stop  offset="0.8468" style="stop-color:#DEB763"/>
		<stop  offset="0.8861" style="stop-color:#B38D42"/>
		<stop  offset="0.9116" style="stop-color:#B28C42"/>
		<stop  offset="0.9134" style="stop-color:#B48E41"/>
		<stop  offset="0.9237" style="stop-color:#BB933C"/>
		<stop  offset="0.9509" style="stop-color:#BD943B"/>
		<stop  offset="1" style="stop-color:#774619"/>
	</linearGradient>
	<path class="st2" d="M97.6,86.2v-1c18.3,0,33.2-14.9,33.2-33.2c0-18.3-14.9-33.2-33.2-33.2c-18.3,0-33.2,14.9-33.2,33.2
		c0,18.3,14.9,33.2,33.2,33.2V86.2v1c-19.5,0-35.2-15.8-35.2-35.2c0-19.5,15.8-35.2,35.2-35.2c19.5,0,35.2,15.8,35.2,35.2
		c0,19.5-15.8,35.2-35.2,35.2V86.2z"/>
	
		<linearGradient id="SVGID_6_" gradientUnits="userSpaceOnUse" x1="-4.250421e-02" y1="313.7953" x2="0.9693" y2="313.7953" gradientTransform="matrix(126.451 0 0 -126.451 38.9707 39731.6797)">
		<stop  offset="0" style="stop-color:#774619"/>
		<stop  offset="6.624680e-02" style="stop-color:#B28727"/>
		<stop  offset="0.1545" style="stop-color:#B28727"/>
		<stop  offset="0.2989" style="stop-color:#F4C283"/>
		<stop  offset="0.36" style="stop-color:#EAC57A"/>
		<stop  offset="0.4303" style="stop-color:#E5C775"/>
		<stop  offset="0.4892" style="stop-color:#996C24"/>
		<stop  offset="0.6051" style="stop-color:#996C24"/>
		<stop  offset="0.6051" style="stop-color:#996C24"/>
		<stop  offset="0.6161" style="stop-color:#B68B3D"/>
		<stop  offset="0.6268" style="stop-color:#CAA04F"/>
		<stop  offset="0.6372" style="stop-color:#D7AE5A"/>
		<stop  offset="0.6466" style="stop-color:#DBB25E"/>
		<stop  offset="0.6494" style="stop-color:#D6AB59"/>
		<stop  offset="0.6649" style="stop-color:#BF8943"/>
		<stop  offset="0.6796" style="stop-color:#AE7132"/>
		<stop  offset="0.6931" style="stop-color:#A46228"/>
		<stop  offset="0.7043" style="stop-color:#A05D25"/>
		<stop  offset="0.7149" style="stop-color:#A6652D"/>
		<stop  offset="0.7311" style="stop-color:#B57A41"/>
		<stop  offset="0.751" style="stop-color:#CF9D63"/>
		<stop  offset="0.7735" style="stop-color:#F1CD92"/>
		<stop  offset="0.7756" style="stop-color:#F5D297"/>
		<stop  offset="0.8468" style="stop-color:#DEB763"/>
		<stop  offset="0.8861" style="stop-color:#B38D42"/>
		<stop  offset="0.9116" style="stop-color:#B28C42"/>
		<stop  offset="0.9134" style="stop-color:#B48E41"/>
		<stop  offset="0.9237" style="stop-color:#BB933C"/>
		<stop  offset="0.9509" style="stop-color:#BD943B"/>
		<stop  offset="1" style="stop-color:#774619"/>
	</linearGradient>
	<path class="st3" d="M97.6,86.2v-1c34.2,0,61.2-15.4,61.2-33.2c-0.1-17.8-27.1-33.2-61.2-33.2c-34.2,0-61.2,15.4-61.2,33.2
		c0.1,17.8,27.1,33.2,61.2,33.2V86.2v1C63,87.1,34.5,71.9,34.3,52C34.5,32,63,16.8,97.6,16.7c34.6,0.1,63.1,15.2,63.3,35.2
		c-0.2,20-28.7,35.2-63.3,35.2V86.2z"/>
	
		<linearGradient id="SVGID_7_" gradientUnits="userSpaceOnUse" x1="-3.204145e-02" y1="313.2823" x2="0.9797" y2="313.2823" gradientTransform="matrix(177.031 0 0 -177.031 13.6807 55512.6406)">
		<stop  offset="0" style="stop-color:#774619"/>
		<stop  offset="6.624680e-02" style="stop-color:#B28727"/>
		<stop  offset="0.1545" style="stop-color:#B28727"/>
		<stop  offset="0.2989" style="stop-color:#F4C283"/>
		<stop  offset="0.36" style="stop-color:#EAC57A"/>
		<stop  offset="0.4303" style="stop-color:#E5C775"/>
		<stop  offset="0.4892" style="stop-color:#996C24"/>
		<stop  offset="0.6051" style="stop-color:#996C24"/>
		<stop  offset="0.6051" style="stop-color:#996C24"/>
		<stop  offset="0.6161" style="stop-color:#B68B3D"/>
		<stop  offset="0.6268" style="stop-color:#CAA04F"/>
		<stop  offset="0.6372" style="stop-color:#D7AE5A"/>
		<stop  offset="0.6466" style="stop-color:#DBB25E"/>
		<stop  offset="0.6494" style="stop-color:#D6AB59"/>
		<stop  offset="0.6649" style="stop-color:#BF8943"/>
		<stop  offset="0.6796" style="stop-color:#AE7132"/>
		<stop  offset="0.6931" style="stop-color:#A46228"/>
		<stop  offset="0.7043" style="stop-color:#A05D25"/>
		<stop  offset="0.7149" style="stop-color:#A6652D"/>
		<stop  offset="0.7311" style="stop-color:#B57A41"/>
		<stop  offset="0.751" style="stop-color:#CF9D63"/>
		<stop  offset="0.7735" style="stop-color:#F1CD92"/>
		<stop  offset="0.7756" style="stop-color:#F5D297"/>
		<stop  offset="0.8468" style="stop-color:#DEB763"/>
		<stop  offset="0.8861" style="stop-color:#B38D42"/>
		<stop  offset="0.9116" style="stop-color:#B28C42"/>
		<stop  offset="0.9134" style="stop-color:#B48E41"/>
		<stop  offset="0.9237" style="stop-color:#BB933C"/>
		<stop  offset="0.9509" style="stop-color:#BD943B"/>
		<stop  offset="1" style="stop-color:#774619"/>
	</linearGradient>
	<path class="st4" d="M97.6,86.2v-1c24.1,0,46-3.8,61.7-10c15.8-6.1,25.2-14.6,25.1-23.3c0.1-8.7-9.3-17.1-25.1-23.3
		c-15.7-6.1-37.6-10-61.7-10c-24.1,0-46,3.8-61.7,10C20,34.8,10.6,43.3,10.7,52c-0.1,8.7,9.3,17.1,25.1,23.3
		c15.7,6.1,37.6,10,61.7,10L97.6,86.2v1C48.9,87,9.2,72.3,8.7,52c0.4-20.3,40.2-35.1,88.9-35.2c48.6,0.2,88.4,14.9,88.9,35.2
		C186,72.3,146.2,87,97.6,87.2V86.2z"/>
</g>
<linearGradient id="SVGID_8_" gradientUnits="userSpaceOnUse" x1="-0.1055" y1="315.5948" x2="0.9062" y2="315.5948" gradientTransform="matrix(53.7416 0 0 -53.7416 13.6807 17012.5215)">
	<stop  offset="0" style="stop-color:#774619"/>
	<stop  offset="6.624680e-02" style="stop-color:#B28727"/>
	<stop  offset="0.1545" style="stop-color:#B28727"/>
	<stop  offset="0.2989" style="stop-color:#F4C283"/>
	<stop  offset="0.36" style="stop-color:#EAC57A"/>
	<stop  offset="0.4303" style="stop-color:#E5C775"/>
	<stop  offset="0.4892" style="stop-color:#996C24"/>
	<stop  offset="0.6051" style="stop-color:#996C24"/>
	<stop  offset="0.6051" style="stop-color:#996C24"/>
	<stop  offset="0.6161" style="stop-color:#B68B3D"/>
	<stop  offset="0.6268" style="stop-color:#CAA04F"/>
	<stop  offset="0.6372" style="stop-color:#D7AE5A"/>
	<stop  offset="0.6466" style="stop-color:#DBB25E"/>
	<stop  offset="0.6494" style="stop-color:#D6AB59"/>
	<stop  offset="0.6649" style="stop-color:#BF8943"/>
	<stop  offset="0.6796" style="stop-color:#AE7132"/>
	<stop  offset="0.6931" style="stop-color:#A46228"/>
	<stop  offset="0.7043" style="stop-color:#A05D25"/>
	<stop  offset="0.7149" style="stop-color:#A6652D"/>
	<stop  offset="0.7311" style="stop-color:#B57A41"/>
	<stop  offset="0.751" style="stop-color:#CF9D63"/>
	<stop  offset="0.7735" style="stop-color:#F1CD92"/>
	<stop  offset="0.7756" style="stop-color:#F5D297"/>
	<stop  offset="0.8468" style="stop-color:#DEB763"/>
	<stop  offset="0.8861" style="stop-color:#B38D42"/>
	<stop  offset="0.9116" style="stop-color:#B28C42"/>
	<stop  offset="0.9134" style="stop-color:#B48E41"/>
	<stop  offset="0.9237" style="stop-color:#BB933C"/>
	<stop  offset="0.9509" style="stop-color:#BD943B"/>
	<stop  offset="1" style="stop-color:#774619"/>
</linearGradient>
<polyline class="st5" points="8,50.9 62.4,50.9 62.4,53 8,53 "/>
<linearGradient id="SVGID_9_" gradientUnits="userSpaceOnUse" x1="-8.332338e-02" y1="315.8125" x2="0.9284" y2="315.8125" gradientTransform="matrix(50.6733 0 0 -50.6733 136.877 16055.2119)">
	<stop  offset="0" style="stop-color:#774619"/>
	<stop  offset="6.624680e-02" style="stop-color:#B28727"/>
	<stop  offset="0.1545" style="stop-color:#B28727"/>
	<stop  offset="0.2989" style="stop-color:#F4C283"/>
	<stop  offset="0.36" style="stop-color:#EAC57A"/>
	<stop  offset="0.4303" style="stop-color:#E5C775"/>
	<stop  offset="0.4892" style="stop-color:#996C24"/>
	<stop  offset="0.6051" style="stop-color:#996C24"/>
	<stop  offset="0.6051" style="stop-color:#996C24"/>
	<stop  offset="0.6161" style="stop-color:#B68B3D"/>
	<stop  offset="0.6268" style="stop-color:#CAA04F"/>
	<stop  offset="0.6372" style="stop-color:#D7AE5A"/>
	<stop  offset="0.6466" style="stop-color:#DBB25E"/>
	<stop  offset="0.6494" style="stop-color:#D6AB59"/>
	<stop  offset="0.6649" style="stop-color:#BF8943"/>
	<stop  offset="0.6796" style="stop-color:#AE7132"/>
	<stop  offset="0.6931" style="stop-color:#A46228"/>
	<stop  offset="0.7043" style="stop-color:#A05D25"/>
	<stop  offset="0.7149" style="stop-color:#A6652D"/>
	<stop  offset="0.7311" style="stop-color:#B57A41"/>
	<stop  offset="0.751" style="stop-color:#CF9D63"/>
	<stop  offset="0.7735" style="stop-color:#F1CD92"/>
	<stop  offset="0.7756" style="stop-color:#F5D297"/>
	<stop  offset="0.8468" style="stop-color:#DEB763"/>
	<stop  offset="0.8861" style="stop-color:#B38D42"/>
	<stop  offset="0.9116" style="stop-color:#B28C42"/>
	<stop  offset="0.9134" style="stop-color:#B48E41"/>
	<stop  offset="0.9237" style="stop-color:#BB933C"/>
	<stop  offset="0.9509" style="stop-color:#BD943B"/>
	<stop  offset="1" style="stop-color:#774619"/>
</linearGradient>
<polyline class="st6" points="132.7,50.9 183.9,50.9 183.9,53 132.7,53 "/>
</svg>
