<?xml version="1.0" encoding="utf-8"?>
<!-- Generator: Adobe Illustrator 24.0.2, SVG Export Plug-In . SVG Version: 6.00 Build 0)  -->
<svg version="1.1" id="Layer_1" xmlns="http://www.w3.org/2000/svg" xmlns:xlink="http://www.w3.org/1999/xlink" x="0px" y="0px"
	 viewBox="0 0 200 91" style="enable-background:new 0 0 200 91;" xml:space="preserve">
<style type="text/css">
	.st0{fill:url(#XMLID_2_);}
	.st1{fill:url(#XMLID_3_);}
	.st2{fill:url(#XMLID_4_);}
	.st3{fill:url(#XMLID_5_);}
	.st4{fill:url(#XMLID_6_);}
	.st5{fill:url(#XMLID_7_);}
	.st6{fill:url(#XMLID_8_);}
	.st7{fill:url(#XMLID_9_);}
	.st8{fill:url(#XMLID_10_);}
	.st9{fill:url(#XMLID_11_);}
	.st10{fill:url(#XMLID_12_);}
	.st11{fill:url(#XMLID_13_);}
	.st12{fill:url(#XMLID_48_);}
</style>
<g id="XMLID_64_">
	<g id="XMLID_32_">
		<linearGradient id="XMLID_2_" gradientUnits="userSpaceOnUse" x1="9.553" y1="20.5155" x2="189.8881" y2="20.5155">
			<stop  offset="0" style="stop-color:#7F4812"/>
			<stop  offset="0.0662" style="stop-color:#BA8B0E"/>
			<stop  offset="0.1545" style="stop-color:#BA8B0E"/>
			<stop  offset="0.2989" style="stop-color:#F7C885"/>
			<stop  offset="0.3096" style="stop-color:#F5C983"/>
			<stop  offset="0.3745" style="stop-color:#EECD79"/>
			<stop  offset="0.4303" style="stop-color:#ECCE75"/>
			<stop  offset="0.4892" style="stop-color:#A27014"/>
			<stop  offset="0.6051" style="stop-color:#A27014"/>
			<stop  offset="0.6159" style="stop-color:#BC8D2D"/>
			<stop  offset="0.6267" style="stop-color:#D2A544"/>
			<stop  offset="0.6371" style="stop-color:#DFB553"/>
			<stop  offset="0.6466" style="stop-color:#E4BA58"/>
			<stop  offset="0.6542" style="stop-color:#D5A447"/>
			<stop  offset="0.6683" style="stop-color:#C08330"/>
			<stop  offset="0.6818" style="stop-color:#B16D23"/>
			<stop  offset="0.6941" style="stop-color:#A9601C"/>
			<stop  offset="0.7043" style="stop-color:#A65C1A"/>
			<stop  offset="0.7138" style="stop-color:#AB621F"/>
			<stop  offset="0.7285" style="stop-color:#B6732E"/>
			<stop  offset="0.7465" style="stop-color:#CB924E"/>
			<stop  offset="0.7669" style="stop-color:#E9C182"/>
			<stop  offset="0.7756" style="stop-color:#F9D89D"/>
			<stop  offset="0.8468" style="stop-color:#E5BD5E"/>
			<stop  offset="0.8861" style="stop-color:#BB923A"/>
			<stop  offset="0.9116" style="stop-color:#BB923A"/>
			<stop  offset="0.9155" style="stop-color:#BF9435"/>
			<stop  offset="0.9256" style="stop-color:#C3982F"/>
			<stop  offset="0.9509" style="stop-color:#C5992D"/>
			<stop  offset="1" style="stop-color:#7F4812"/>
		</linearGradient>
		<path id="XMLID_46_" class="st0" d="M2.05,4.05h24.96v7.74H11.3v4.82h13.66v7.71H11.3v12.65H2.05V4.05z"/>
		<linearGradient id="XMLID_3_" gradientUnits="userSpaceOnUse" x1="9.553" y1="20.5155" x2="189.8881" y2="20.5155">
			<stop  offset="0" style="stop-color:#7F4812"/>
			<stop  offset="0.0662" style="stop-color:#BA8B0E"/>
			<stop  offset="0.1545" style="stop-color:#BA8B0E"/>
			<stop  offset="0.2989" style="stop-color:#F7C885"/>
			<stop  offset="0.3096" style="stop-color:#F5C983"/>
			<stop  offset="0.3745" style="stop-color:#EECD79"/>
			<stop  offset="0.4303" style="stop-color:#ECCE75"/>
			<stop  offset="0.4892" style="stop-color:#A27014"/>
			<stop  offset="0.6051" style="stop-color:#A27014"/>
			<stop  offset="0.6159" style="stop-color:#BC8D2D"/>
			<stop  offset="0.6267" style="stop-color:#D2A544"/>
			<stop  offset="0.6371" style="stop-color:#DFB553"/>
			<stop  offset="0.6466" style="stop-color:#E4BA58"/>
			<stop  offset="0.6542" style="stop-color:#D5A447"/>
			<stop  offset="0.6683" style="stop-color:#C08330"/>
			<stop  offset="0.6818" style="stop-color:#B16D23"/>
			<stop  offset="0.6941" style="stop-color:#A9601C"/>
			<stop  offset="0.7043" style="stop-color:#A65C1A"/>
			<stop  offset="0.7138" style="stop-color:#AB621F"/>
			<stop  offset="0.7285" style="stop-color:#B6732E"/>
			<stop  offset="0.7465" style="stop-color:#CB924E"/>
			<stop  offset="0.7669" style="stop-color:#E9C182"/>
			<stop  offset="0.7756" style="stop-color:#F9D89D"/>
			<stop  offset="0.8468" style="stop-color:#E5BD5E"/>
			<stop  offset="0.8861" style="stop-color:#BB923A"/>
			<stop  offset="0.9116" style="stop-color:#BB923A"/>
			<stop  offset="0.9155" style="stop-color:#BF9435"/>
			<stop  offset="0.9256" style="stop-color:#C3982F"/>
			<stop  offset="0.9509" style="stop-color:#C5992D"/>
			<stop  offset="1" style="stop-color:#7F4812"/>
		</linearGradient>
		<path id="XMLID_42_" class="st1" d="M46.87,30.69H35.22l-2,6.29H23.2L34.94,4.05h12.21L58.9,36.98H48.88L46.87,30.69z
			 M44.52,23.32L41.14,12.7h-0.19l-3.38,10.63H44.52z"/>
		<linearGradient id="XMLID_4_" gradientUnits="userSpaceOnUse" x1="9.553" y1="20.5155" x2="189.8881" y2="20.5155">
			<stop  offset="0" style="stop-color:#7F4812"/>
			<stop  offset="0.0662" style="stop-color:#BA8B0E"/>
			<stop  offset="0.1545" style="stop-color:#BA8B0E"/>
			<stop  offset="0.2989" style="stop-color:#F7C885"/>
			<stop  offset="0.3096" style="stop-color:#F5C983"/>
			<stop  offset="0.3745" style="stop-color:#EECD79"/>
			<stop  offset="0.4303" style="stop-color:#ECCE75"/>
			<stop  offset="0.4892" style="stop-color:#A27014"/>
			<stop  offset="0.6051" style="stop-color:#A27014"/>
			<stop  offset="0.6159" style="stop-color:#BC8D2D"/>
			<stop  offset="0.6267" style="stop-color:#D2A544"/>
			<stop  offset="0.6371" style="stop-color:#DFB553"/>
			<stop  offset="0.6466" style="stop-color:#E4BA58"/>
			<stop  offset="0.6542" style="stop-color:#D5A447"/>
			<stop  offset="0.6683" style="stop-color:#C08330"/>
			<stop  offset="0.6818" style="stop-color:#B16D23"/>
			<stop  offset="0.6941" style="stop-color:#A9601C"/>
			<stop  offset="0.7043" style="stop-color:#A65C1A"/>
			<stop  offset="0.7138" style="stop-color:#AB621F"/>
			<stop  offset="0.7285" style="stop-color:#B6732E"/>
			<stop  offset="0.7465" style="stop-color:#CB924E"/>
			<stop  offset="0.7669" style="stop-color:#E9C182"/>
			<stop  offset="0.7756" style="stop-color:#F9D89D"/>
			<stop  offset="0.8468" style="stop-color:#E5BD5E"/>
			<stop  offset="0.8861" style="stop-color:#BB923A"/>
			<stop  offset="0.9116" style="stop-color:#BB923A"/>
			<stop  offset="0.9155" style="stop-color:#BF9435"/>
			<stop  offset="0.9256" style="stop-color:#C3982F"/>
			<stop  offset="0.9509" style="stop-color:#C5992D"/>
			<stop  offset="1" style="stop-color:#7F4812"/>
		</linearGradient>
		<path id="XMLID_40_" class="st2" d="M61.05,4.05h13.94l6.64,21.53l6.62-21.53h13.94v32.93h-9.25v-23.4H92.7l-7.25,23.4H77.8
			l-7.25-23.4H70.3v23.4h-9.25V4.05z"/>
		<linearGradient id="XMLID_5_" gradientUnits="userSpaceOnUse" x1="9.553" y1="20.5038" x2="189.8881" y2="20.5038">
			<stop  offset="0" style="stop-color:#7F4812"/>
			<stop  offset="0.0662" style="stop-color:#BA8B0E"/>
			<stop  offset="0.1545" style="stop-color:#BA8B0E"/>
			<stop  offset="0.2989" style="stop-color:#F7C885"/>
			<stop  offset="0.3096" style="stop-color:#F5C983"/>
			<stop  offset="0.3745" style="stop-color:#EECD79"/>
			<stop  offset="0.4303" style="stop-color:#ECCE75"/>
			<stop  offset="0.4892" style="stop-color:#A27014"/>
			<stop  offset="0.6051" style="stop-color:#A27014"/>
			<stop  offset="0.6159" style="stop-color:#BC8D2D"/>
			<stop  offset="0.6267" style="stop-color:#D2A544"/>
			<stop  offset="0.6371" style="stop-color:#DFB553"/>
			<stop  offset="0.6466" style="stop-color:#E4BA58"/>
			<stop  offset="0.6542" style="stop-color:#D5A447"/>
			<stop  offset="0.6683" style="stop-color:#C08330"/>
			<stop  offset="0.6818" style="stop-color:#B16D23"/>
			<stop  offset="0.6941" style="stop-color:#A9601C"/>
			<stop  offset="0.7043" style="stop-color:#A65C1A"/>
			<stop  offset="0.7138" style="stop-color:#AB621F"/>
			<stop  offset="0.7285" style="stop-color:#B6732E"/>
			<stop  offset="0.7465" style="stop-color:#CB924E"/>
			<stop  offset="0.7669" style="stop-color:#E9C182"/>
			<stop  offset="0.7756" style="stop-color:#F9D89D"/>
			<stop  offset="0.8468" style="stop-color:#E5BD5E"/>
			<stop  offset="0.8861" style="stop-color:#BB923A"/>
			<stop  offset="0.9116" style="stop-color:#BB923A"/>
			<stop  offset="0.9155" style="stop-color:#BF9435"/>
			<stop  offset="0.9256" style="stop-color:#C3982F"/>
			<stop  offset="0.9509" style="stop-color:#C5992D"/>
			<stop  offset="1" style="stop-color:#7F4812"/>
		</linearGradient>
		<path id="XMLID_37_" class="st3" d="M111.92,35.56c-2.39-1.26-4.22-3.15-5.49-5.67c-1.27-2.52-1.9-5.65-1.9-9.38
			c0-3.71,0.63-6.83,1.9-9.36c1.27-2.52,3.1-4.42,5.49-5.69c2.39-1.27,5.27-1.9,8.65-1.9c3.36,0,6.25,0.63,8.68,1.9
			c2.43,1.27,4.3,3.16,5.6,5.69c1.31,2.52,1.96,5.64,1.96,9.36c0,3.71-0.65,6.83-1.96,9.36c-1.3,2.52-3.17,4.42-5.6,5.69
			c-2.43,1.27-5.32,1.9-8.68,1.9C117.2,37.45,114.32,36.82,111.92,35.56z M125.81,27.27c1.15-1.61,1.72-3.86,1.72-6.77
			c0-2.9-0.58-5.16-1.72-6.76c-1.15-1.6-2.9-2.4-5.24-2.4c-4.52,0-6.78,3.05-6.78,9.16c0,6.12,2.26,9.18,6.78,9.18
			C122.92,29.69,124.66,28.88,125.81,27.27z"/>
		<linearGradient id="XMLID_6_" gradientUnits="userSpaceOnUse" x1="9.553" y1="20.7485" x2="189.8881" y2="20.7485">
			<stop  offset="0" style="stop-color:#7F4812"/>
			<stop  offset="0.0662" style="stop-color:#BA8B0E"/>
			<stop  offset="0.1545" style="stop-color:#BA8B0E"/>
			<stop  offset="0.2989" style="stop-color:#F7C885"/>
			<stop  offset="0.3096" style="stop-color:#F5C983"/>
			<stop  offset="0.3745" style="stop-color:#EECD79"/>
			<stop  offset="0.4303" style="stop-color:#ECCE75"/>
			<stop  offset="0.4892" style="stop-color:#A27014"/>
			<stop  offset="0.6051" style="stop-color:#A27014"/>
			<stop  offset="0.6159" style="stop-color:#BC8D2D"/>
			<stop  offset="0.6267" style="stop-color:#D2A544"/>
			<stop  offset="0.6371" style="stop-color:#DFB553"/>
			<stop  offset="0.6466" style="stop-color:#E4BA58"/>
			<stop  offset="0.6542" style="stop-color:#D5A447"/>
			<stop  offset="0.6683" style="stop-color:#C08330"/>
			<stop  offset="0.6818" style="stop-color:#B16D23"/>
			<stop  offset="0.6941" style="stop-color:#A9601C"/>
			<stop  offset="0.7043" style="stop-color:#A65C1A"/>
			<stop  offset="0.7138" style="stop-color:#AB621F"/>
			<stop  offset="0.7285" style="stop-color:#B6732E"/>
			<stop  offset="0.7465" style="stop-color:#CB924E"/>
			<stop  offset="0.7669" style="stop-color:#E9C182"/>
			<stop  offset="0.7756" style="stop-color:#F9D89D"/>
			<stop  offset="0.8468" style="stop-color:#E5BD5E"/>
			<stop  offset="0.8861" style="stop-color:#BB923A"/>
			<stop  offset="0.9116" style="stop-color:#BB923A"/>
			<stop  offset="0.9155" style="stop-color:#BF9435"/>
			<stop  offset="0.9256" style="stop-color:#C3982F"/>
			<stop  offset="0.9509" style="stop-color:#C5992D"/>
			<stop  offset="1" style="stop-color:#7F4812"/>
		</linearGradient>
		<path id="XMLID_35_" class="st4" d="M142.79,33.95c-2.31-2.33-3.46-5.66-3.46-10V4.05h9.28v20.18c0,1.54,0.42,2.72,1.25,3.54
			c0.83,0.82,2.04,1.24,3.62,1.24c1.65,0,2.92-0.42,3.81-1.25c0.89-0.83,1.34-2.01,1.34-3.53V4.05h9.25v19.67
			c0,4.44-1.17,7.84-3.52,10.2c-2.35,2.35-5.97,3.53-10.88,3.53C148.66,37.45,145.1,36.28,142.79,33.95z"/>
		<linearGradient id="XMLID_7_" gradientUnits="userSpaceOnUse" x1="9.553" y1="20.4573" x2="189.8881" y2="20.4573">
			<stop  offset="0" style="stop-color:#7F4812"/>
			<stop  offset="0.0662" style="stop-color:#BA8B0E"/>
			<stop  offset="0.1545" style="stop-color:#BA8B0E"/>
			<stop  offset="0.2989" style="stop-color:#F7C885"/>
			<stop  offset="0.3096" style="stop-color:#F5C983"/>
			<stop  offset="0.3745" style="stop-color:#EECD79"/>
			<stop  offset="0.4303" style="stop-color:#ECCE75"/>
			<stop  offset="0.4892" style="stop-color:#A27014"/>
			<stop  offset="0.6051" style="stop-color:#A27014"/>
			<stop  offset="0.6159" style="stop-color:#BC8D2D"/>
			<stop  offset="0.6267" style="stop-color:#D2A544"/>
			<stop  offset="0.6371" style="stop-color:#DFB553"/>
			<stop  offset="0.6466" style="stop-color:#E4BA58"/>
			<stop  offset="0.6542" style="stop-color:#D5A447"/>
			<stop  offset="0.6683" style="stop-color:#C08330"/>
			<stop  offset="0.6818" style="stop-color:#B16D23"/>
			<stop  offset="0.6941" style="stop-color:#A9601C"/>
			<stop  offset="0.7043" style="stop-color:#A65C1A"/>
			<stop  offset="0.7138" style="stop-color:#AB621F"/>
			<stop  offset="0.7285" style="stop-color:#B6732E"/>
			<stop  offset="0.7465" style="stop-color:#CB924E"/>
			<stop  offset="0.7669" style="stop-color:#E9C182"/>
			<stop  offset="0.7756" style="stop-color:#F9D89D"/>
			<stop  offset="0.8468" style="stop-color:#E5BD5E"/>
			<stop  offset="0.8861" style="stop-color:#BB923A"/>
			<stop  offset="0.9116" style="stop-color:#BB923A"/>
			<stop  offset="0.9155" style="stop-color:#BF9435"/>
			<stop  offset="0.9256" style="stop-color:#C3982F"/>
			<stop  offset="0.9509" style="stop-color:#C5992D"/>
			<stop  offset="1" style="stop-color:#7F4812"/>
		</linearGradient>
		<path id="XMLID_33_" class="st5" d="M174.32,34.74c-2.65-1.74-3.97-4.7-3.97-8.88h9.07c0.11,1.45,0.63,2.51,1.55,3.2
			c0.92,0.69,2.11,1.04,3.55,1.04c1.26,0,2.23-0.23,2.92-0.7c0.69-0.47,1.04-1.11,1.04-1.93c0-0.76-0.28-1.38-0.84-1.86
			c-0.56-0.48-1.27-0.86-2.13-1.14c-0.86-0.28-2.05-0.59-3.55-0.93l-0.68-0.16c-2.11-0.5-3.89-1.05-5.33-1.65
			c-1.44-0.61-2.65-1.54-3.64-2.81c-0.99-1.27-1.48-2.96-1.48-5.07c0-2.19,0.53-4.06,1.58-5.59s2.53-2.7,4.43-3.5
			c1.9-0.79,4.1-1.19,6.62-1.19c2.14,0,4.21,0.31,6.19,0.93c1.98,0.62,3.64,1.72,4.99,3.31c1.34,1.58,2.02,3.72,2.02,6.41h-8.79
			c0-1.26-0.37-2.24-1.11-2.95c-0.74-0.71-1.84-1.06-3.3-1.06c-1.18,0-2.08,0.23-2.69,0.68c-0.61,0.45-0.92,1.04-0.92,1.77
			c0,0.62,0.25,1.13,0.76,1.51c0.5,0.39,1.15,0.7,1.95,0.92c0.79,0.23,1.89,0.48,3.29,0.76l0.56,0.12c2.27,0.47,4.19,1.02,5.76,1.65
			c1.57,0.64,2.91,1.66,4.02,3.08c1.11,1.41,1.67,3.32,1.67,5.73c0,2.21-0.51,4.13-1.54,5.77c-1.03,1.64-2.56,2.91-4.6,3.81
			c-2.04,0.9-4.55,1.35-7.52,1.35C180.26,37.35,176.97,36.48,174.32,34.74z"/>
	</g>
	<g id="XMLID_20_">
		<linearGradient id="XMLID_8_" gradientUnits="userSpaceOnUse" x1="9.553" y1="70.9367" x2="189.8881" y2="70.9367">
			<stop  offset="0" style="stop-color:#7F4812"/>
			<stop  offset="0.0662" style="stop-color:#BA8B0E"/>
			<stop  offset="0.1545" style="stop-color:#BA8B0E"/>
			<stop  offset="0.2989" style="stop-color:#F7C885"/>
			<stop  offset="0.3096" style="stop-color:#F5C983"/>
			<stop  offset="0.3745" style="stop-color:#EECD79"/>
			<stop  offset="0.4303" style="stop-color:#ECCE75"/>
			<stop  offset="0.4892" style="stop-color:#A27014"/>
			<stop  offset="0.6051" style="stop-color:#A27014"/>
			<stop  offset="0.6159" style="stop-color:#BC8D2D"/>
			<stop  offset="0.6267" style="stop-color:#D2A544"/>
			<stop  offset="0.6371" style="stop-color:#DFB553"/>
			<stop  offset="0.6466" style="stop-color:#E4BA58"/>
			<stop  offset="0.6542" style="stop-color:#D5A447"/>
			<stop  offset="0.6683" style="stop-color:#C08330"/>
			<stop  offset="0.6818" style="stop-color:#B16D23"/>
			<stop  offset="0.6941" style="stop-color:#A9601C"/>
			<stop  offset="0.7043" style="stop-color:#A65C1A"/>
			<stop  offset="0.7138" style="stop-color:#AB621F"/>
			<stop  offset="0.7285" style="stop-color:#B6732E"/>
			<stop  offset="0.7465" style="stop-color:#CB924E"/>
			<stop  offset="0.7669" style="stop-color:#E9C182"/>
			<stop  offset="0.7756" style="stop-color:#F9D89D"/>
			<stop  offset="0.8468" style="stop-color:#E5BD5E"/>
			<stop  offset="0.8861" style="stop-color:#BB923A"/>
			<stop  offset="0.9116" style="stop-color:#BB923A"/>
			<stop  offset="0.9155" style="stop-color:#BF9435"/>
			<stop  offset="0.9256" style="stop-color:#C3982F"/>
			<stop  offset="0.9509" style="stop-color:#C5992D"/>
			<stop  offset="1" style="stop-color:#7F4812"/>
		</linearGradient>
		<path id="XMLID_30_" class="st6" d="M5.22,85.22c-2.65-1.74-3.97-4.7-3.97-8.88h9.07c0.11,1.45,0.63,2.51,1.55,3.2
			c0.92,0.69,2.11,1.04,3.55,1.04c1.26,0,2.23-0.23,2.92-0.7c0.69-0.47,1.04-1.11,1.04-1.93c0-0.76-0.28-1.38-0.84-1.86
			c-0.56-0.48-1.27-0.86-2.13-1.14c-0.86-0.28-2.05-0.59-3.55-0.93l-0.68-0.16c-2.11-0.5-3.89-1.05-5.33-1.65s-2.65-1.54-3.64-2.81
			c-0.99-1.27-1.48-2.96-1.48-5.07c0-2.19,0.53-4.06,1.58-5.59c1.06-1.54,2.53-2.7,4.43-3.5c1.9-0.79,4.1-1.19,6.62-1.19
			c2.14,0,4.21,0.31,6.19,0.93c1.98,0.62,3.64,1.72,4.99,3.31c1.34,1.58,2.02,3.72,2.02,6.41h-8.79c0-1.26-0.37-2.24-1.11-2.95
			c-0.74-0.71-1.84-1.06-3.3-1.06c-1.18,0-2.08,0.23-2.69,0.68c-0.61,0.45-0.92,1.04-0.92,1.77c0,0.62,0.25,1.13,0.76,1.51
			c0.5,0.39,1.15,0.7,1.95,0.92c0.79,0.23,1.89,0.48,3.29,0.76l0.56,0.12c2.27,0.47,4.19,1.02,5.76,1.65
			c1.57,0.64,2.91,1.66,4.02,3.08c1.11,1.41,1.67,3.32,1.67,5.73c0,2.21-0.51,4.13-1.54,5.77c-1.03,1.64-2.56,2.91-4.6,3.81
			c-2.04,0.9-4.55,1.35-7.52,1.35C11.16,87.83,7.87,86.96,5.22,85.22z"/>
		<linearGradient id="XMLID_9_" gradientUnits="userSpaceOnUse" x1="9.553" y1="70.9835" x2="189.8881" y2="70.9835">
			<stop  offset="0" style="stop-color:#7F4812"/>
			<stop  offset="0.0662" style="stop-color:#BA8B0E"/>
			<stop  offset="0.1545" style="stop-color:#BA8B0E"/>
			<stop  offset="0.2989" style="stop-color:#F7C885"/>
			<stop  offset="0.3096" style="stop-color:#F5C983"/>
			<stop  offset="0.3745" style="stop-color:#EECD79"/>
			<stop  offset="0.4303" style="stop-color:#ECCE75"/>
			<stop  offset="0.4892" style="stop-color:#A27014"/>
			<stop  offset="0.6051" style="stop-color:#A27014"/>
			<stop  offset="0.6159" style="stop-color:#BC8D2D"/>
			<stop  offset="0.6267" style="stop-color:#D2A544"/>
			<stop  offset="0.6371" style="stop-color:#DFB553"/>
			<stop  offset="0.6466" style="stop-color:#E4BA58"/>
			<stop  offset="0.6542" style="stop-color:#D5A447"/>
			<stop  offset="0.6683" style="stop-color:#C08330"/>
			<stop  offset="0.6818" style="stop-color:#B16D23"/>
			<stop  offset="0.6941" style="stop-color:#A9601C"/>
			<stop  offset="0.7043" style="stop-color:#A65C1A"/>
			<stop  offset="0.7138" style="stop-color:#AB621F"/>
			<stop  offset="0.7285" style="stop-color:#B6732E"/>
			<stop  offset="0.7465" style="stop-color:#CB924E"/>
			<stop  offset="0.7669" style="stop-color:#E9C182"/>
			<stop  offset="0.7756" style="stop-color:#F9D89D"/>
			<stop  offset="0.8468" style="stop-color:#E5BD5E"/>
			<stop  offset="0.8861" style="stop-color:#BB923A"/>
			<stop  offset="0.9116" style="stop-color:#BB923A"/>
			<stop  offset="0.9155" style="stop-color:#BF9435"/>
			<stop  offset="0.9256" style="stop-color:#C3982F"/>
			<stop  offset="0.9509" style="stop-color:#C5992D"/>
			<stop  offset="1" style="stop-color:#7F4812"/>
		</linearGradient>
		<path id="XMLID_27_" class="st7" d="M37.09,86.04c-2.39-1.26-4.22-3.15-5.49-5.67c-1.27-2.52-1.9-5.65-1.9-9.38
			c0-3.71,0.63-6.83,1.9-9.36c1.27-2.52,3.1-4.42,5.49-5.69c2.39-1.27,5.27-1.9,8.65-1.9c3.36,0,6.25,0.63,8.68,1.9
			c2.43,1.27,4.3,3.16,5.6,5.69c1.31,2.52,1.96,5.64,1.96,9.36c0,3.71-0.65,6.83-1.96,9.36c-1.3,2.52-3.17,4.42-5.6,5.69
			c-2.43,1.27-5.32,1.9-8.68,1.9C42.36,87.93,39.48,87.3,37.09,86.04z M50.98,77.75c1.15-1.61,1.72-3.86,1.72-6.77
			c0-2.9-0.58-5.16-1.72-6.76c-1.15-1.6-2.9-2.4-5.24-2.4c-4.52,0-6.78,3.05-6.78,9.16c0,6.12,2.26,9.18,6.78,9.18
			C48.08,80.17,49.83,79.36,50.98,77.75z"/>
		<linearGradient id="XMLID_10_" gradientUnits="userSpaceOnUse" x1="9.553" y1="70.995" x2="189.8881" y2="70.995">
			<stop  offset="0" style="stop-color:#7F4812"/>
			<stop  offset="0.0662" style="stop-color:#BA8B0E"/>
			<stop  offset="0.1545" style="stop-color:#BA8B0E"/>
			<stop  offset="0.2989" style="stop-color:#F7C885"/>
			<stop  offset="0.3096" style="stop-color:#F5C983"/>
			<stop  offset="0.3745" style="stop-color:#EECD79"/>
			<stop  offset="0.4303" style="stop-color:#ECCE75"/>
			<stop  offset="0.4892" style="stop-color:#A27014"/>
			<stop  offset="0.6051" style="stop-color:#A27014"/>
			<stop  offset="0.6159" style="stop-color:#BC8D2D"/>
			<stop  offset="0.6267" style="stop-color:#D2A544"/>
			<stop  offset="0.6371" style="stop-color:#DFB553"/>
			<stop  offset="0.6466" style="stop-color:#E4BA58"/>
			<stop  offset="0.6542" style="stop-color:#D5A447"/>
			<stop  offset="0.6683" style="stop-color:#C08330"/>
			<stop  offset="0.6818" style="stop-color:#B16D23"/>
			<stop  offset="0.6941" style="stop-color:#A9601C"/>
			<stop  offset="0.7043" style="stop-color:#A65C1A"/>
			<stop  offset="0.7138" style="stop-color:#AB621F"/>
			<stop  offset="0.7285" style="stop-color:#B6732E"/>
			<stop  offset="0.7465" style="stop-color:#CB924E"/>
			<stop  offset="0.7669" style="stop-color:#E9C182"/>
			<stop  offset="0.7756" style="stop-color:#F9D89D"/>
			<stop  offset="0.8468" style="stop-color:#E5BD5E"/>
			<stop  offset="0.8861" style="stop-color:#BB923A"/>
			<stop  offset="0.9116" style="stop-color:#BB923A"/>
			<stop  offset="0.9155" style="stop-color:#BF9435"/>
			<stop  offset="0.9256" style="stop-color:#C3982F"/>
			<stop  offset="0.9509" style="stop-color:#C5992D"/>
			<stop  offset="1" style="stop-color:#7F4812"/>
		</linearGradient>
		<path id="XMLID_24_" class="st8" d="M63.69,54.53h13.94c5.83,0,10.04,1.42,12.65,4.26c2.61,2.84,3.92,6.92,3.92,12.24
			c0,5.38-1.32,9.46-3.97,12.25c-2.65,2.79-6.86,4.18-12.64,4.18H63.69V54.53z M77,79.68c2.07,0,3.69-0.35,4.87-1.04
			c1.18-0.69,2.01-1.68,2.49-2.96c0.48-1.28,0.72-2.89,0.72-4.84c0-1.83-0.22-3.37-0.65-4.6c-0.43-1.24-1.21-2.2-2.32-2.89
			c-1.11-0.69-2.64-1.04-4.58-1.04h-4.59v17.36H77z"/>
		<linearGradient id="XMLID_11_" gradientUnits="userSpaceOnUse" x1="9.553" y1="70.995" x2="189.8881" y2="70.995">
			<stop  offset="0" style="stop-color:#7F4812"/>
			<stop  offset="0.0662" style="stop-color:#BA8B0E"/>
			<stop  offset="0.1545" style="stop-color:#BA8B0E"/>
			<stop  offset="0.2989" style="stop-color:#F7C885"/>
			<stop  offset="0.3096" style="stop-color:#F5C983"/>
			<stop  offset="0.3745" style="stop-color:#EECD79"/>
			<stop  offset="0.4303" style="stop-color:#ECCE75"/>
			<stop  offset="0.4892" style="stop-color:#A27014"/>
			<stop  offset="0.6051" style="stop-color:#A27014"/>
			<stop  offset="0.6159" style="stop-color:#BC8D2D"/>
			<stop  offset="0.6267" style="stop-color:#D2A544"/>
			<stop  offset="0.6371" style="stop-color:#DFB553"/>
			<stop  offset="0.6466" style="stop-color:#E4BA58"/>
			<stop  offset="0.6542" style="stop-color:#D5A447"/>
			<stop  offset="0.6683" style="stop-color:#C08330"/>
			<stop  offset="0.6818" style="stop-color:#B16D23"/>
			<stop  offset="0.6941" style="stop-color:#A9601C"/>
			<stop  offset="0.7043" style="stop-color:#A65C1A"/>
			<stop  offset="0.7138" style="stop-color:#AB621F"/>
			<stop  offset="0.7285" style="stop-color:#B6732E"/>
			<stop  offset="0.7465" style="stop-color:#CB924E"/>
			<stop  offset="0.7669" style="stop-color:#E9C182"/>
			<stop  offset="0.7756" style="stop-color:#F9D89D"/>
			<stop  offset="0.8468" style="stop-color:#E5BD5E"/>
			<stop  offset="0.8861" style="stop-color:#BB923A"/>
			<stop  offset="0.9116" style="stop-color:#BB923A"/>
			<stop  offset="0.9155" style="stop-color:#BF9435"/>
			<stop  offset="0.9256" style="stop-color:#C3982F"/>
			<stop  offset="0.9509" style="stop-color:#C5992D"/>
			<stop  offset="1" style="stop-color:#7F4812"/>
		</linearGradient>
		<path id="XMLID_21_" class="st9" d="M115.2,81.17h-11.65l-2,6.29H91.52l11.75-32.93h12.21l11.75,32.93H117.2L115.2,81.17z
			 M112.85,73.8l-3.38-10.63h-0.19L105.9,73.8H112.85z"/>
	</g>
	<g id="XMLID_14_">
		<linearGradient id="XMLID_12_" gradientUnits="userSpaceOnUse" x1="9.553" y1="71.1863" x2="189.8881" y2="71.1863">
			<stop  offset="0" style="stop-color:#7F4812"/>
			<stop  offset="0.0662" style="stop-color:#BA8B0E"/>
			<stop  offset="0.1545" style="stop-color:#BA8B0E"/>
			<stop  offset="0.2989" style="stop-color:#F7C885"/>
			<stop  offset="0.3096" style="stop-color:#F5C983"/>
			<stop  offset="0.3745" style="stop-color:#EECD79"/>
			<stop  offset="0.4303" style="stop-color:#ECCE75"/>
			<stop  offset="0.4892" style="stop-color:#A27014"/>
			<stop  offset="0.6051" style="stop-color:#A27014"/>
			<stop  offset="0.6159" style="stop-color:#BC8D2D"/>
			<stop  offset="0.6267" style="stop-color:#D2A544"/>
			<stop  offset="0.6371" style="stop-color:#DFB553"/>
			<stop  offset="0.6466" style="stop-color:#E4BA58"/>
			<stop  offset="0.6542" style="stop-color:#D5A447"/>
			<stop  offset="0.6683" style="stop-color:#C08330"/>
			<stop  offset="0.6818" style="stop-color:#B16D23"/>
			<stop  offset="0.6941" style="stop-color:#A9601C"/>
			<stop  offset="0.7043" style="stop-color:#A65C1A"/>
			<stop  offset="0.7138" style="stop-color:#AB621F"/>
			<stop  offset="0.7285" style="stop-color:#B6732E"/>
			<stop  offset="0.7465" style="stop-color:#CB924E"/>
			<stop  offset="0.7669" style="stop-color:#E9C182"/>
			<stop  offset="0.7756" style="stop-color:#F9D89D"/>
			<stop  offset="0.8468" style="stop-color:#E5BD5E"/>
			<stop  offset="0.8861" style="stop-color:#BB923A"/>
			<stop  offset="0.9116" style="stop-color:#BB923A"/>
			<stop  offset="0.9155" style="stop-color:#BF9435"/>
			<stop  offset="0.9256" style="stop-color:#C3982F"/>
			<stop  offset="0.9509" style="stop-color:#C5992D"/>
			<stop  offset="1" style="stop-color:#7F4812"/>
		</linearGradient>
		<path id="XMLID_18_" class="st10" d="M140.38,86.24c-2.39-1.26-4.22-3.15-5.49-5.67c-1.27-2.52-1.9-5.65-1.9-9.38
			c0-3.71,0.63-6.83,1.9-9.36c1.27-2.52,3.1-4.42,5.49-5.69c2.39-1.27,5.27-1.9,8.65-1.9c3.01,0,5.65,0.51,7.91,1.53
			c2.26,1.02,4.05,2.55,5.37,4.6c1.32,2.05,2.08,4.58,2.28,7.57h-9.35c-0.12-1.88-0.72-3.34-1.78-4.37
			c-1.06-1.03-2.54-1.55-4.44-1.55c-4.52,0-6.78,3.05-6.78,9.16c0,6.12,2.26,9.18,6.78,9.18c1.9,0,3.37-0.52,4.44-1.55
			c1.06-1.03,1.66-2.49,1.78-4.37h9.35c-0.2,3-0.96,5.52-2.28,7.56c-1.32,2.04-3.11,3.57-5.36,4.59c-2.25,1.02-4.89,1.53-7.92,1.53
			C145.65,88.13,142.77,87.5,140.38,86.24z"/>
		<linearGradient id="XMLID_13_" gradientUnits="userSpaceOnUse" x1="9.553" y1="71.1863" x2="189.8881" y2="71.1863">
			<stop  offset="0" style="stop-color:#7F4812"/>
			<stop  offset="0.0662" style="stop-color:#BA8B0E"/>
			<stop  offset="0.1545" style="stop-color:#BA8B0E"/>
			<stop  offset="0.2989" style="stop-color:#F7C885"/>
			<stop  offset="0.3096" style="stop-color:#F5C983"/>
			<stop  offset="0.3745" style="stop-color:#EECD79"/>
			<stop  offset="0.4303" style="stop-color:#ECCE75"/>
			<stop  offset="0.4892" style="stop-color:#A27014"/>
			<stop  offset="0.6051" style="stop-color:#A27014"/>
			<stop  offset="0.6159" style="stop-color:#BC8D2D"/>
			<stop  offset="0.6267" style="stop-color:#D2A544"/>
			<stop  offset="0.6371" style="stop-color:#DFB553"/>
			<stop  offset="0.6466" style="stop-color:#E4BA58"/>
			<stop  offset="0.6542" style="stop-color:#D5A447"/>
			<stop  offset="0.6683" style="stop-color:#C08330"/>
			<stop  offset="0.6818" style="stop-color:#B16D23"/>
			<stop  offset="0.6941" style="stop-color:#A9601C"/>
			<stop  offset="0.7043" style="stop-color:#A65C1A"/>
			<stop  offset="0.7138" style="stop-color:#AB621F"/>
			<stop  offset="0.7285" style="stop-color:#B6732E"/>
			<stop  offset="0.7465" style="stop-color:#CB924E"/>
			<stop  offset="0.7669" style="stop-color:#E9C182"/>
			<stop  offset="0.7756" style="stop-color:#F9D89D"/>
			<stop  offset="0.8468" style="stop-color:#E5BD5E"/>
			<stop  offset="0.8861" style="stop-color:#BB923A"/>
			<stop  offset="0.9116" style="stop-color:#BB923A"/>
			<stop  offset="0.9155" style="stop-color:#BF9435"/>
			<stop  offset="0.9256" style="stop-color:#C3982F"/>
			<stop  offset="0.9509" style="stop-color:#C5992D"/>
			<stop  offset="1" style="stop-color:#7F4812"/>
		</linearGradient>
		<path id="XMLID_15_" class="st11" d="M173.36,86.24c-2.39-1.26-4.22-3.15-5.49-5.67c-1.27-2.52-1.9-5.65-1.9-9.38
			c0-3.71,0.63-6.83,1.9-9.36c1.27-2.52,3.1-4.42,5.49-5.69c2.39-1.27,5.27-1.9,8.65-1.9c3.36,0,6.25,0.63,8.68,1.9
			c2.43,1.27,4.3,3.16,5.6,5.69c1.31,2.52,1.96,5.64,1.96,9.36c0,3.71-0.65,6.83-1.96,9.36c-1.3,2.52-3.17,4.42-5.6,5.69
			c-2.43,1.27-5.32,1.9-8.68,1.9C178.64,88.13,175.75,87.5,173.36,86.24z M187.25,77.96c1.15-1.61,1.72-3.86,1.72-6.77
			c0-2.9-0.58-5.16-1.72-6.76c-1.15-1.6-2.9-2.4-5.24-2.4c-4.52,0-6.78,3.05-6.78,9.16c0,6.12,2.26,9.18,6.78,9.18
			C184.35,80.37,186.1,79.56,187.25,77.96z"/>
	</g>
	<linearGradient id="XMLID_48_" gradientUnits="userSpaceOnUse" x1="9.553" y1="45.7788" x2="189.8881" y2="45.7788">
		<stop  offset="0" style="stop-color:#7F4812"/>
		<stop  offset="0.0662" style="stop-color:#BA8B0E"/>
		<stop  offset="0.1545" style="stop-color:#BA8B0E"/>
		<stop  offset="0.2989" style="stop-color:#F7C885"/>
		<stop  offset="0.3096" style="stop-color:#F5C983"/>
		<stop  offset="0.3745" style="stop-color:#EECD79"/>
		<stop  offset="0.4303" style="stop-color:#ECCE75"/>
		<stop  offset="0.4892" style="stop-color:#A27014"/>
		<stop  offset="0.6051" style="stop-color:#A27014"/>
		<stop  offset="0.6159" style="stop-color:#BC8D2D"/>
		<stop  offset="0.6267" style="stop-color:#D2A544"/>
		<stop  offset="0.6371" style="stop-color:#DFB553"/>
		<stop  offset="0.6466" style="stop-color:#E4BA58"/>
		<stop  offset="0.6542" style="stop-color:#D5A447"/>
		<stop  offset="0.6683" style="stop-color:#C08330"/>
		<stop  offset="0.6818" style="stop-color:#B16D23"/>
		<stop  offset="0.6941" style="stop-color:#A9601C"/>
		<stop  offset="0.7043" style="stop-color:#A65C1A"/>
		<stop  offset="0.7138" style="stop-color:#AB621F"/>
		<stop  offset="0.7285" style="stop-color:#B6732E"/>
		<stop  offset="0.7465" style="stop-color:#CB924E"/>
		<stop  offset="0.7669" style="stop-color:#E9C182"/>
		<stop  offset="0.7756" style="stop-color:#F9D89D"/>
		<stop  offset="0.8468" style="stop-color:#E5BD5E"/>
		<stop  offset="0.8861" style="stop-color:#BB923A"/>
		<stop  offset="0.9116" style="stop-color:#BB923A"/>
		<stop  offset="0.9155" style="stop-color:#BF9435"/>
		<stop  offset="0.9256" style="stop-color:#C3982F"/>
		<stop  offset="0.9509" style="stop-color:#C5992D"/>
		<stop  offset="1" style="stop-color:#7F4812"/>
	</linearGradient>
	<rect id="XMLID_45_" x="1.77" y="41.66" class="st12" width="196.33" height="8.23"/>
</g>
</svg>
