<?xml version="1.0" standalone="no"?>
<!DOCTYPE svg PUBLIC "-//W3C//DTD SVG 1.1//EN" "http://www.w3.org/Graphics/SVG/1.1/DTD/svg11.dtd" >
<svg xmlns="http://www.w3.org/2000/svg">
<metadata>Generated by IcoMoon</metadata>
<defs>
<font id="FSoda-ExtraBold" horiz-adv-x="1024">
<font-face units-per-em="1024" ascent="819" descent="-205" />
<missing-glyph horiz-adv-x="1024" />
<glyph unicode="&#x20;" horiz-adv-x="243" d="" />
<glyph unicode="&#x21;" glyph-name="exclam" horiz-adv-x="329" d="M97.5 256.5l-20.5 281v182h174v-182l-20-281h-133.5zM76 13v176h176v-176h-176z" />
<glyph unicode="&#x22;" glyph-name="quotedbl" horiz-adv-x="527" d="M81 426.5v293h137.5v-293h-137.5zM303 426.5v293h143v-293h-143z" />
<glyph unicode="&#x23;" glyph-name="numbersign" horiz-adv-x="780" d="M390 691.009l104.94-265.874 285.060-17.229-220.452-182.078 71.657-276.837-241.205 153.886-241.205-153.886 71.657 276.837-220.452 182.078 285.060 17.229 104.94 265.874z" />
<glyph unicode="&#x24;" glyph-name="dollar" horiz-adv-x="658" d="M616.5 236.5q0-96.5-58.75-156.5t-170.75-72v-75h-114v75.5q-37.5 4.5-69.75 14.25t-62.25 28.75-51.25 45.5-34 66-12.75 88.5h173.5q5.5-107 121-107 50 0 75.25 18.25t25.25 59.25q0 26.5-16.75 43.25t-59.25 24.75l-115 22q-32 6.5-59.25 16.75t-52.25 27.25-42.75 39-28 53-10.25 68q0 92 59 147t159.5 65v73.5h114v-77q31.5-5 59.25-14.5t54.75-26.75 46-40.75 30.75-58 11.75-77h-168q-0.5 50.5-27 72.25t-77.5 21.75q-90 0-90-66.5 0-45 63-57.5l105.5-20q37.5-7.5 67.75-17.5t59.75-27.75 49.25-41 32-57.75 12.25-77z" />
<glyph unicode="&#x25;" glyph-name="percent" horiz-adv-x="803" d="M191.852 620.606l-39.119-120.775-123.053-0.76 99.126-75.58-37.219-121.535 100.267 74.060 100.267-74.060-37.219 121.535 99.506 75.58-123.433 0.76zM572.027 216.887l-123.433-0.76 99.506-75.58-37.219-121.155 100.267 73.68 100.267-73.68-37.219 121.155 99.126 75.58-123.053 0.76-39.119 120.775zM538.984 597.44l-369.539-574.25h111.281l369.539 574.25z" />
<glyph unicode="&#x26;" glyph-name="ampersand" horiz-adv-x="741" d="M605.5 175.5l117.5-142.5v-20h-174l-43.5 53.5q-90.5-63.5-209.5-63.5-76.5 0-136.5 25t-95.75 75-35.75 118.5q0 30 7.75 55.25t20.75 45.25 36.5 40.75 47.5 37.25 61.5 39.5l-11 13.5q-53.5 66-53.5 126.5 0 70 54.25 110.25t147.25 40.25q96 0 151.5-42.25t55.5-108.75q0-46.5-31-86t-103.5-82.5l92-111q17 50 17 107.5h154.5q-11-135-69.5-231.5zM345 624q-25 0-38-11.5t-13-31q0-26 26-59.5l15-18.5q65 38.5 65 78.5 0 18-15.25 29.75t-39.75 12.25zM294 139.5q68 0 121.5 38l-131.5 161q-52-32-67-45-34.5-31-35-70 0-40.5 30.25-62.25t81.75-21.75z" />
<glyph unicode="&#x27;" glyph-name="quotesingle" horiz-adv-x="305" d="M81 426.5v293h142.5v-293h-142.5z" />
<glyph unicode="&#x28;" glyph-name="parenleft" horiz-adv-x="300" d="M160.5-170q-57 79.5-92.25 223.25t-35.25 286.75q0 145.5 33.75 282.75t93.75 224.75h137q-67-104.5-102.75-235.25t-35.75-272.25q0-297.5 140-510h-138.5z" />
<glyph unicode="&#x29;" glyph-name="parenright" horiz-adv-x="300" d="M139.5-170h-138.5q140 212.5 140 510 0 141.5-35.75 272.25t-102.75 235.25h137q60-87.5 93.75-224.75t33.75-282.75q0-143-35.25-286.75t-92.25-223.25z" />
<glyph unicode="&#x2a;" glyph-name="asterisk" horiz-adv-x="391" d="M155 419l28.5 122.5-5.5 3.5-90.5-86-43 70.5 122.5 36.5v6.5l-122.5 37 43 71 90.5-87 5.5 3-28.5 123h81.5l-29-123 5.5-3 91.5 87 41.5-71-121-37v-6.5l121-36.5-41.5-70.5-91.5 86-5.5-3.5 29-122.5h-81.5z" />
<glyph unicode="&#x2b;" glyph-name="plus" horiz-adv-x="592" d="M230 13v196h-195.5v132.5h195.5v196h131.5v-196h195.5v-132.5h-195.5v-196h-131.5z" />
<glyph unicode="&#x2c;" glyph-name="comma" horiz-adv-x="326" d="M65-165l79 178h-73.5v177.5h202v-177.5l-122.5-178h-85z" />
<glyph unicode="&#x2d;" glyph-name="hyphen" horiz-adv-x="471" d="M56.5 209v132.5h358v-132.5h-358z" />
<glyph unicode="&#x2e;" glyph-name="period" horiz-adv-x="336" d="M167.999 265.431l36.153-91.598 98.208-5.936-75.949-62.73 24.688-95.377-83.1 53.017-83.1-53.017 24.688 95.377-75.949 62.73 98.208 5.936 36.153 91.598z" />
<glyph unicode="&#x2f;" glyph-name="slash" horiz-adv-x="514" d="M-16.5-102.5l395.5 950h151.5l-395-950h-152z" />
<glyph unicode="&#x30;" glyph-name="zero" horiz-adv-x="608" d="M305 3q-56.5 0-101.75 18.25t-76.5 51-52.5 78.75-30.75 100-9.5 117q0 62.5 9.25 116t30 99.5 51.5 78.5 75.5 50.75 100.75 18.25q69 0 121.75-27.5t85.5-77 49.25-115.5 16.5-146q0-79-16-144t-48.25-114.25-84.5-76.5-120.25-27.25zM301.5 157.5q27.5 0 46.25 15t28.25 44.25 13.25 64 3.75 83.25q0 50-4 85.75t-13.75 65.25-28.5 44.25-46.75 14.75-46.5-14.5-28-43.5-13.25-63.25-3.75-83.25q0-50.5 4-86.75t14-66 28.75-44.5 46.25-14.75z" />
<glyph unicode="&#x31;" glyph-name="one" horiz-adv-x="608" d="M262 13v496.5h-160v97q51.5 0 88.75 10.25t64 35.75 36.75 67h144v-706.5h-173.5z" />
<glyph unicode="&#x32;" glyph-name="two" horiz-adv-x="608" d="M222 161h342.5v-148h-521v111.5q0 46 11.75 83t31.5 61.75 45.25 44.25 53.75 32.75 56.5 25.25 53.75 24 45.25 26.25 31.5 35.25 11.75 48q0 36-21 55.5t-58.5 19.5q-43 0-67.5-29.75t-24.5-85.25h-165q0 124 67.25 194t191.75 70q118 0 184.5-62.5t66.5-167q0-44-14.5-80.75t-38-61.75-53.75-46.25-61.75-35.25-61.75-27.75-53.75-25-38-25.5-14.5-30.75v-5.5z" />
<glyph unicode="&#x33;" glyph-name="three" horiz-adv-x="608" d="M301.5 3q-54 0-100.5 15.75t-83.25 46.75-58 81.75-21.25 115.75h169q0-50 24.25-79t73.25-29q41.5 0 67 21.25t25.5 60.25q0 40-26.25 62.25t-71.75 22.25h-27.5v126.5h27.5q64.5 0 64.5 62.5 0 33-19 49.75t-52.5 16.75q-75.5 0-77.5-83h-166.5q0 112 67 174.25t172 62.25q66 0 121.25-23.75t90-71.25 34.75-110q0-52-24-85.5t-63-48v-2q50.5-9.5 85.75-50.25t35.75-111.25q0-53.5-22.25-97t-59.75-71-85-42.25-99.5-14.75z" />
<glyph unicode="&#x34;" glyph-name="four" horiz-adv-x="608" d="M501 297h75v-140.5h-75v-143.5h-172.5v143.5h-305v140.5l228 422.5h249.5v-422.5zM176.5 297h152v293.5z" />
<glyph unicode="&#x35;" glyph-name="five" horiz-adv-x="608" d="M360 505q94 0 154.5-65.5t60.5-169.5q0-118-78.25-192.5t-202.75-74.5q-37.5 0-72.75 7t-69.75 24.25-60.25 43-42 66.75-16.75 92.5h175q5.5-40.5 29.5-59.25t59.5-18.75q47 0 73.25 28.75t26.25 76.75q0 50.5-27.5 78.5t-69.5 28q-57.5 0-88-52.5h-173l74 401.5h432.5v-148h-315l-21-120.5 3.5-1q63 55 148 55z" />
<glyph unicode="&#x36;" glyph-name="six" horiz-adv-x="608" d="M314 3q-60 0-109.75 21t-87.5 62.5-59 107.75-21.25 151.75q0 33 2.5 65t10.25 71.5 20.25 73.25 34 66.5 49.75 56 69.75 37.5 91.5 14.25q39 0 75.25-8.5t67.75-25.5 54.75-41.25 36.75-58 14-73.25h-160q-4.5 31-25.5 49.75t-61.5 18.75q-120.5 0-121.5-179.5 54.5 64.5 150 64.5 64.5 0 115.5-26t81.75-78.25 30.75-122.75q0-74.5-34.75-131.5t-93.25-86.25-130.5-29.25zM317 151q41 0 68.25 27t27.25 69q0 41-27 67.75t-68.5 26.75q-41 0-66.5-26.5t-25.5-67.5q0-41.5 26-69t66-27.5z" />
<glyph unicode="&#x37;" glyph-name="seven" horiz-adv-x="608" d="M149 13q1.5 70 14.25 140t38.5 144 72.25 144.5 108.5 125.5v3.5h-326v149h493.5v-165q-41-33.5-73-69.75t-54-70.5-37.75-75.5-24.75-76.25-14.5-81-7.25-82-2.75-86.5h-187z" />
<glyph unicode="&#x38;" glyph-name="eight" horiz-adv-x="608" d="M304 3q-80.5 0-142.75 24.75t-98 72.75-35.75 112.5q0 66 37.5 116t104 64.5v2.5q-46 12.5-75.75 52.75t-29.75 89.25q0 83.5 67.75 137.75t172.75 54.25 172.75-54.25 67.75-137.75q0-49-29.75-89t-75.75-53v-2.5q66.5-15 103.75-65t37.25-115.5q0-97.5-76.75-153.75t-199.25-56.25zM304.5 451q34.5 0 57.25 21.75t22.75 53.75-22.75 53.75-57.25 21.75-57.75-21.75-23.25-53.75 23.25-53.75 57.75-21.75zM303.5 146q45.5 0 74 26t28.5 67q0 39-28.75 64.5t-73.75 25.5-73.5-25.5-28.5-64.5q0-41.5 28.25-67.25t73.75-25.75z" />
<glyph unicode="&#x39;" glyph-name="nine" horiz-adv-x="608" d="M296.5 729.5q60 0 109.75-21t87.5-62.5 59-107.75 21.25-151.75q0-33-2.5-65t-10.25-71.5-20.25-73.25-34-66.5-49.75-56-69.75-37.5-91.5-14.25q-39 0-75.25 8.5t-67.75 25.5-54.75 41.25-36.75 58-14 73.25h160q4.5-31 25.5-49.75t61.5-18.75q120.5 0 121.5 179.5-54.5-64.5-150-64.5-64.5 0-115.5 26t-81.75 78.25-30.75 122.75q0 74.5 34.75 131.5t93.25 86.25 130.5 29.25zM293.5 581.5q-41 0-68.25-27t-27.25-69q0-41 27-67.75t68.5-26.75q41 0 66.5 26.5t25.5 67.5q0 41.5-26 69t-66 27.5z" />
<glyph unicode="&#x3a;" glyph-name="colon" horiz-adv-x="364" d="M81 359.5v178h202v-178h-202zM81 13v177.5h202v-177.5h-202z" />
<glyph unicode="&#x3b;" glyph-name="semicolon" horiz-adv-x="345" d="M75.5 359.5v178h202v-178h-202zM70-165l79 178h-73.5v177.5h202v-177.5l-122.5-178h-85z" />
<glyph unicode="&#x3c;" glyph-name="less" horiz-adv-x="553" d="M481 12.5l-445 194v137.5l445 194v-174.5l-237-88.5 237-88.5v-174z" />
<glyph unicode="&#x3d;" glyph-name="equal" horiz-adv-x="686" d="M86.5 326v140.5h513v-140.5h-513zM86.5 83.5v140.5h513v-140.5h-513z" />
<glyph unicode="&#x3e;" glyph-name="greater" horiz-adv-x="553" d="M71.5 12.5v174l237 88.5-237 88.5v174.5l445-194v-137.5z" />
<glyph unicode="&#x3f;" glyph-name="question" horiz-adv-x="557" d="M204 256.5v57q0 35.5 12 62.5t30 42 38.75 28.75 38.75 23.75 30 26.25 12 36.75q0 29.5-21.5 44.5t-59 15q-45.5 0-68-26.25t-22.5-67.75h-178q0 39 7.5 71.75t25.75 63 46.75 51 73.25 33 102.25 12.25q123.5 0 193.5-52.25t70-149.75q0-33.5-9.75-59.5t-25.5-41.75-34.5-28.25-37.75-22.5-34.75-20.25-25.5-25.5-9.75-34.75v-39h-154zM192.5 13v177.5h177v-177.5h-177z" />
<glyph unicode="&#x40;" glyph-name="at" horiz-adv-x="858" d="M431-120q-80.5 0-153.25 31t-125.5 83.5-84 125.75-31.25 154.25q0 79.5 30 151.75t81.75 125.25 125.25 84.5 157 31.5q83 0 156.75-31.25t125.25-84.25 81.5-124.75 30-150.75q0-43-9.25-77.25t-24.5-56.75-36.75-37.5-44.5-21.25-49-6.25q-47 0-79.25 10.5t-57.75 44h-8.5q-22.5-28.5-56.25-43t-70.75-14.5q-54 0-92.5 28.25t-38.5 78.25q0 22 8.75 40.25t21.25 30.25 31.5 21.75 34.75 14.75 35.25 10l101 25.5v16.5q0 27-14.5 38t-41.5 11q-64 0-69-54h-101q0 55 45.75 92.5t124.25 37.5q32.5 0 60-6.5t53-21.5 40.25-44.5 14.75-71v-92q0-36.5 14.25-53t47.25-16.5q34.5 0 52.5 23.5t18 82q0 65.5-22.75 123t-62.5 98.5-96 64.75-120.25 23.75q-86 0-156-40.75t-108.5-109.25-38.5-150q0-62.5 24-119t64.5-97.25 96.5-64.5 118-23.75q88.5 0 166.5 48.5l42-79.5q-93.5-60-209.5-60zM412.5 152.5q14 0 27.75 3.75t28 12 23.25 25.25 9 40.5v26.5l-74.5-21q-33.5-9.5-45.75-20.5t-12.25-29q0-37.5 44.5-37.5z" />
<glyph unicode="&#x41;" glyph-name="A" horiz-adv-x="739" d="M544.5 13l-48 151.5h-254l-48-151.5h-191l249 706.5h234l249-706.5h-191zM287.5 305.5h164l-80 251h-4z" />
<glyph unicode="&#x42;" glyph-name="B" horiz-adv-x="722" d="M73 13v706.5h353q109.5 0 171.25-50.5t61.75-137.5q0-105.5-95-147v-3q58.5-13 95.5-55.5t37-115q0-92.5-63.5-145.25t-181.5-52.75h-378.5zM249.5 441h153q78 0 78 67.5 0 31-18 46.75t-58.5 15.75h-154.5v-130zM249.5 162h185q84 0 84 73 0 71-84 71h-185v-144z" />
<glyph unicode="&#x43;" glyph-name="C" horiz-adv-x="728" d="M370.5 3q-161 0-250.25 93t-89.25 270.5q0 177 89.25 270.25t250.25 93.25q144.5 0 231.25-74.5t96.75-217h-178q-5 67.5-43.75 104.5t-106.25 37q-82 0-122.5-56t-40.5-157.5 40.5-157.75 122.5-56.25q67.5 0 106.25 37t43.75 105h178q-10-143-96.75-217.25t-231.25-74.25z" />
<glyph unicode="&#x44;" glyph-name="D" horiz-adv-x="744" d="M73 13v706.5h285q94 0 162.5-24.25t110.5-71 62-111 20-148.75q0-172-86.5-261.75t-269.5-89.75h-284zM249.5 162.5h95.5q105.5 0 149.5 51.5t44 155q0 48.5-9 84t-29.5 62.5-56.5 40.75-87.5 13.75h-106.5v-407.5z" />
<glyph unicode="&#x45;" glyph-name="E" horiz-adv-x="660" d="M73 13v706.5h525.5v-148.5h-349v-129.5h325.5v-148.5h-325.5v-131.5h376v-148.5h-552.5z" />
<glyph unicode="&#x46;" glyph-name="F" horiz-adv-x="623" d="M73 13v706.5h528v-148.5h-351.5v-129.5h307.5v-148.5h-307.5v-280h-176.5z" />
<glyph unicode="&#x47;" glyph-name="G" horiz-adv-x="755" d="M383.5 280.5v137.5h315v-405h-147l-0.5 76q-29.5-44-82-65t-117.5-21q-150 0-235.5 95.25t-85.5 264.75q0 172.5 90.5 270t255.5 97.5q65 0 122-16t102-46.5 71.25-79.75 26.75-111.25h-180.5q-0.5 51-40 79.5t-101 28.5q-45.5 0-78.75-16.75t-52-47-27.5-67.75-8.75-84q0-37 5.25-68t17.75-58.5 31.5-46.5 47.75-30 65.75-11q38 0 66.75 11t45.75 29.75 26.5 39.5 13 44.75h-146.5z" />
<glyph unicode="&#x48;" glyph-name="H" horiz-adv-x="790" d="M73 13v706.5h176.5v-278.5h290.5v278.5h176.5v-706.5h-176.5v280h-290.5v-280h-176.5z" />
<glyph unicode="&#x49;" glyph-name="I" horiz-adv-x="323" d="M73 13v706.5h176.5v-706.5h-176.5z" />
<glyph unicode="&#x4a;" glyph-name="J" horiz-adv-x="415" d="M11.5 13v148.5h67q54 0 75.5 18.25t21.5 70.25v469.5h177v-509q0-102-58.75-149.75t-174.25-47.75h-108z" />
<glyph unicode="&#x4b;" glyph-name="K" horiz-adv-x="770" d="M552.5 13l-150 324-153-165.5v-158.5h-176.5v706.5h176.5v-332.5l281 332.5h225l-229-248 238-458.5h-212z" />
<glyph unicode="&#x4c;" glyph-name="L" horiz-adv-x="589" d="M73 13v706.5h176.5v-557h328v-149.5h-504.5z" />
<glyph unicode="&#x4d;" glyph-name="M" horiz-adv-x="1000" d="M73 13v706.5h269l158-493 158 493h268.5v-706.5h-176.5v526.5h-5l-169-526.5h-152.5l-169 526.5h-5v-526.5h-176.5z" />
<glyph unicode="&#x4e;" glyph-name="N" horiz-adv-x="794" d="M73 13v706.5h178l289-441.5h4v441.5h177v-706.5h-180l-285.5 436.5h-6v-436.5h-176.5z" />
<glyph unicode="&#x4f;" glyph-name="O" horiz-adv-x="745" d="M370.5 3q-161 0-250.25 93t-89.25 270.5q0 177 89.25 270.25t250.25 93.25q160.5 0 251.5-93.5t91-270-91-270-251.5-93.5zM370.5 152.5q82.5 0 124.5 56.5t42 157.5q0 100.5-42.25 157t-124.25 56.5-122.5-56-40.5-157.5 40.5-157.75 122.5-56.25z" />
<glyph unicode="&#x50;" glyph-name="P" horiz-adv-x="705" d="M73 13v706.5h368q115 0 180.25-66.25t65.25-174.75q0-108-65.5-170.25t-180-62.25h-192v-233h-176zM249 394.5h159q103 0 103 90 0 86.5-103 86.5h-159v-176.5z" />
<glyph unicode="&#x51;" glyph-name="Q" horiz-adv-x="760" d="M732.5 57.5l-99-100.5-84 85q-75-39-179-39-161 0-250.25 93t-89.25 270.5q0 177 89.25 270.25t250.25 93.25q160.5 0 251.5-93.5t91-270q0-141-59.5-230.5zM370.5 152.5q33.5 0 60.5 10l-108.5 110 96 97.5 105-104.5q13.5 43.5 13.5 101 0 100.5-42.25 157t-124.25 56.5-122.5-56-40.5-157.5 40.5-157.75 122.5-56.25z" />
<glyph unicode="&#x52;" glyph-name="R" horiz-adv-x="719" d="M652 183l29-170h-180l-24 159.5q-5 33-11.25 52.75t-17 35.5-29.75 23-45.5 10.75-68 3.5h-56.5v-286h-176v707.5h338q130 0 196.25-55.25t66.25-156.75q0-74-31.75-114.5t-98.25-56.5q47.5-13.5 72.5-50.75t36-102.75zM250 571v-138h163q41.5 0 62.5 19.25t21 50.75q0 32.5-21.5 50.25t-64.5 17.75h-160.5z" />
<glyph unicode="&#x53;" glyph-name="S" horiz-adv-x="631" d="M320 5q-44.5 0-83.75 6.75t-78 24-66.5 44.5-44.75 71-17 100.25h173.5q3-55 36.25-81.25t86.25-26.25q46.5 0 72.75 18.5t26.25 51.5q0 18-8.25 32t-21.75 23.5-34 17.25-41 13-47.5 11.25q-6 1.5-9.5 2-28 6.5-45.75 11.5t-43.5 14.25-42.5 18.75-35.5 25-29.5 33.5-18 43-7.25 55q0 102.5 71.75 159.25t190.25 56.75q37.5 0 72.75-5.75t72.5-21.25 64.75-39.5 45.25-64.25 18.25-91.75h-168.5q-0.5 45.5-27.5 69.75t-76.5 24.25q-43.5 0-67-17.25t-23.5-47.25q0-12.5 4.75-22.25t14-17.25 21.25-13.25 28-10.5 32.25-8.75 36.25-8.5q6-1.5 9.5-2 30-6.5 48.75-11t47.25-14 46.75-19.75 39.25-27 33.25-36.75 20.5-48.25 8.25-62.25q0-106-73.25-168.25t-210.25-62.25z" />
<glyph unicode="&#x54;" glyph-name="T" horiz-adv-x="606" d="M213 13v558.5h-202.5v148h584v-148h-204.5v-558.5h-177z" />
<glyph unicode="&#x55;" glyph-name="U" horiz-adv-x="706" d="M350.5 3q-147.5 0-220.25 73.75t-72.75 209.75v433h177v-438.5q0-56 30-86.5t86-30.5q57.5 0 89.25 30.5t31.75 86.5v438.5h176.5v-428q0-139.5-73.75-214t-223.75-74.5z" />
<glyph unicode="&#x56;" glyph-name="V" horiz-adv-x="739" d="M252.5 13l-249 706.5h191l173-544h4l173 544h191l-249-706.5h-234z" />
<glyph unicode="&#x57;" glyph-name="W" horiz-adv-x="1029" d="M153.5 13l-139.5 706.5h187.5l95-559.5h7l113 559.5h196.5l113-559.5h6l95 559.5h187.5l-140.5-706.5h-260l-101.5 505-98-505h-261z" />
<glyph unicode="&#x58;" glyph-name="X" horiz-adv-x="729" d="M5.5 13l238.5 353.5-237.5 353h205.5l153.5-241.5 152.5 241.5h204.5l-239-353 240-353.5h-204.5l-154.5 237.5-153.5-237.5h-205.5z" />
<glyph unicode="&#x59;" glyph-name="Y" horiz-adv-x="703" d="M263 13v275l-266 431.5h198.5l160.5-278 151.5 278h198l-265.5-431.5v-275h-177z" />
<glyph unicode="&#x5a;" glyph-name="Z" horiz-adv-x="632" d="M599 719.5v-121.5l-331.5-436.5h331.5v-148.5h-570.5v113l345.5 445h-334v148.5h559z" />
<glyph unicode="&#x5b;" glyph-name="bracketleft" horiz-adv-x="307" d="M69.5-170v1017.5h222.5v-128h-95.5v-760h95.5v-129.5h-222.5z" />
<glyph unicode="&#x5c;" glyph-name="backslash" horiz-adv-x="514" d="M530.5-102.5h-152l-395 950h151.5z" />
<glyph unicode="&#x5d;" glyph-name="bracketright" horiz-adv-x="307" d="M237-170h-222.5v129.5h95.5v760h-95.5v128h222.5v-1017.5z" />
<glyph unicode="&#x5e;" glyph-name="asciicircum" horiz-adv-x="557" d="M23 275l187.5 444.5h136.5l187-444.5h-164l-91.5 238.5-91-238.5h-164.5z" />
<glyph unicode="&#x5f;" glyph-name="underscore" horiz-adv-x="619" d="M79.5-120v133h460v-133h-460z" />
<glyph unicode="&#x60;" glyph-name="grave" horiz-adv-x="268" d="M254.5 602.5h-119.5l-129.5 117h155.5z" />
<glyph unicode="&#x61;" glyph-name="a" horiz-adv-x="552" d="M273 547.5q69.5 0 119.75-16.5t80.5-54.5 30.25-95.5v-368h-149.5v47.5h-11.5q-72-58-155-58-76.5 0-121.75 38.5t-45.25 107q0 37.5 14.5 67.5t41.75 51.25 60.5 36 76.75 26.25l74.5 20q35.5 9.5 46.75 18.5t11.25 24.5q0 52-74 52-41 0-60-15.25t-19-48.75h-159.5q0 38.5 14.5 68.5t37.5 48.5 55 30 64 16 68 4.5zM190 161q0-47.5 50-47.5 49 0 105.5 45v98.5l-97-33.5q-31.5-11-45-25.5t-13.5-37z" />
<glyph unicode="&#x62;" glyph-name="b" horiz-adv-x="614" d="M375.5 1.5q-100 0-146.5 63h-3.5v-51.5h-167.5v706.5h172v-233.5h2.5q50.5 61.5 146 61.5 96 0 154-74.5t58-198-59-198.5-156-75zM316.5 121.5q48.5 0 74.25 36.25t25.75 119.25q0 150.5-100 150.5-44 0-70.25-38.75t-26.25-111.75q0-77.5 26-116.5t70.5-39z" />
<glyph unicode="&#x63;" glyph-name="c" horiz-adv-x="562" d="M287.5-1q-57.5 0-106 17.75t-84.75 51.5-56.75 86.5-20.5 118.75 20.5 118.5 56.75 86.25 84.75 51.5 106 17.75q52.5 0 97.75-14.5t80-42 55-71 20.75-98h-168q-2 105.5-85 105.5-98.5 0-98.5-154 0-154.5 98.5-154.5 83 0 85 105.5h168q-0.5-54.5-20.75-98t-55-71-80-42-97.75-14.5z" />
<glyph unicode="&#x64;" glyph-name="d" horiz-adv-x="614" d="M238 1.5q-97 0-156 75t-59 198.5 58 198 154 74.5q95.5 0 146-61.5h2.5v233.5h172v-706.5h-167.5v51.5h-3.5q-46.5-63-146.5-63zM297 121.5q44.5 0 70.5 39t26 116.5q0 73-26.25 111.75t-70.25 38.75q-100 0-100-150.5 0-83 25.75-119.25t74.25-36.25z" />
<glyph unicode="&#x65;" glyph-name="e" horiz-adv-x="555" d="M529.5 256h-335.5q-1-32 2.25-55t12.75-42.5 28.25-29.25 46.75-9.75q34.5 0 54 14.75t23 53.25h168.5q-3.5-41-19-73.25t-38.25-52.75-53-34-61-19-64.25-5.5q-57 0-105.75 16.75t-86.75 49.25-59.5 85.5-21.5 121.5q0 128 70.75 199.75t190.25 71.75q53 0 97.5-15.5t78.5-45.75 53-79 19-111.75v-39.5zM278.5 435q-42.5 0-61.75-22.25t-21.75-67.25h167.5q-1 89.5-84 89.5z" />
<glyph unicode="&#x66;" glyph-name="f" horiz-adv-x="347" d="M80 13v426.5h-81.5v98h83v35q0 67.5 44.75 107.25t134.75 39.75h89.5v-111.5h-48.5q-30.5 0-40.25-12.5t-9.75-45v-13h98.5v-98h-98.5v-426.5h-172z" />
<glyph unicode="&#x67;" glyph-name="g" horiz-adv-x="599" d="M274.5-179.5q-37.5 0-70.75 4.75t-66.5 16.75-57.25 30.75-40 49.5-18.5 70.25h167.5q4-35.5 28.75-50.75t60.25-15.25q45.5 0 68.5 24.25t23 86.25v60.5h-6q-15-29-49-47t-81-18q-43 0-81.25 16.75t-68 48.5-47 81.5-17.25 111.75q0 63 17.5 113t47.25 80.75 66.75 46.75 77.5 16q43.5 0 79-17.75t55-49.75h6v57.5h171.5v-478.5q0-58.5-17-102.5t-43-69.25-63-41-70.75-20.75-72.25-5zM287.5 143.5q45 0 70 34.5t25 108q0 73-25.25 109.25t-70.25 36.25q-44.5 0-69-35.25t-24.5-108.75q0-144 94-144z" />
<glyph unicode="&#x68;" glyph-name="h" d="M58 13v706.5h169v-242.5h5.5q25 30.5 66.75 50.5t95.75 20q82.5 0 132.25-52.5t49.75-142v-340h-170v299.5q0 62-21.5 88.5t-62 26.5q-44.5 0-69-31.75t-24.5-106.25v-276.5h-172z" />
<glyph unicode="&#x69;" glyph-name="i" horiz-adv-x="288" d="M57.5 606.5v113h173v-113h-173zM58 13v524.5h172v-524.5h-172z" />
<glyph unicode="&#x6a;" glyph-name="j" horiz-adv-x="289" d="M56.5 606.5v113h174v-113h-174zM-29-169.5v124.5q44 0 65.5 22.25t21.5 56.75v503.5h172v-491.5q0-110-62.25-162.75t-196.75-52.75z" />
<glyph unicode="&#x6b;" glyph-name="k" horiz-adv-x="620" d="M432.5 13l-124.5 218-78-77.5v-140.5h-172v706.5h172v-375l176.5 193h211l-197-195 206.5-329.5h-194.5z" />
<glyph unicode="&#x6c;" glyph-name="l" horiz-adv-x="289" d="M58 13v706.5h172v-706.5h-172z" />
<glyph unicode="&#x6d;" glyph-name="m" horiz-adv-x="913" d="M58 13v524.5h168.5v-61h3q24 30.5 62 50.75t88.5 20.25q92.5 0 140.5-77h5q32.5 37.5 69.25 57.25t90.75 19.75q86.5 0 133.5-50.5t47-139.5v-344.5h-172v300q0 66-16.5 90.25t-52.5 24.25q-41.5 0-59.75-28.75t-18.25-99.75v-286h-172v299.5q0 66.5-16 90.75t-52 24.25q-41.5 0-59.25-28.5t-17.75-100v-286h-172z" />
<glyph unicode="&#x6e;" glyph-name="n" d="M58 13v524.5h168.5v-60.5h6q24 31 66 50.75t97 19.75q82 0 131.5-51.75t49.5-141.25v-341.5h-170v299.5q0 62-21.5 88.5t-62 26.5q-44 0-68.5-31.75t-24.5-106.25v-276.5h-172z" />
<glyph unicode="&#x6f;" glyph-name="o" horiz-adv-x="574" d="M287.5 1.5q-57 0-105.75 17.75t-85 51.25-56.75 85.75-20.5 117.25q0 66 20.5 118.5t56.75 86.25 84.75 51.5 106 17.75q77 0 136.5-30.25t94.75-93 35.25-150.75q0-86.5-35.25-149t-94.75-92.75-136.5-30.25zM288 119q98.5 0 98.5 154.5 0 88.5-26.25 125.25t-72.25 36.75q-98.5 0-98.5-162 0-154.5 98.5-154.5z" />
<glyph unicode="&#x70;" glyph-name="p" horiz-adv-x="614" d="M226-169.5h-167.5v707h171.5v-53.5h2.5q49 63.5 146.5 63.5 95.5 0 153.5-74.5t58-198-59-198.5-156-75q-101 0-146.5 64.5h-3v-235.5zM317.5 121.5q48 0 73.75 36.5t25.75 118.5q0 151-99.5 151-45 0-71.25-38.75t-26.25-112.25q0-77 26.25-116t71.25-39z" />
<glyph unicode="&#x71;" glyph-name="q" horiz-adv-x="614" d="M387.5-169.5v235.5h-3q-45.5-64.5-146.5-64.5-97 0-156 75t-59 198.5 58 198 153.5 74.5q97.5 0 146.5-63.5h2.5v53.5h171.5v-707h-167.5zM296 121.5q45 0 71.25 39t26.25 116q0 73.5-26.25 112.25t-71.25 38.75q-99.5 0-99.5-151 0-82 25.75-118.5t73.75-36.5z" />
<glyph unicode="&#x72;" glyph-name="r" horiz-adv-x="412" d="M58 13v524.5h157v-97h5.5q20 51 55.25 78.75t79.25 27.75q29 0 54.5-10v-138.5q-30.5 1-46 0.5-70-6-101.75-48t-31.75-125.5v-212.5h-172z" />
<glyph unicode="&#x73;" glyph-name="s" horiz-adv-x="539" d="M279 2.5q-30 0-57.75 3.25t-57.5 10.75-54 21.5-43.75 33.75-30.5 49.25-11 66.5h168.5q1-44 23.5-61.25t63-17.25q35.5 0 55 13t19.5 45.5q0 16-8 27t-28 18.25-34.75 10.25-46.25 8q-4 0.5-6.75 1t-5.75 1q-24 3.5-39.75 6.5t-38.25 9-37.5 13.25-31.5 19.25-26 27-16 36.75-6.5 47.75q0 34 12.25 61t33 44.25 50.25 28.75 62 16.25 70.5 4.75q110.5 0 174.25-41.25t67.75-126.25h-162.5q0 65.5-78 65.5-32 0-50-11.75t-18-33.75q0-9.5 3.5-17.25t12.25-13.5 16.5-9.5 23.25-7.5 25.25-5.5l29.25-5.25h1.5l1-0.5q84-11.5 122-27.5 91-42 93-144.5 0-46-19.25-79.25t-53.75-51.75-75.5-27-90.5-8.5z" />
<glyph unicode="&#x74;" glyph-name="t" horiz-adv-x="372" d="M218.5 13q-74 0-109.25 38.5t-35.25 118v270h-70v98h70v124l171 27.5v-151.5h103v-98h-103v-235.5q0-42 11.5-54.5t49-12.5h42.5v-124h-129.5z" />
<glyph unicode="&#x75;" glyph-name="u" d="M565.5 537.5v-524.5h-168.5v60.5h-6q-24-31-66-50.75t-97-19.75q-82 0-131.5 51.5t-49.5 141v342h169.5v-300q0-62 21.5-88.25t62.5-26.25q44 0 68.5 31.5t24.5 106v277h172z" />
<glyph unicode="&#x76;" glyph-name="v" horiz-adv-x="583" d="M405 537.5h184l-200-524.5h-196l-199.5 524.5h184.5l113.5-374.5z" />
<glyph unicode="&#x77;" glyph-name="w" horiz-adv-x="901" d="M719.5 537.5h181.5l-144-524.5h-231l-77.5 307-74.5-310.5h-231l-142.5 528h182l85-396.5 103.5 396.5h157.5l103-399z" />
<glyph unicode="&#x78;" glyph-name="x" horiz-adv-x="571" d="M574 537.5l-184-260.5 184-264h-187l-101 161.5-104-161.5h-185.5l180.5 264-180.5 260.5h185.5l104-157.5 101 157.5h187z" />
<glyph unicode="&#x79;" glyph-name="y" horiz-adv-x="553" d="M27-169.5v124.5h79q46.5 0 67 28t0 81.5l-180.5 473h183l95-326h9l97 326h184l-204.5-529.5q-26.5-68-54.75-104.5t-74.75-54.75-120.5-18.25h-79z" />
<glyph unicode="&#x7a;" glyph-name="z" horiz-adv-x="488" d="M230 138h228v-125h-427.5v119l236 281.5h-238v124h429v-125.5z" />
<glyph unicode="&#x7b;" glyph-name="braceleft" horiz-adv-x="304" d="M224.5-170q-62 0-105.75 43.75t-43.75 106.25v251q0 30.5-14.25 40.5t-46.25 9v116q32.5 0 46.5 10.5t14 40v251.5q0 62.5 43.5 105.75t106 43.25h63.5v-128h-40q-20 0-33.5-12.75t-13.5-32.25v-236.5q0-16.5-1.25-27.25t-5.5-24.75-14.75-25.5-27-21q16.5-9.5 27-21.25t14.75-25.75 5.5-24.75 1.25-27.75v-237q0-19.5 13.5-32.25t33.5-12.75h40v-128h-63.5z" />
<glyph unicode="&#x7c;" glyph-name="bar" horiz-adv-x="301" d="M87-102.5v950h127.5v-950h-127.5z" />
<glyph unicode="&#x7d;" glyph-name="braceright" horiz-adv-x="304" d="M79-170h-63.5v128h40q20 0 33.5 12.75t13.5 32.25v237q0 17 1.25 27.75t5.5 24.75 14.75 25.75 27 21.25q-16.5 9.5-27 21t-14.75 25.5-5.5 24.75-1.25 27.25v236.5q0 19.5-13.5 32.25t-33.5 12.75h-40v128h63.5q62.5 0 106-43.25t43.5-105.75v-251.5q0-29.5 14-40t46.5-10.5v-116q-32 1-46.25-9t-14.25-40.5v-251q0-62.5-43.75-106.25t-105.75-43.75z" />
<glyph unicode="&#x7e;" glyph-name="asciitilde" horiz-adv-x="613" d="M20.97 442.161h72.946v-22.62h-45.913v-14.086h39.922v-22.533h-39.922v-36.97h-27.033v96.209zM151.957 364.305h-34.047l-5.845-18.383h-29.284l34.31 96.239h35.684l34.339-96.239h-29.284l-5.874 18.383zM145.090 385.844l-9.878 31.037h-0.555l-9.878-31.066h20.311zM193.399 442.161h40.74l19.406-62.922 19.347 62.922h40.74v-96.239h-27.033v68.386h-0.702l-21.188-68.386h-22.358l-21.188 68.386h-0.731v-68.386h-27.033v96.239zM342.068 350.072c-6.985 3.683-12.333 9.206-16.044 16.57s-5.553 16.512-5.553 27.414c0 10.842 1.841 19.961 5.553 27.355 3.712 7.364 9.060 12.918 16.044 16.629s15.402 5.553 25.28 5.553c9.819 0 18.266-1.841 25.368-5.553s12.567-9.235 16.366-16.629c3.828-7.364 5.728-16.483 5.728-27.355 0-10.842-1.9-19.961-5.728-27.355-3.799-7.364-9.264-12.918-16.366-16.629s-15.548-5.553-25.368-5.553c-9.849 0.029-18.266 1.871-25.28 5.553zM382.661 374.3c3.361 4.705 5.027 11.281 5.027 19.785 0 8.475-1.695 15.080-5.027 19.756-3.361 4.676-8.475 7.014-15.314 7.014-13.21 0-19.814-8.914-19.814-26.77 0-17.886 6.605-26.828 19.814-26.828 6.867-0.029 11.953 2.338 15.314 7.043zM432.286 354.778c-6.751 6.809-10.112 16.541-10.112 29.225v58.158h27.121v-58.977c0-4.501 1.228-7.949 3.654-10.345s5.962-3.623 10.579-3.623c4.822 0 8.534 1.228 11.135 3.654s3.916 5.874 3.916 10.316v58.977h27.033v-57.486c0-12.976-3.42-22.913-10.287-29.809-6.867-6.867-17.448-10.316-31.797-10.316-14.086 0-24.491 3.42-31.242 10.229zM524.433 352.469c-7.745 5.085-11.602 13.736-11.602 25.952h26.507c0.321-4.238 1.841-7.335 4.53-9.352s6.167-3.039 10.374-3.039c3.683 0 6.517 0.672 8.534 2.046s3.039 3.244 3.039 5.641c0 2.221-0.818 4.033-2.455 5.436s-3.712 2.513-6.225 3.331c-2.513 0.818-5.991 1.724-10.374 2.718l-1.987 0.468c-6.167 1.461-11.368 3.068-15.577 4.822-4.209 1.783-7.745 4.501-10.638 8.212s-4.325 8.651-4.325 14.817c0 6.401 1.549 11.865 4.617 16.337s7.393 7.89 12.947 10.229c5.553 2.309 11.982 3.478 19.347 3.478 6.254 0 12.304-0.906 18.091-2.718s10.638-5.027 14.583-9.674c3.916-4.617 5.904-10.871 5.904-18.733h-25.689c0 3.683-1.081 6.546-3.244 8.622s-5.377 3.098-9.645 3.098c-3.449 0-6.079-0.672-7.861-1.987s-2.689-3.039-2.689-5.173c0-1.812 0.731-3.302 2.221-4.413 1.461-1.14 3.361-2.046 5.699-2.689 2.309-0.672 5.523-1.403 9.616-2.221l1.637-0.35c6.635-1.374 12.245-2.981 16.833-4.822 4.588-1.871 8.505-4.852 11.749-9.001 3.244-4.12 4.88-9.703 4.88-16.746 0-6.459-1.491-12.070-4.501-16.863s-7.482-8.505-13.444-11.135c-5.962-2.63-13.297-3.946-21.977-3.946-11.515 0.029-21.129 2.572-28.874 7.657zM30.234 204.941c-7.745 5.085-11.602 13.736-11.602 25.952h26.507c0.321-4.238 1.841-7.335 4.53-9.352s6.167-3.039 10.374-3.039c3.683 0 6.517 0.672 8.534 2.046s3.039 3.244 3.039 5.641c0 2.221-0.818 4.033-2.455 5.436s-3.712 2.513-6.225 3.331c-2.513 0.818-5.991 1.724-10.374 2.718l-1.987 0.468c-6.167 1.461-11.368 3.068-15.577 4.822s-7.745 4.501-10.638 8.212c-2.894 3.712-4.325 8.651-4.325 14.817 0 6.401 1.549 11.865 4.617 16.337 3.098 4.501 7.393 7.89 12.947 10.229 5.553 2.309 11.982 3.478 19.347 3.478 6.254 0 12.304-0.906 18.091-2.718s10.638-5.027 14.583-9.674c3.916-4.617 5.904-10.871 5.904-18.733h-25.689c0 3.683-1.081 6.546-3.244 8.622s-5.377 3.098-9.645 3.098c-3.449 0-6.079-0.672-7.861-1.987s-2.689-3.039-2.689-5.173c0-1.812 0.731-3.302 2.221-4.413 1.461-1.14 3.361-2.046 5.699-2.689 2.309-0.672 5.523-1.403 9.616-2.221l1.637-0.35c6.635-1.374 12.245-2.981 16.833-4.822 4.588-1.871 8.505-4.852 11.749-9.001 3.244-4.12 4.88-9.703 4.88-16.746 0-6.459-1.491-12.070-4.501-16.863s-7.482-8.505-13.444-11.135c-5.962-2.63-13.297-3.946-21.977-3.946-11.515 0.029-21.129 2.572-28.874 7.657zM123.375 202.544c-6.985 3.683-12.333 9.206-16.044 16.57s-5.553 16.512-5.553 27.414c0 10.842 1.841 19.961 5.553 27.355 3.712 7.364 9.060 12.918 16.044 16.629s15.402 5.553 25.28 5.553c9.819 0 18.266-1.841 25.368-5.553s12.567-9.235 16.366-16.629c3.828-7.364 5.728-16.483 5.728-27.355 0-10.842-1.9-19.961-5.728-27.355-3.799-7.364-9.264-12.918-16.366-16.629s-15.548-5.553-25.368-5.553c-9.878 0.029-18.295 1.871-25.28 5.553zM163.969 226.772c3.361 4.705 5.027 11.281 5.027 19.785 0 8.475-1.695 15.080-5.027 19.756-3.361 4.676-8.475 7.014-15.314 7.014-13.21 0-19.814-8.914-19.814-26.77 0-17.886 6.605-26.828 19.814-26.828 6.838-0.029 11.953 2.338 15.314 7.043zM201.114 294.633h40.74c17.038 0 29.342-4.15 36.97-12.45s11.456-20.224 11.456-35.772c0-15.723-3.858-27.647-11.602-35.801s-20.048-12.216-36.941-12.216h-40.623v96.239zM240.014 221.131c6.049 0 10.784 1.023 14.233 3.039s5.874 4.91 7.277 8.651c1.403 3.741 2.104 8.446 2.104 14.145 0 5.349-0.643 9.849-1.9 13.444-1.257 3.623-3.536 6.43-6.78 8.446s-7.716 3.039-13.386 3.039h-13.415v-50.735h11.865zM351.653 216.777h-34.047l-5.845-18.383h-29.313l34.339 96.239h35.684l34.339-96.239h-29.313l-5.845 18.383zM344.786 238.315l-9.878 31.066h-0.555l-9.878-31.066h20.311zM425.243 201.96c-6.985 3.683-12.333 9.206-16.044 16.57s-5.553 16.512-5.553 27.414c0 10.842 1.841 19.961 5.553 27.355 3.712 7.364 9.060 12.918 16.044 16.629s15.402 5.553 25.28 5.553c8.797 0 16.512-1.491 23.117-4.472s11.836-7.453 15.694-13.444c3.858-5.991 6.079-13.386 6.664-22.123h-27.325c-0.35 5.494-2.104 9.761-5.202 12.771s-7.423 4.53-12.976 4.53c-13.21 0-19.814-8.914-19.814-26.77 0-17.886 6.605-26.828 19.814-26.828 5.553 0 9.849 1.52 12.976 4.53 3.098 3.010 4.852 7.277 5.202 12.771h27.325c-0.584-8.767-2.805-16.132-6.664-22.094s-9.089-10.434-15.665-13.415c-6.575-2.981-14.291-4.472-23.147-4.472-9.878-0.029-18.295 1.812-25.28 5.494zM521.627 201.96c-6.985 3.683-12.333 9.206-16.044 16.57s-5.553 16.512-5.553 27.414c0 10.842 1.841 19.961 5.553 27.355 3.712 7.364 9.060 12.918 16.044 16.629s15.402 5.553 25.28 5.553c9.819 0 18.266-1.841 25.368-5.553s12.567-9.235 16.366-16.629c3.828-7.364 5.728-16.483 5.728-27.355 0-10.842-1.9-19.961-5.728-27.355-3.799-7.364-9.264-12.918-16.366-16.629s-15.548-5.553-25.368-5.553c-9.849 0.029-18.295 1.871-25.28 5.553zM562.222 226.158c3.361 4.705 5.027 11.281 5.027 19.785 0 8.475-1.695 15.080-5.027 19.756-3.361 4.676-8.475 7.014-15.314 7.014-13.21 0-19.814-8.914-19.814-26.77 0-17.886 6.605-26.828 19.814-26.828 6.838 0 11.953 2.368 15.314 7.043zM20.152 332.245h573.778v-24.052h-573.778v24.052z" />
<glyph unicode="&#xa1;" glyph-name="exclamdown" horiz-adv-x="328" d="M75 537.5h176v-176h-176v176zM96.5 294h133.5l20-281v-182h-174v182z" />
<glyph unicode="&#xa2;" glyph-name="cent" horiz-adv-x="607" d="M310.5 136q37 0 60.5 21.5t24.5 67h168q-1-88-50.75-144.25t-130.75-73.75v-90h-125.5v86.5q-97 16-155.75 85.75t-58.75 184.75q0 114.5 58.75 184.25t155.75 85.75v90h125.5v-93.5q81-17.5 130.75-73.75t50.75-144.25h-168q-1 45.5-24.5 67t-60.5 21.5q-45 0-71.75-32.5t-26.75-104.5 26.75-104.75 71.75-32.75z" />
<glyph unicode="&#xa3;" glyph-name="sterling" horiz-adv-x="644" d="M263.5 281v-124.5h325v-143.5h-479.5v268h-75v114.5h75v74.5q0 119 70.75 189.5t180.75 70.5q84.5 0 152-44.75t93-123.25l-145-51q-10.5 36.5-38.25 55.5t-61.75 19q-42 0-69.5-25t-27.5-73.5v-91.5h174v-114.5h-174z" />
<glyph unicode="&#xa4;" glyph-name="currency" horiz-adv-x="674" d="M151.5-9.5l-96.5 101 55.5 54.5q-35 58-35 129 0 71.5 35 129l-55.5 54.5 96.5 101 56-58q61 35 129 35 69 0 129-35l56.5 58 96.5-101-55.5-54.5q35-58.5 35-129 0-69.5-35-129l55.5-54.5-96.5-101-56.5 58.5q-60-35-129-35-68 0-129 35zM336.5 152.5q52.5 0 87.75 36.25t35.25 86.25q0 53.5-36.5 88.25t-86.5 34.75q-52.5 0-87.5-36.5t-35-86.5q0-53 36.25-87.75t86.25-34.75z" />
<glyph unicode="&#xa5;" glyph-name="yen" horiz-adv-x="740" d="M282.5 13v90h-157v122h157v73.5h-157v121.5h76.5l-184.5 299.5h196.5l160.5-276 151 276h196l-183.5-299h75.5v-122h-155.5v-73.5h155.5v-122h-155.5v-90h-175.5z" />
<glyph unicode="&#xa6;" glyph-name="brokenbar" horiz-adv-x="302" d="M87 460v387.5h127.5v-387.5h-127.5zM87-102.5v355.5h127.5v-355.5h-127.5z" />
<glyph unicode="&#xa7;" glyph-name="section" horiz-adv-x="554" d="M278 4q-38.5 0-72.5 6.5t-67.25 21.5-57 44.25-33.25 70.25l151.5 45.5q7-31 28.25-46.5t63.75-15.5q70 0 70 41 0 18-16.5 29t-42.75 16.25-58.25 9.75-64 13-58.25 22.25-42.75 41.25-16.5 66.5q0 65 48.5 105-47.5 36.5-47.5 101.5 0 77 56.25 115.75t150.25 38.75q170 0 214.5-135l-137-33q-7 25.5-25.5 37.5t-53 12q-31 0-48.5-10.25t-17.5-30.25q0-15.5 12.75-25.5t33.75-14.5 48-9.5 55-9.5 55-15.25 48-26.25 33.75-43 12.75-64.5q0-60-45.5-98 25.5-19.5 35.5-42t10-52q0-35.5-11.5-64t-31.75-47.5-48.75-31.75-61.25-18.25-70.75-5.5zM335.5 332.5q11.5 8.5 15 21t-6.5 30q-7 12.5-26 21.25t-34.75 12.5-46.25 9.25q-7.5 1.5-11 2-10.5-8-14.75-19.75t1.25-28.75q2-5 5-9.25t8.25-7.75 9.75-6.25 12.5-5.25 13.75-4.25 16.5-4 17.25-3.5 19.75-3.5 20.25-3.75z" />
<glyph unicode="&#xa8;" glyph-name="dieresis" horiz-adv-x="435" d="M56 606.5v113h128.5v-113h-128.5zM250.5 606.5v113h129v-113h-129z" />
<glyph unicode="&#xa9;" glyph-name="copyright" horiz-adv-x="780" d="M388.5 1.5q-75 0-141.5 28t-113.75 76.25-74.75 116-27.5 144.75q0 76.5 27.5 144.25t74.75 116 113.75 76.25 141.5 28q76 0 142.75-28t114.25-76.25 75-116 27.5-144.25q0-77-27.5-144.75t-75-116-114.25-76.25-142.75-28zM388.5 80q79.5 0 144 37.25t101 102.75 36.5 146.5q0 60.5-21.5 113.75t-58.75 91-89.5 59.5-111.75 21.75q-79 0-143-37t-100.5-102.5-36.5-146.5 36.5-146.5 100.5-102.75 143-37.25zM388.5 162.5q-85.5 0-142.5 58.25t-57 145.75q0 87 57 145.25t142.5 58.25q60.5 0 109-30.25t73-81.75l-90-41q-13.5 24.5-37.75 39t-54.25 14.5q-44 0-73-29.75t-29-74.25q0-45 29-74.75t73-29.75q30 0 54.25 14.5t37.75 39l90-41q-24.5-51.5-73-81.75t-109-30.25z" />
<glyph unicode="&#xaa;" glyph-name="ordfeminine" horiz-adv-x="404" d="M200.5 730q72.5 0 115-27.75t42.5-85.75v-251.5h-102v32.5h-8q-49-39.5-106-39.5-52 0-83 26.25t-31 72.75q0 49.5 35 78.5t97 45.5l51 13.5q24.5 6.5 32 12.5t7.5 17q0 35.5-50.5 35.5-28 0-41-10.5t-13-33.5h-109q0 32.5 14.5 56t39.25 35.75 51.75 17.5 58 5.25zM144 466q0-32.5 34-32.5 33 0 72 30.5v68l-66.5-23q-21-7.5-30.25-17.5t-9.25-25.5z" />
<glyph unicode="&#xab;" glyph-name="guillemotleft" horiz-adv-x="535" d="M143.5 74.5l-133 200.5 133 201h140l-133-201 133-200.5h-140zM378.5 74.5l-133 200.5 133 201h140l-133-201 133-200.5h-140z" />
<glyph unicode="&#xac;" glyph-name="logicalnot" horiz-adv-x="642" d="M422.5 8.5v200.5h-377v132.5h509.5v-333h-132.5z" />
<glyph unicode="&#xad;" glyph-name="uni00AD" horiz-adv-x="471" d="M56.5 209v132.5h358v-132.5h-358z" />
<glyph unicode="&#xae;" glyph-name="registered" horiz-adv-x="780" d="M388.5 1.5q-75 0-141.5 28t-113.75 76.25-74.75 116-27.5 144.75q0 76.5 27.5 144.25t74.75 116 113.75 76.25 141.5 28q76 0 142.75-28t114.25-76.25 75-116 27.5-144.25q0-77-27.5-144.75t-75-116-114.25-76.25-142.75-28zM388.5 80q79.5 0 144 37.25t101 102.75 36.5 146.5q0 60.5-21.5 113.75t-58.75 91-89.5 59.5-111.75 21.75q-79 0-143-37t-100.5-102.5-36.5-146.5 36.5-146.5 100.5-102.75 143-37.25zM244.5 182v368h184.5q57 0 92-29.5t35-81q0-36.5-17.25-62.25t-49.75-37.75l85.5-157.5h-100.5l-70.5 143.5h-68v-143.5h-91zM336 395.5l85 1q21.5 0.5 32.5 11t11 27.5q0 18-11.5 28.5t-33.5 10.5h-83.5v-78.5z" />
<glyph unicode="&#xaf;" glyph-name="macron" horiz-adv-x="461" d="M55.5 603v105.5h350v-105.5h-350z" />
<glyph unicode="&#xb0;" glyph-name="degree" horiz-adv-x="332" d="M165 438q-60 0-102.75 42.5t-42.75 104q0 60.5 42.75 103t102.75 42.5q61 0 103.75-42.5t42.75-103q0-61.5-42.75-104t-103.75-42.5zM165 513q30 0 50.75 20.25t20.75 51.25q0 30-20.75 50.75t-50.75 20.75q-29.5 0-50-20.5t-20.5-51q0-31 20.25-51.25t50.25-20.25z" />
<glyph unicode="&#xb1;" glyph-name="plusminus" horiz-adv-x="620" d="M244 195.5v195.5h-195.5v133h195.5v195.5h131.5v-195.5h195.5v-133h-195.5v-195.5h-131.5zM48.5 13v133h522.5v-133h-522.5z" />
<glyph unicode="&#xb4;" glyph-name="acute" horiz-adv-x="270" d="M13 602.5l93.5 117h155.5l-130-117h-119z" />
<glyph unicode="&#xb5;" glyph-name="uni00B5" horiz-adv-x="674" d="M87-169.5v707h169v-300q0-97.5 83.5-97.5 93.5 0 93.5 120.5v277h171.5v-524.5h-168.5v60.5h-5.5q-24-31-66-50.75t-97-19.75q-20 0-39.5 6v-178.5h-141z" />
<glyph unicode="&#xb6;" glyph-name="paragraph" horiz-adv-x="622" d="M249.5-130.5v455q-59.5 0-110.25 22.75t-83.5 68.75-32.75 106 32.75 106 83.5 68.75 110.25 22.75h97v-850h-97zM436.5-130.5v850h98v-850h-98z" />
<glyph unicode="&#xb7;" glyph-name="periodcentered" horiz-adv-x="286" d="M143 195q-36 0-60.5 24t-24.5 60q0 35.5 24.75 60.5t60.25 25q35 0 59.5-25t24.5-60.5-24.5-59.75-59.5-24.25z" />
<glyph unicode="&#xb8;" glyph-name="cedilla" horiz-adv-x="273" d="M134.5-237q-44.5 0-78.25 20.75t-47.25 54.25l77 35q4.5-14.5 15.75-22.25t25.25-7.75q15 0 25.25 8.5t10.25 21.5q0 5.5-1.5 10t-5.5 8.25-8 7-11.5 6.5-13.75 5.5-16.75 5.25-18 5-20.75 5.5-22.25 6l62.5 100.5h96.5l-50-72.5q43-10.5 68.75-32.25t25.75-64.25q0-50-32.75-75.25t-80.75-25.25z" />
<glyph unicode="&#xba;" glyph-name="ordmasculine" horiz-adv-x="438" d="M219 360.5q-79.5 0-130.25 48.25t-50.75 135.75q0 88 50.75 136.25t130.25 48.25q80 0 130-48t50-136.5q0-87.5-50.25-135.75t-129.75-48.25zM219.5 440q66.5 0 66.5 104.5 0 109-66.5 109t-66.5-109q0-104.5 66.5-104.5z" />
<glyph unicode="&#xbb;" glyph-name="guillemotright" horiz-adv-x="535" d="M156 74.5h-140l133 200.5-133 201h140l133-201zM391 74.5h-140l133 200.5-133 201h140l133-201z" />
<glyph unicode="&#xbf;" glyph-name="questiondown" horiz-adv-x="556" d="M364.5 537.5v-177.5h-177v177.5h177zM353 294v-57q0-35.5-12-62.5t-30-42-38.75-28.75-38.75-23.75-30-26.25-12-36.75q0-29.5 21.5-44.5t59-15q45.5 0 68 26.25t22.5 67.75h178q0-39-7.5-71.75t-25.75-63-46.75-51-73.25-33-102.25-12.25q-123.5 0-193.5 52.25t-70 149.75q0 33.5 9.75 59.5t25.5 41.75 34.5 28.25 37.75 22.5 34.75 20.25 25.5 25.5 9.75 34.75v39h154z" />
<glyph unicode="&#xc0;" glyph-name="Agrave" horiz-adv-x="739" d="M423.5 784.5h-119.5l-129.5 117h155.5zM544.5 13l-48 151.5h-254l-48-151.5h-191l249 706.5h234l249-706.5h-191zM287.5 305.5h164l-80 251h-4z" />
<glyph unicode="&#xc1;" glyph-name="Aacute" horiz-adv-x="739" d="M563.5 901.5l-130-117h-119l93.5 117h155.5zM544.5 13l-48 151.5h-254l-48-151.5h-191l249 706.5h234l249-706.5h-191zM287.5 305.5h164l-80 251h-4z" />
<glyph unicode="&#xc2;" glyph-name="Acircumflex" horiz-adv-x="739" d="M368.5 832.5l-42.5-48h-115l107.5 117h101l108-117h-116.5zM544.5 13l-48 151.5h-254l-48-151.5h-191l249 706.5h234l249-706.5h-191zM287.5 305.5h164l-80 251h-4z" />
<glyph unicode="&#xc3;" glyph-name="Atilde" horiz-adv-x="739" d="M436 784q-22.5 0-42.25 7.75t-31.25 17-25.5 17-26.5 7.75q-25.5 0-27-49h-64.5q0 65 21.25 92t63.25 27q23 0 42.75-7.25t30.75-16.25 25-16.25 27-7.25q15.5 0 22.25 10.75t6.75 34.25h60.5q0-61-20-89.25t-62.5-28.25zM544.5 13l-48 151.5h-254l-48-151.5h-191l249 706.5h234l249-706.5h-191zM287.5 305.5h164l-80 251h-4z" />
<glyph unicode="&#xc4;" glyph-name="Adieresis" horiz-adv-x="739" d="M336 901.5v-113h-128.5v113h128.5zM531 901.5v-113h-129v113h129zM544.5 13l-48 151.5h-254l-48-151.5h-191l249 706.5h234l249-706.5h-191zM287.5 305.5h164l-80 251h-4z" />
<glyph unicode="&#xc5;" glyph-name="Aring" horiz-adv-x="739" d="M369.5 754q-48 0-81 33.25t-33 81.25q0 47 33.25 79.75t80.75 32.75q47 0 80.25-32.75t33.25-79.75q0-47.5-33.25-81t-80.25-33.5zM369.5 830.5q15.5 0 26.75 11t11.25 26q0 15.5-11.25 26.75t-26.75 11.25q-17.5 0-27.25-10t-9.75-28q0-17 10.25-27t26.75-10zM544.5 13l-48 151.5h-254l-48-151.5h-191l249 706.5h234l249-706.5h-191zM287.5 305.5h164l-80 251h-4z" />
<glyph unicode="&#xc6;" glyph-name="AE" horiz-adv-x="1026" d="M616.5 162h376v-149h-553.5v150.5l-195 1-48-151.5h-193l254 706.5h709v-148h-349.5v-130.5h325v-148h-325v-131zM439 306.5v264h-66.5l-83.5-264h150z" />
<glyph unicode="&#xc7;" glyph-name="Ccedilla" horiz-adv-x="728" d="M370.5 152.5q67.5 0 106.25 37t43.75 105h178q-9-133.5-86-207.5t-206.5-83l-30.5-44q43-10.5 68.75-32.25t25.75-64.25q0-50-32.75-75.25t-80.75-25.25q-44.5 0-78.25 20.75t-47.25 54.25l77 35q4.5-14.5 15.75-22.25t25.25-7.75q15 0 25.25 8.5t10.25 21.5q0 5.5-1.5 10t-5.5 8.25-8 7-11.5 6.5-13.75 5.5-16.75 5.25-18 5-20.75 5.5-22.25 6l46 74.5q-134.5 16-208 107.75t-73.5 252.25q0 177 89.25 270.25t250.25 93.25q144.5 0 231.25-74.5t96.75-217h-178q-5 67.5-43.75 104.5t-106.25 37q-82 0-122.5-56t-40.5-157.5 40.5-157.75 122.5-56.25z" />
<glyph unicode="&#xc8;" glyph-name="Egrave" horiz-adv-x="660" d="M390 784.5h-119.5l-129.5 117h155.5zM73 13v706.5h525.5v-148.5h-349v-129.5h325.5v-148.5h-325.5v-131.5h376v-148.5h-552.5z" />
<glyph unicode="&#xc9;" glyph-name="Eacute" horiz-adv-x="660" d="M281 784.5l93.5 117h155.5l-130-117h-119zM73 13v706.5h525.5v-148.5h-349v-129.5h325.5v-148.5h-325.5v-131.5h376v-148.5h-552.5z" />
<glyph unicode="&#xca;" glyph-name="Ecircumflex" horiz-adv-x="660" d="M177.5 784.5l107.5 117h101l108-117h-116.5l-42.5 48-42.5-48h-115zM73 13v706.5h525.5v-148.5h-349v-129.5h325.5v-148.5h-325.5v-131.5h376v-148.5h-552.5z" />
<glyph unicode="&#xcb;" glyph-name="Edieresis" horiz-adv-x="660" d="M174 788.5v113h128.5v-113h-128.5zM368.5 788.5v113h129v-113h-129zM73 13v706.5h525.5v-148.5h-349v-129.5h325.5v-148.5h-325.5v-131.5h376v-148.5h-552.5z" />
<glyph unicode="&#xcc;" glyph-name="Igrave" horiz-adv-x="323" d="M213 783h-119.5l-129.5 117h155.5zM73 13v706.5h176.5v-706.5h-176.5z" />
<glyph unicode="&#xcd;" glyph-name="Iacute" horiz-adv-x="323" d="M104 783l93.5 117h155.5l-130-117h-119zM73 13v706.5h176.5v-706.5h-176.5z" />
<glyph unicode="&#xce;" glyph-name="Icircumflex" horiz-adv-x="323" d="M0.5 783l107.5 117h101l108-117h-116.5l-42.5 48-42.5-48h-115zM73 13v706.5h176.5v-706.5h-176.5z" />
<glyph unicode="&#xcf;" glyph-name="Idieresis" horiz-adv-x="323" d="M-3 787v113h128.5v-113h-128.5zM191.5 787v113h129v-113h-129zM73 13v706.5h176.5v-706.5h-176.5z" />
<glyph unicode="&#xd0;" glyph-name="Eth" horiz-adv-x="744" d="M358 719.5q94 0 162.5-24.25t110.5-71 62-111 20-148.75q0-172-86.5-261.75t-269.5-89.75h-284v282h-65v143.5h65v281h285zM345 162.5q105.5 0 149.5 51.5t44 155q0 48.5-9 84t-29.5 62.5-56.5 40.75-87.5 13.75h-106.5v-131.5h93v-143.5h-93v-132.5h95.5z" />
<glyph unicode="&#xd1;" glyph-name="Ntilde" horiz-adv-x="794" d="M464 784q-22.5 0-42.25 7.75t-31.25 17-25.5 17-26.5 7.75q-25.5 0-27-49h-64.5q0 65 21.25 92t63.25 27q23 0 42.75-7.25t30.75-16.25 25-16.25 27-7.25q15.5 0 22.25 10.75t6.75 34.25h60.5q0-61-20-89.25t-62.5-28.25zM73 13v706.5h178l289-441.5h4v441.5h177v-706.5h-180l-285.5 436.5h-6v-436.5h-176.5z" />
<glyph unicode="&#xd2;" glyph-name="Ograve" horiz-adv-x="745" d="M423 783h-119.5l-129.5 117h155.5zM370.5 3q-161 0-250.25 93t-89.25 270.5q0 177 89.25 270.25t250.25 93.25q160.5 0 251.5-93.5t91-270-91-270-251.5-93.5zM370.5 152.5q82.5 0 124.5 56.5t42 157.5q0 100.5-42.25 157t-124.25 56.5-122.5-56-40.5-157.5 40.5-157.75 122.5-56.25z" />
<glyph unicode="&#xd3;" glyph-name="Oacute" horiz-adv-x="745" d="M314 783l93.5 117h155.5l-130-117h-119zM370.5 3q-161 0-250.25 93t-89.25 270.5q0 177 89.25 270.25t250.25 93.25q160.5 0 251.5-93.5t91-270-91-270-251.5-93.5zM370.5 152.5q82.5 0 124.5 56.5t42 157.5q0 100.5-42.25 157t-124.25 56.5-122.5-56-40.5-157.5 40.5-157.75 122.5-56.25z" />
<glyph unicode="&#xd4;" glyph-name="Ocircumflex" horiz-adv-x="745" d="M210.5 783l107.5 117h101l108-117h-116.5l-42.5 48-42.5-48h-115zM370.5 3q-161 0-250.25 93t-89.25 270.5q0 177 89.25 270.25t250.25 93.25q160.5 0 251.5-93.5t91-270-91-270-251.5-93.5zM370.5 152.5q82.5 0 124.5 56.5t42 157.5q0 100.5-42.25 157t-124.25 56.5-122.5-56-40.5-157.5 40.5-157.75 122.5-56.25z" />
<glyph unicode="&#xd5;" glyph-name="Otilde" horiz-adv-x="745" d="M435.5 782.5q-22.5 0-42.25 7.75t-31.25 17-25.5 17-26.5 7.75q-25.5 0-27-49h-64.5q0 65 21.25 92t63.25 27q23 0 42.75-7.25t30.75-16.25 25-16.25 27-7.25q15.5 0 22.25 10.75t6.75 34.25h60.5q0-61-20-89.25t-62.5-28.25zM370.5 3q-161 0-250.25 93t-89.25 270.5q0 177 89.25 270.25t250.25 93.25q160.5 0 251.5-93.5t91-270-91-270-251.5-93.5zM370.5 152.5q82.5 0 124.5 56.5t42 157.5q0 100.5-42.25 157t-124.25 56.5-122.5-56-40.5-157.5 40.5-157.75 122.5-56.25z" />
<glyph unicode="&#xd6;" glyph-name="Odieresis" horiz-adv-x="745" d="M207 787v113h128.5v-113h-128.5zM401.5 787v113h129v-113h-129zM370.5 3q-161 0-250.25 93t-89.25 270.5q0 177 89.25 270.25t250.25 93.25q160.5 0 251.5-93.5t91-270-91-270-251.5-93.5zM370.5 152.5q82.5 0 124.5 56.5t42 157.5q0 100.5-42.25 157t-124.25 56.5-122.5-56-40.5-157.5 40.5-157.75 122.5-56.25z" />
<glyph unicode="&#xd7;" glyph-name="multiply" horiz-adv-x="530" d="M126 42.5l-93.5 93.5 138.5 138.5-138.5 138 94 94 138.5-138 138 138 93.5-92.5-139-139 139-138.5-94-94-138.5 139.5z" />
<glyph unicode="&#xd8;" glyph-name="Oslash" horiz-adv-x="745" d="M661 585.5q52-88.5 52-219 0-176.5-91-270t-251.5-93.5q-138 0-223 68.5l-47.5-47.5-75.5 72 55.5 55.5q-49 85.5-49 215 0 177 89.25 270.25t250.25 93.25q135.5 0 221.5-66.5l45.5 45.5 75-72zM207.5 366.5q0-44 7.5-80l259 259q-40 34.5-103.5 34.5-82 0-122.5-56t-40.5-157.5zM370.5 152.5q82.5 0 124.5 56.5t42 157.5q0 48-9.5 85.5l-262.5-262.5q40-37 105.5-37z" />
<glyph unicode="&#xd9;" glyph-name="Ugrave" horiz-adv-x="706" d="M408 783h-119.5l-129.5 117h155.5zM350.5 3q-147.5 0-220.25 73.75t-72.75 209.75v433h177v-438.5q0-56 30-86.5t86-30.5q57.5 0 89.25 30.5t31.75 86.5v438.5h176.5v-428q0-139.5-73.75-214t-223.75-74.5z" />
<glyph unicode="&#xda;" glyph-name="Uacute" horiz-adv-x="706" d="M299 783l93.5 117h155.5l-130-117h-119zM350.5 3q-147.5 0-220.25 73.75t-72.75 209.75v433h177v-438.5q0-56 30-86.5t86-30.5q57.5 0 89.25 30.5t31.75 86.5v438.5h176.5v-428q0-139.5-73.75-214t-223.75-74.5z" />
<glyph unicode="&#xdb;" glyph-name="Ucircumflex" horiz-adv-x="706" d="M195.5 783l107.5 117h101l108-117h-116.5l-42.5 48-42.5-48h-115zM350.5 3q-147.5 0-220.25 73.75t-72.75 209.75v433h177v-438.5q0-56 30-86.5t86-30.5q57.5 0 89.25 30.5t31.75 86.5v438.5h176.5v-428q0-139.5-73.75-214t-223.75-74.5z" />
<glyph unicode="&#xdc;" glyph-name="Udieresis" horiz-adv-x="706" d="M192 787v113h128.5v-113h-128.5zM386.5 787v113h129v-113h-129zM350.5 3q-147.5 0-220.25 73.75t-72.75 209.75v433h177v-438.5q0-56 30-86.5t86-30.5q57.5 0 89.25 30.5t31.75 86.5v438.5h176.5v-428q0-139.5-73.75-214t-223.75-74.5z" />
<glyph unicode="&#xdd;" glyph-name="Yacute" horiz-adv-x="703" d="M296 783l93.5 117h155.5l-130-117h-119zM263 13v275l-266 431.5h198.5l160.5-278 151.5 278h198l-265.5-431.5v-275h-177z" />
<glyph unicode="&#xde;" glyph-name="Thorn" horiz-adv-x="650" d="M73 13v706.5h176.5v-99h134q52 0 95.5-13.25t78-40.5 54-73.5 19.5-107.75q0-50-13-89.5t-35.5-65.25-54.25-42.5-67.25-23.75-77-7h-134v-144.5h-176.5zM249.5 302.5h100q52 0 78.25 22t26.25 63q0 40-26.5 62.25t-78 22.25h-100v-169.5z" />
<glyph unicode="&#xdf;" glyph-name="germandbls" horiz-adv-x="612" d="M411.5 13h-110.5v132h48q83 0 83 63 0 19.5-9 34.5t-22.75 23.75-29.75 19.5-29.75 21.5-22.75 30.25-9 45q0 24.5 8.5 42.25t20.5 27.75 23.75 19.5 20.25 24.25 8.5 34.75q0 32-19.75 49.75t-55.75 17.75q-45.5 0-67-27t-21.5-72.5v-486h-168.5v485.5q0 112.5 67 172t186.5 59.5q50 0 93.25-10.75t77.75-32 54.25-56.5 19.75-80.75q0-30-9-53.75t-21.75-37.5-25.5-25-21.75-23.25-9-25q0-13.5 9.5-24.75t24-19.5 31-21.25 31-28.25 24-42.5 9.5-61.75q0-82.5-50.25-128.5t-136.75-46z" />
<glyph unicode="&#xe0;" glyph-name="agrave" horiz-adv-x="552" d="M327 602.5h-119.5l-129.5 117h155.5zM273 547.5q69.5 0 119.75-16.5t80.5-54.5 30.25-95.5v-368h-149.5v47.5h-11.5q-72-58-155-58-76.5 0-121.75 38.5t-45.25 107q0 37.5 14.5 67.5t41.75 51.25 60.5 36 76.75 26.25l74.5 20q35.5 9.5 46.75 18.5t11.25 24.5q0 52-74 52-41 0-60-15.25t-19-48.75h-159.5q0 38.5 14.5 68.5t37.5 48.5 55 30 64 16 68 4.5zM190 161q0-47.5 50-47.5 49 0 105.5 45v98.5l-97-33.5q-31.5-11-45-25.5t-13.5-37z" />
<glyph unicode="&#xe1;" glyph-name="aacute" horiz-adv-x="552" d="M467 719.5l-130-117h-119l93.5 117h155.5zM273 547.5q69.5 0 119.75-16.5t80.5-54.5 30.25-95.5v-368h-149.5v47.5h-11.5q-72-58-155-58-76.5 0-121.75 38.5t-45.25 107q0 37.5 14.5 67.5t41.75 51.25 60.5 36 76.75 26.25l74.5 20q35.5 9.5 46.75 18.5t11.25 24.5q0 52-74 52-41 0-60-15.25t-19-48.75h-159.5q0 38.5 14.5 68.5t37.5 48.5 55 30 64 16 68 4.5zM190 161q0-47.5 50-47.5 49 0 105.5 45v98.5l-97-33.5q-31.5-11-45-25.5t-13.5-37z" />
<glyph unicode="&#xe2;" glyph-name="acircumflex" horiz-adv-x="552" d="M272 650.5l-42.5-48h-115l107.5 117h101l108-117h-116.5zM273 547.5q69.5 0 119.75-16.5t80.5-54.5 30.25-95.5v-368h-149.5v47.5h-11.5q-72-58-155-58-76.5 0-121.75 38.5t-45.25 107q0 37.5 14.5 67.5t41.75 51.25 60.5 36 76.75 26.25l74.5 20q35.5 9.5 46.75 18.5t11.25 24.5q0 52-74 52-41 0-60-15.25t-19-48.75h-159.5q0 38.5 14.5 68.5t37.5 48.5 55 30 64 16 68 4.5zM190 161q0-47.5 50-47.5 49 0 105.5 45v98.5l-97-33.5q-31.5-11-45-25.5t-13.5-37z" />
<glyph unicode="&#xe3;" glyph-name="atilde" horiz-adv-x="552" d="M214 651.5q-25.5 0-27-49h-64.5q0 65 21.25 92t63.25 27q23 0 42.75-7.25t30.75-16.25 25-16.25 27-7.25q15.5 0 22.25 10.75t6.75 34.25h60.5q0-61-20-89.25t-62.5-28.25q-22.5 0-42.25 7.75t-31.25 17-25.5 17-26.5 7.75zM273 547.5q69.5 0 119.75-16.5t80.5-54.5 30.25-95.5v-368h-149.5v47.5h-11.5q-72-58-155-58-76.5 0-121.75 38.5t-45.25 107q0 37.5 14.5 67.5t41.75 51.25 60.5 36 76.75 26.25l74.5 20q35.5 9.5 46.75 18.5t11.25 24.5q0 52-74 52-41 0-60-15.25t-19-48.75h-159.5q0 38.5 14.5 68.5t37.5 48.5 55 30 64 16 68 4.5zM190 161q0-47.5 50-47.5 49 0 105.5 45v98.5l-97-33.5q-31.5-11-45-25.5t-13.5-37z" />
<glyph unicode="&#xe4;" glyph-name="adieresis" horiz-adv-x="552" d="M239.5 719.5v-113h-128.5v113h128.5zM434.5 719.5v-113h-129v113h129zM273 547.5q69.5 0 119.75-16.5t80.5-54.5 30.25-95.5v-368h-149.5v47.5h-11.5q-72-58-155-58-76.5 0-121.75 38.5t-45.25 107q0 37.5 14.5 67.5t41.75 51.25 60.5 36 76.75 26.25l74.5 20q35.5 9.5 46.75 18.5t11.25 24.5q0 52-74 52-41 0-60-15.25t-19-48.75h-159.5q0 38.5 14.5 68.5t37.5 48.5 55 30 64 16 68 4.5zM190 161q0-47.5 50-47.5 49 0 105.5 45v98.5l-97-33.5q-31.5-11-45-25.5t-13.5-37z" />
<glyph unicode="&#xe5;" glyph-name="aring" horiz-adv-x="552" d="M273 572q-48 0-81 33.25t-33 81.25q0 47 33.25 79.75t80.75 32.75q47 0 80.25-32.75t33.25-79.75q0-47.5-33.25-81t-80.25-33.5zM273 723.5q-17.5 0-27.25-10t-9.75-28q0-17 10.25-27t26.75-10q15.5 0 26.75 11t11.25 26q0 15.5-11 26.75t-27 11.25zM273 547.5q69.5 0 119.75-16.5t80.5-54.5 30.25-95.5v-368h-149.5v47.5h-11.5q-72-58-155-58-76.5 0-121.75 38.5t-45.25 107q0 37.5 14.5 67.5t41.75 51.25 60.5 36 76.75 26.25l74.5 20q35.5 9.5 46.75 18.5t11.25 24.5q0 52-74 52-41 0-60-15.25t-19-48.75h-159.5q0 38.5 14.5 68.5t37.5 48.5 55 30 64 16 68 4.5zM190 161q0-47.5 50-47.5 49 0 105.5 45v98.5l-97-33.5q-31.5-11-45-25.5t-13.5-37z" />
<glyph unicode="&#xe6;" glyph-name="ae" horiz-adv-x="874" d="M848 256h-335.5q-1-32 2.25-55.75t12.25-43.25 27.25-29.5 44.75-10q37.5 0 57.5 16.5t23 62h168.5q-3.5-43.5-19-77.5t-38.25-55.25-53-35.25-60.75-19.5-64.5-5.5q-151.5 0-219 83.5-109-85-207.5-85-75 0-119.75 39t-44.75 107.5q0 37.5 14.25 67.25t41.25 51 59.5 36 76 26.75l100 27.5q18.5 5 27.25 12t9.25 23v0.5q0.5 22-17 32.5t-53 10.5q-76 0-76-55h-168.5q0 32.5 9.75 58.75t27.5 44.25 40 31 49.75 20 54 10.25 55.5 3.25q112.5 0 168.5-46.5 65 46.5 160.5 46.5 53 0 97.5-15.5t78.5-45.75 53-79 19-111.75v-39.5zM598 432q-71.5 0-82-69h164q-10 69-82 69zM238.5 118.5q52.5 0 114 49.5-10 34-13 81l-84-27.5q-64.5-20.5-64.5-62.5 0-19.5 12.5-30t35-10.5z" />
<glyph unicode="&#xe7;" glyph-name="ccedilla" horiz-adv-x="562" d="M288 119q83 0 85 105.5h168q-1.5-98-62.25-156.25t-156.25-67.75l-28-40.5q43-10.5 68.75-32.25t25.75-64.25q0-50-32.75-75.25t-80.75-25.25q-44.5 0-78.25 20.75t-47.25 54.25l77 35q4.5-14.5 15.75-22.25t25.25-7.75q15 0 25.25 8.5t10.25 21.5q0 5.5-1.5 10t-5.5 8.25-8 7-11.5 6.5-13.75 5.5-16.75 5.25-18 5-20.75 5.5-22.25 6l44.5 72q-95.5 16.5-153 86t-57.5 183.5q0 66 20.5 118.5t56.75 86.25 84.75 51.5 106 17.75q52.5 0 97.75-14.5t80-42 55-71 20.75-98h-168q-2 105.5-85 105.5-98.5 0-98.5-154 0-154.5 98.5-154.5z" />
<glyph unicode="&#xe8;" glyph-name="egrave" horiz-adv-x="555" d="M330 602.5h-119.5l-129.5 117h155.5zM529.5 256h-335.5q-1-32 2.25-55t12.75-42.5 28.25-29.25 46.75-9.75q34.5 0 54 14.75t23 53.25h168.5q-3.5-41-19-73.25t-38.25-52.75-53-34-61-19-64.25-5.5q-57 0-105.75 16.75t-86.75 49.25-59.5 85.5-21.5 121.5q0 128 70.75 199.75t190.25 71.75q53 0 97.5-15.5t78.5-45.75 53-79 19-111.75v-39.5zM278.5 435q-42.5 0-61.75-22.25t-21.75-67.25h167.5q-1 89.5-84 89.5z" />
<glyph unicode="&#xe9;" glyph-name="eacute" horiz-adv-x="555" d="M470 719.5l-130-117h-119l93.5 117h155.5zM529.5 256h-335.5q-1-32 2.25-55t12.75-42.5 28.25-29.25 46.75-9.75q34.5 0 54 14.75t23 53.25h168.5q-3.5-41-19-73.25t-38.25-52.75-53-34-61-19-64.25-5.5q-57 0-105.75 16.75t-86.75 49.25-59.5 85.5-21.5 121.5q0 128 70.75 199.75t190.25 71.75q53 0 97.5-15.5t78.5-45.75 53-79 19-111.75v-39.5zM278.5 435q-42.5 0-61.75-22.25t-21.75-67.25h167.5q-1 89.5-84 89.5z" />
<glyph unicode="&#xea;" glyph-name="ecircumflex" horiz-adv-x="555" d="M275 650.5l-42.5-48h-115l107.5 117h101l108-117h-116.5zM529.5 256h-335.5q-1-32 2.25-55t12.75-42.5 28.25-29.25 46.75-9.75q34.5 0 54 14.75t23 53.25h168.5q-3.5-41-19-73.25t-38.25-52.75-53-34-61-19-64.25-5.5q-57 0-105.75 16.75t-86.75 49.25-59.5 85.5-21.5 121.5q0 128 70.75 199.75t190.25 71.75q53 0 97.5-15.5t78.5-45.75 53-79 19-111.75v-39.5zM278.5 435q-42.5 0-61.75-22.25t-21.75-67.25h167.5q-1 89.5-84 89.5z" />
<glyph unicode="&#xeb;" glyph-name="edieresis" horiz-adv-x="555" d="M242.5 719.5v-113h-128.5v113h128.5zM437.5 719.5v-113h-129v113h129zM529.5 256h-335.5q-1-32 2.25-55t12.75-42.5 28.25-29.25 46.75-9.75q34.5 0 54 14.75t23 53.25h168.5q-3.5-41-19-73.25t-38.25-52.75-53-34-61-19-64.25-5.5q-57 0-105.75 16.75t-86.75 49.25-59.5 85.5-21.5 121.5q0 128 70.75 199.75t190.25 71.75q53 0 97.5-15.5t78.5-45.75 53-79 19-111.75v-39.5zM278.5 435q-42.5 0-61.75-22.25t-21.75-67.25h167.5q-1 89.5-84 89.5z" />
<glyph unicode="&#xec;" glyph-name="igrave" horiz-adv-x="288" d="M198 602.5h-119.5l-129.5 117h155.5zM58 13v524.5h171.5v-524.5h-171.5z" />
<glyph unicode="&#xed;" glyph-name="iacute" horiz-adv-x="288" d="M89 602.5l93.5 117h155.5l-130-117h-119zM58 13v524.5h171.5v-524.5h-171.5z" />
<glyph unicode="&#xee;" glyph-name="icircumflex" horiz-adv-x="288" d="M-14.5 602.5l107.5 117h101l108-117h-116.5l-42.5 48-42.5-48h-115zM58 13v524.5h171.5v-524.5h-171.5z" />
<glyph unicode="&#xef;" glyph-name="idieresis" horiz-adv-x="288" d="M-18 606.5v113h128.5v-113h-128.5zM176.5 606.5v113h129v-113h-129zM58 13v524.5h171.5v-524.5h-171.5z" />
<glyph unicode="&#xf0;" glyph-name="eth" horiz-adv-x="576" d="M430.5 621.5q60-67.5 89-150.25t29-170.75q0-144.5-73.25-220t-194.75-75.5q-83 0-143.25 35.5t-89.75 94.5-29.5 134.5q0 74 28.5 131.5t85.75 91.75 135.75 34.25q91 0 143-56-31.5 74.5-97 124l-163-36.5-11.5 49.5 113 25q-43 22.5-117 44.5l55 93.5q116.5-37.5 197.5-107.5l105.5 23.5 10.5-49zM282.5 124.5q88.5 0 88.5 144.5 0 147-89 147t-89-147q0-144.5 89.5-144.5z" />
<glyph unicode="&#xf1;" glyph-name="ntilde" d="M384.5 604q-22.5 0-42.25 7.75t-31.25 17-25.5 17-26.5 7.75q-25.5 0-27-49h-64.5q0 65 21.25 92t63.25 27q23 0 42.75-7.25t30.75-16.25 25-16.25 27-7.25q15.5 0 22.25 10.75t6.75 34.25h60.5q0-61-20-89.25t-62.5-28.25zM58 13v524.5h168.5v-60.5h6q24 31 66 50.75t97 19.75q82 0 131.5-51.75t49.5-141.25v-341.5h-170v299.5q0 62-21.5 88.5t-62 26.5q-44 0-68.5-31.75t-24.5-106.25v-276.5h-172z" />
<glyph unicode="&#xf2;" glyph-name="ograve" horiz-adv-x="574" d="M342 602.5h-119.5l-129.5 117h155.5zM287.5 1.5q-57 0-105.75 17.75t-85 51.25-56.75 85.75-20.5 117.25q0 66 20.5 118.5t56.75 86.25 84.75 51.5 106 17.75q77 0 136.5-30.25t94.75-93 35.25-150.75q0-86.5-35.25-149t-94.75-92.75-136.5-30.25zM288 119q98.5 0 98.5 154.5 0 88.5-26.25 125.25t-72.25 36.75q-98.5 0-98.5-162 0-154.5 98.5-154.5z" />
<glyph unicode="&#xf3;" glyph-name="oacute" horiz-adv-x="574" d="M233 602.5l93.5 117h155.5l-130-117h-119zM287.5 1.5q-57 0-105.75 17.75t-85 51.25-56.75 85.75-20.5 117.25q0 66 20.5 118.5t56.75 86.25 84.75 51.5 106 17.75q77 0 136.5-30.25t94.75-93 35.25-150.75q0-86.5-35.25-149t-94.75-92.75-136.5-30.25zM288 119q98.5 0 98.5 154.5 0 88.5-26.25 125.25t-72.25 36.75q-98.5 0-98.5-162 0-154.5 98.5-154.5z" />
<glyph unicode="&#xf4;" glyph-name="ocircumflex" horiz-adv-x="574" d="M129.5 602.5l107.5 117h101l108-117h-116.5l-42.5 48-42.5-48h-115zM287.5 1.5q-57 0-105.75 17.75t-85 51.25-56.75 85.75-20.5 117.25q0 66 20.5 118.5t56.75 86.25 84.75 51.5 106 17.75q77 0 136.5-30.25t94.75-93 35.25-150.75q0-86.5-35.25-149t-94.75-92.75-136.5-30.25zM288 119q98.5 0 98.5 154.5 0 88.5-26.25 125.25t-72.25 36.75q-98.5 0-98.5-162 0-154.5 98.5-154.5z" />
<glyph unicode="&#xf5;" glyph-name="otilde" horiz-adv-x="574" d="M354.5 602q-22.5 0-42.25 7.75t-31.25 17-25.5 17-26.5 7.75q-25.5 0-27-49h-64.5q0 65 21.25 92t63.25 27q23 0 42.75-7.25t30.75-16.25 25-16.25 27-7.25q15.5 0 22.25 10.75t6.75 34.25h60.5q0-61-20-89.25t-62.5-28.25zM287.5 1.5q-57 0-105.75 17.75t-85 51.25-56.75 85.75-20.5 117.25q0 66 20.5 118.5t56.75 86.25 84.75 51.5 106 17.75q77 0 136.5-30.25t94.75-93 35.25-150.75q0-86.5-35.25-149t-94.75-92.75-136.5-30.25zM288 119q98.5 0 98.5 154.5 0 88.5-26.25 125.25t-72.25 36.75q-98.5 0-98.5-162 0-154.5 98.5-154.5z" />
<glyph unicode="&#xf6;" glyph-name="odieresis" horiz-adv-x="574" d="M126 606.5v113h128.5v-113h-128.5zM320.5 606.5v113h129v-113h-129zM287.5 1.5q-57 0-105.75 17.75t-85 51.25-56.75 85.75-20.5 117.25q0 66 20.5 118.5t56.75 86.25 84.75 51.5 106 17.75q77 0 136.5-30.25t94.75-93 35.25-150.75q0-86.5-35.25-149t-94.75-92.75-136.5-30.25zM288 119q98.5 0 98.5 154.5 0 88.5-26.25 125.25t-72.25 36.75q-98.5 0-98.5-162 0-154.5 98.5-154.5z" />
<glyph unicode="&#xf7;" glyph-name="divide" horiz-adv-x="593" d="M227 399v135h151v-135h-151zM35 209v132.5h522.5v-132.5h-522.5zM227 16v135h151v-135h-151z" />
<glyph unicode="&#xf8;" glyph-name="oslash" horiz-adv-x="574" d="M558 493.5l-51-49.5q47-68 47-170.5 0-86.5-35.25-149t-94.75-92.75-136.5-30.25q-106.5 0-176.5 56.5l-46.5-45-47 44 49.5 48q-47.5 69-47.5 168.5 0 66 20.5 118.5t56.75 86.25 84.75 51.5 106 17.75q107 0 176-57l48.5 47zM189.5 273.5q0-23.5 2.5-47l171.5 166.5q-24.5 42.5-75.5 42.5-98.5 0-98.5-162zM386.5 273.5q0 25.5-2.5 50.5l-170.5-166q24.5-39 74.5-39 98.5 0 98.5 154.5z" />
<glyph unicode="&#xf9;" glyph-name="ugrave" d="M366 602.5h-119.5l-129.5 117h155.5zM565.5 537.5v-524.5h-168.5v60.5h-6q-24-31-66-50.75t-97-19.75q-82 0-131.5 51.5t-49.5 141v342h169.5v-300q0-62 21.5-88.25t62.5-26.25q44 0 68.5 31.5t24.5 106v277h172z" />
<glyph unicode="&#xfa;" glyph-name="uacute" d="M257 602.5l93.5 117h155.5l-130-117h-119zM565.5 537.5v-524.5h-168.5v60.5h-6q-24-31-66-50.75t-97-19.75q-82 0-131.5 51.5t-49.5 141v342h169.5v-300q0-62 21.5-88.25t62.5-26.25q44 0 68.5 31.5t24.5 106v277h172z" />
<glyph unicode="&#xfb;" glyph-name="ucircumflex" d="M153.5 602.5l107.5 117h101l108-117h-116.5l-42.5 48-42.5-48h-115zM565.5 537.5v-524.5h-168.5v60.5h-6q-24-31-66-50.75t-97-19.75q-82 0-131.5 51.5t-49.5 141v342h169.5v-300q0-62 21.5-88.25t62.5-26.25q44 0 68.5 31.5t24.5 106v277h172z" />
<glyph unicode="&#xfc;" glyph-name="udieresis" d="M150 606.5v113h128.5v-113h-128.5zM344.5 606.5v113h129v-113h-129zM565.5 537.5v-524.5h-168.5v60.5h-6q-24-31-66-50.75t-97-19.75q-82 0-131.5 51.5t-49.5 141v342h169.5v-300q0-62 21.5-88.25t62.5-26.25q44 0 68.5 31.5t24.5 106v277h172z" />
<glyph unicode="&#xfd;" glyph-name="yacute" horiz-adv-x="553" d="M223 602.5l93.5 117h155.5l-130-117h-119zM27-169.5v124.5h79q46.5 0 67 28t0 81.5l-180.5 473h183l95-326h9l97 326h184l-204.5-529.5q-26.5-68-54.75-104.5t-74.75-54.75-120.5-18.25h-79z" />
<glyph unicode="&#xfe;" glyph-name="thorn" horiz-adv-x="614" d="M226-169.5h-168v889h172v-235.5h2.5q49 63.5 146 63.5 96 0 154-74.5t58-198-59-198.5-156-75q-101 0-146.5 64.5h-3v-235.5zM317.5 121.5q99.5 0 99.5 155 0 151-99.5 151-45 0-71.25-38.75t-26.25-112.25q0-77 26.25-116t71.25-39z" />
<glyph unicode="&#xff;" glyph-name="ydieresis" horiz-adv-x="553" d="M116 606.5v113h128.5v-113h-128.5zM310.5 606.5v113h129v-113h-129zM27-169.5v124.5h79q46.5 0 67 28t0 81.5l-180.5 473h183l95-326h9l97 326h184l-204.5-529.5q-26.5-68-54.75-104.5t-74.75-54.75-120.5-18.25h-79z" />
<glyph unicode="&#x100;" glyph-name="Amacron" horiz-adv-x="739" d="M544.5 890.5v-105.5h-350v105.5h350zM544.5 13l-48 151.5h-254l-48-151.5h-191l249 706.5h234l249-706.5h-191zM287.5 305.5h164l-80 251h-4z" />
<glyph unicode="&#x101;" glyph-name="amacron" horiz-adv-x="552" d="M448 708.5v-105.5h-350v105.5h350zM273 547.5q69.5 0 119.75-16.5t80.5-54.5 30.25-95.5v-368h-149.5v47.5h-11.5q-72-58-155-58-76.5 0-121.75 38.5t-45.25 107q0 37.5 14.5 67.5t41.75 51.25 60.5 36 76.75 26.25l74.5 20q35.5 9.5 46.75 18.5t11.25 24.5q0 52-74 52-41 0-60-15.25t-19-48.75h-159.5q0 38.5 14.5 68.5t37.5 48.5 55 30 64 16 68 4.5zM190 161q0-47.5 50-47.5 49 0 105.5 45v98.5l-97-33.5q-31.5-11-45-25.5t-13.5-37z" />
<glyph unicode="&#x102;" glyph-name="Abreve" horiz-adv-x="739" d="M367.5 774.5q-63.5 0-101 33.25t-37.5 93.75h87.5q0-26.5 13.75-40.25t37.25-13.75q24 0 37.75 13.75t13.75 40.25h91q0-60.5-38.5-93.75t-104-33.25zM544.5 13l-48 151.5h-254l-48-151.5h-191l249 706.5h234l249-706.5h-191zM287.5 305.5h164l-80 251h-4z" />
<glyph unicode="&#x103;" glyph-name="abreve" horiz-adv-x="552" d="M271 592.5q-63.5 0-101 33.25t-37.5 93.75h87.5q0-26.5 14-40.25t37-13.75q24 0 37.75 13.75t13.75 40.25h91q0-60.5-38.5-93.75t-104-33.25zM273 547.5q69.5 0 119.75-16.5t80.5-54.5 30.25-95.5v-368h-149.5v47.5h-11.5q-72-58-155-58-76.5 0-121.75 38.5t-45.25 107q0 37.5 14.5 67.5t41.75 51.25 60.5 36 76.75 26.25l74.5 20q35.5 9.5 46.75 18.5t11.25 24.5q0 52-74 52-41 0-60-15.25t-19-48.75h-159.5q0 38.5 14.5 68.5t37.5 48.5 55 30 64 16 68 4.5zM190 161q0-47.5 50-47.5 49 0 105.5 45v98.5l-97-33.5q-31.5-11-45-25.5t-13.5-37z" />
<glyph unicode="&#x104;" glyph-name="Aogonek" horiz-adv-x="739" d="M634-104q0-16 9.75-24.5t25.25-8.5q24.5 0 47 19.5v-101q-26-9.5-54-9.5-21.5 0-41.75 5.5t-39.25 17.5-30.5 34.75-11.5 53.75q0 76 81 129.5h-75.5l-48 151.5h-254l-48-151.5h-191l249 706.5h234l249-706.5h1q-102.5-68-102.5-117zM287.5 305.5h164l-80 251h-4z" />
<glyph unicode="&#x105;" glyph-name="aogonek" horiz-adv-x="552" d="M503.5 13q-102.5-68-102.5-117 0-16 9.75-24.5t25.25-8.5q24.5 0 47 19.5v-101q-26-9.5-54-9.5-21.5 0-41.75 5.5t-39.25 17.5-30.5 34.75-11.5 53.75q0 76 81 129.5h-33v47.5h-11.5q-72-58-155-58-76.5 0-121.75 38.5t-45.25 107q0 37.5 14.5 67.5t41.75 51.25 60.5 36 76.75 26.25l74.5 20q35.5 9.5 46.75 18.5t11.25 24.5q0 52-74 52-41 0-60-15.25t-19-48.75h-159.5q0 38.5 14.5 68.5t37.5 48.5 55 30 64 16 68 4.5q69.5 0 119.75-16.5t80.5-54.5 30.25-95.5v-368zM190 161q0-47.5 50-47.5 49 0 105.5 45v98.5l-97-33.5q-31.5-11-45-25.5t-13.5-37z" />
<glyph unicode="&#x106;" glyph-name="Cacute" horiz-adv-x="728" d="M314 783l93.5 117h155.5l-130-117h-119zM370.5 3q-161 0-250.25 93t-89.25 270.5q0 177 89.25 270.25t250.25 93.25q144.5 0 231.25-74.5t96.75-217h-178q-5 67.5-43.75 104.5t-106.25 37q-82 0-122.5-56t-40.5-157.5 40.5-157.75 122.5-56.25q67.5 0 106.25 37t43.75 105h178q-10-143-96.75-217.25t-231.25-74.25z" />
<glyph unicode="&#x107;" glyph-name="cacute" horiz-adv-x="562" d="M233 602.5l93.5 117h155.5l-130-117h-119zM287.5-1q-57.5 0-106 17.75t-84.75 51.5-56.75 86.5-20.5 118.75 20.5 118.5 56.75 86.25 84.75 51.5 106 17.75q52.5 0 97.75-14.5t80-42 55-71 20.75-98h-168q-2 105.5-85 105.5-98.5 0-98.5-154 0-154.5 98.5-154.5 83 0 85 105.5h168q-0.5-54.5-20.75-98t-55-71-80-42-97.75-14.5z" />
<glyph unicode="&#x10a;" glyph-name="Cdotaccent" horiz-adv-x="728" d="M282 787v113h173v-113h-173zM370.5 3q-161 0-250.25 93t-89.25 270.5q0 177 89.25 270.25t250.25 93.25q144.5 0 231.25-74.5t96.75-217h-178q-5 67.5-43.75 104.5t-106.25 37q-82 0-122.5-56t-40.5-157.5 40.5-157.75 122.5-56.25q67.5 0 106.25 37t43.75 105h178q-10-143-96.75-217.25t-231.25-74.25z" />
<glyph unicode="&#x10b;" glyph-name="cdotaccent" horiz-adv-x="562" d="M201 606.5v113h173v-113h-173zM287.5-1q-57.5 0-106 17.75t-84.75 51.5-56.75 86.5-20.5 118.75 20.5 118.5 56.75 86.25 84.75 51.5 106 17.75q52.5 0 97.75-14.5t80-42 55-71 20.75-98h-168q-2 105.5-85 105.5-98.5 0-98.5-154 0-154.5 98.5-154.5 83 0 85 105.5h168q-0.5-54.5-20.75-98t-55-71-80-42-97.75-14.5z" />
<glyph unicode="&#x10c;" glyph-name="Ccaron" horiz-adv-x="728" d="M318 783l-111 117h117l44-47 44.5 47h117.5l-111-117h-101zM370.5 3q-161 0-250.25 93t-89.25 270.5q0 177 89.25 270.25t250.25 93.25q144.5 0 231.25-74.5t96.75-217h-178q-5 67.5-43.75 104.5t-106.25 37q-82 0-122.5-56t-40.5-157.5 40.5-157.75 122.5-56.25q67.5 0 106.25 37t43.75 105h178q-10-143-96.75-217.25t-231.25-74.25z" />
<glyph unicode="&#x10d;" glyph-name="ccaron" horiz-adv-x="562" d="M237 602.5l-111 117h117l44-47 44.5 47h117.5l-111-117h-101zM287.5-1q-57.5 0-106 17.75t-84.75 51.5-56.75 86.5-20.5 118.75 20.5 118.5 56.75 86.25 84.75 51.5 106 17.75q52.5 0 97.75-14.5t80-42 55-71 20.75-98h-168q-2 105.5-85 105.5-98.5 0-98.5-154 0-154.5 98.5-154.5 83 0 85 105.5h168q-0.5-54.5-20.75-98t-55-71-80-42-97.75-14.5z" />
<glyph unicode="&#x10e;" glyph-name="Dcaron" horiz-adv-x="744" d="M321.5 784.5l-111 117h117l44-47 44.5 47h117.5l-111-117h-101zM73 13v706.5h285q94 0 162.5-24.25t110.5-71 62-111 20-148.75q0-172-86.5-261.75t-269.5-89.75h-284zM249.5 162.5h95.5q105.5 0 149.5 51.5t44 155q0 48.5-9 84t-29.5 62.5-56.5 40.75-87.5 13.75h-106.5v-407.5z" />
<glyph unicode="&#x10f;" glyph-name="dcaron" horiz-adv-x="763" d="M238 1.5q-97 0-156 75t-59 198.5 58 198 154 74.5q95.5 0 146-61.5h2.5v233.5h172v-706.5h-167.5v51.5h-3.5q-46.5-63-146.5-63zM605 407.5l68.5 156.5h-63.5v155.5h175v-155.5l-106-156.5h-74zM297 121.5q44.5 0 70.5 39t26 116.5q0 73-26.25 111.75t-70.25 38.75q-100 0-100-150.5 0-83 25.75-119.25t74.25-36.25z" />
<glyph unicode="&#x110;" glyph-name="Dcroat" horiz-adv-x="744" d="M358 719.5q94 0 162.5-24.25t110.5-71 62-111 20-148.75q0-172-86.5-261.75t-269.5-89.75h-284v282h-65v143.5h65v281h285zM345 162.5q105.5 0 149.5 51.5t44 155q0 48.5-9 84t-29.5 62.5-56.5 40.75-87.5 13.75h-106.5v-131.5h93v-143.5h-93v-132.5h95.5z" />
<glyph unicode="&#x111;" glyph-name="dcroat" horiz-adv-x="614" d="M601.5 673v-85.5h-46v-574.5h-167.5v51.5h-3.5q-46.5-63-146.5-63-97 0-156 75t-59 198.5 58 198 154 74.5q95.5 0 146-61.5h2.5v101.5h-116.5v85.5h116.5v46.5h172v-46.5h46zM297 121.5q44.5 0 70.5 39t26 116.5q0 73-26.25 111.75t-70.25 38.75q-100 0-100-150.5 0-83 25.75-119.25t74.25-36.25z" />
<glyph unicode="&#x112;" glyph-name="Emacron" horiz-adv-x="660" d="M161 785v105.5h350v-105.5h-350zM73 13v706.5h525.5v-148.5h-349v-129.5h325.5v-148.5h-325.5v-131.5h376v-148.5h-552.5z" />
<glyph unicode="&#x113;" glyph-name="emacron" horiz-adv-x="555" d="M451 708.5v-105.5h-350v105.5h350zM529.5 256h-335.5q-1-32 2.25-55t12.75-42.5 28.25-29.25 46.75-9.75q34.5 0 54 14.75t23 53.25h168.5q-3.5-41-19-73.25t-38.25-52.75-53-34-61-19-64.25-5.5q-57 0-105.75 16.75t-86.75 49.25-59.5 85.5-21.5 121.5q0 128 70.75 199.75t190.25 71.75q53 0 97.5-15.5t78.5-45.75 53-79 19-111.75v-39.5zM278.5 435q-42.5 0-61.75-22.25t-21.75-67.25h167.5q-1 89.5-84 89.5z" />
<glyph unicode="&#x116;" glyph-name="Edotaccent" horiz-adv-x="660" d="M249 788.5v113h173v-113h-173zM73 13v706.5h525.5v-148.5h-349v-129.5h325.5v-148.5h-325.5v-131.5h376v-148.5h-552.5z" />
<glyph unicode="&#x117;" glyph-name="edotaccent" horiz-adv-x="555" d="M362 719.5v-113h-173v113h173zM529.5 256h-335.5q-1-32 2.25-55t12.75-42.5 28.25-29.25 46.75-9.75q34.5 0 54 14.75t23 53.25h168.5q-3.5-41-19-73.25t-38.25-52.75-53-34-61-19-64.25-5.5q-57 0-105.75 16.75t-86.75 49.25-59.5 85.5-21.5 121.5q0 128 70.75 199.75t190.25 71.75q53 0 97.5-15.5t78.5-45.75 53-79 19-111.75v-39.5zM278.5 435q-42.5 0-61.75-22.25t-21.75-67.25h167.5q-1 89.5-84 89.5z" />
<glyph unicode="&#x118;" glyph-name="Eogonek" horiz-adv-x="660" d="M625.5 13q-102.5-68-102.5-117 0-16 9.75-24.5t25.25-8.5q24.5 0 47 19.5v-101q-26-9.5-54-9.5-21.5 0-41.75 5.5t-39.25 17.5-30.5 34.75-11.5 53.75q0 76 81 129.5h-436v706.5h525.5v-148.5h-349v-129.5h325.5v-148.5h-325.5v-131.5h376v-148.5z" />
<glyph unicode="&#x119;" glyph-name="eogonek" horiz-adv-x="555" d="M529.5 256h-335.5q-1-32 2.25-55t12.75-42.5 28.25-29.25 46.75-9.75q34.5 0 54 14.75t23 53.25h168.5q-9-106.5-96-153.5-93-63.5-93-110.5 0-16 9.75-24.5t25.25-8.5q24.5 0 47 19.5v-101q-26-9.5-54-9.5-21.5 0-41.75 5.5t-39.25 17.5-30.5 34.75-11.5 53.75q0 52 36.5 92-55 2-101.5 19.5t-82.75 50.25-56.75 84.75-20.5 118.5q0 128 70.75 199.75t190.25 71.75q53 0 97.5-15.5t78.5-45.75 53-79 19-111.75v-39.5zM278.5 435q-42.5 0-61.75-22.25t-21.75-67.25h167.5q-1 89.5-84 89.5z" />
<glyph unicode="&#x11a;" glyph-name="Ecaron" horiz-adv-x="660" d="M285 784.5l-111 117h117l44-47 44.5 47h117.5l-111-117h-101zM73 13v706.5h525.5v-148.5h-349v-129.5h325.5v-148.5h-325.5v-131.5h376v-148.5h-552.5z" />
<glyph unicode="&#x11b;" glyph-name="ecaron" horiz-adv-x="555" d="M326 602.5h-101l-111 117h117l44-47 44.5 47h117.5zM529.5 256h-335.5q-1-32 2.25-55t12.75-42.5 28.25-29.25 46.75-9.75q34.5 0 54 14.75t23 53.25h168.5q-3.5-41-19-73.25t-38.25-52.75-53-34-61-19-64.25-5.5q-57 0-105.75 16.75t-86.75 49.25-59.5 85.5-21.5 121.5q0 128 70.75 199.75t190.25 71.75q53 0 97.5-15.5t78.5-45.75 53-79 19-111.75v-39.5zM278.5 435q-42.5 0-61.75-22.25t-21.75-67.25h167.5q-1 89.5-84 89.5z" />
<glyph unicode="&#x11e;" glyph-name="Gbreve" horiz-adv-x="755" d="M367.5 773q-63.5 0-101 33.25t-37.5 93.75h87.5q0-26 13.75-40t37.25-14q24 0 37.75 13.75t13.75 40.25h91q0-60.5-38.5-93.75t-104-33.25zM383.5 280.5v137.5h315v-405h-147l-0.5 76q-29.5-44-82-65t-117.5-21q-150 0-235.5 95.25t-85.5 264.75q0 172.5 90.5 270t255.5 97.5q65 0 122-16t102-46.5 71.25-79.75 26.75-111.25h-180.5q-0.5 51-40 79.5t-101 28.5q-45.5 0-78.75-16.75t-52-47-27.5-67.75-8.75-84q0-37 5.25-68t17.75-58.5 31.5-46.5 47.75-30 65.75-11q38 0 66.75 11t45.75 29.75 26.5 39.5 13 44.75h-146.5z" />
<glyph unicode="&#x11f;" glyph-name="gbreve" horiz-adv-x="599" d="M294.5 592.5q-63.5 0-101 33.25t-37.5 93.75h87.5q0-26.5 13.75-40.25t37.25-13.75q24 0 37.75 13.75t13.75 40.25h91q0-60.5-38.5-93.75t-104-33.25zM274.5-179.5q-37.5 0-70.75 4.75t-66.5 16.75-57.25 30.75-40 49.5-18.5 70.25h167.5q4-35.5 28.75-50.75t60.25-15.25q45.5 0 68.5 24.25t23 86.25v60.5h-6q-15-29-49-47t-81-18q-43 0-81.25 16.75t-68 48.5-47 81.5-17.25 111.75q0 63 17.5 113t47.25 80.75 66.75 46.75 77.5 16q43.5 0 79-17.75t55-49.75h6v57.5h171.5v-478.5q0-58.5-17-102.5t-43-69.25-63-41-70.75-20.75-72.25-5zM287.5 143.5q45 0 70 34.5t25 108q0 73-25.25 109.25t-70.25 36.25q-44.5 0-69-35.25t-24.5-108.75q0-144 94-144z" />
<glyph unicode="&#x120;" glyph-name="Gdotaccent" horiz-adv-x="755" d="M455.5 900v-113h-173v113h173zM383.5 280.5v137.5h315v-405h-147l-0.5 76q-29.5-44-82-65t-117.5-21q-150 0-235.5 95.25t-85.5 264.75q0 172.5 90.5 270t255.5 97.5q65 0 122-16t102-46.5 71.25-79.75 26.75-111.25h-180.5q-0.5 51-40 79.5t-101 28.5q-45.5 0-78.75-16.75t-52-47-27.5-67.75-8.75-84q0-37 5.25-68t17.75-58.5 31.5-46.5 47.75-30 65.75-11q38 0 66.75 11t45.75 29.75 26.5 39.5 13 44.75h-146.5z" />
<glyph unicode="&#x121;" glyph-name="gdotaccent" horiz-adv-x="599" d="M209.5 606.5v113h173v-113h-173zM274.5-179.5q-37.5 0-70.75 4.75t-66.5 16.75-57.25 30.75-40 49.5-18.5 70.25h167.5q4-35.5 28.75-50.75t60.25-15.25q45.5 0 68.5 24.25t23 86.25v60.5h-6q-15-29-49-47t-81-18q-43 0-81.25 16.75t-68 48.5-47 81.5-17.25 111.75q0 63 17.5 113t47.25 80.75 66.75 46.75 77.5 16q43.5 0 79-17.75t55-49.75h6v57.5h171.5v-478.5q0-58.5-17-102.5t-43-69.25-63-41-70.75-20.75-72.25-5zM287.5 143.5q45 0 70 34.5t25 108q0 73-25.25 109.25t-70.25 36.25q-44.5 0-69-35.25t-24.5-108.75q0-144 94-144z" />
<glyph unicode="&#x122;" glyph-name="Gcommaaccent" horiz-adv-x="755" d="M383.5 280.5v137.5h315v-405h-147l-0.5 76q-29.5-44-82-65t-117.5-21q-150 0-235.5 95.25t-85.5 264.75q0 172.5 90.5 270t255.5 97.5q65 0 122-16t102-46.5 71.25-79.75 26.75-111.25h-180.5q-0.5 51-40 79.5t-101 28.5q-45.5 0-78.75-16.75t-52-47-27.5-67.75-8.75-84q0-37 5.25-68t17.75-58.5 31.5-46.5 47.75-30 65.75-11q38 0 66.75 11t45.75 29.75 26.5 39.5 13 44.75h-146.5zM207.5-203.5l72 151h157.5l-138-151h-91.5z" />
<glyph unicode="&#x123;" glyph-name="gcommaaccent" horiz-adv-x="599" d="M234 602.5l96.5 117h83l-55-117h-124.5zM274.5-179.5q-37.5 0-70.75 4.75t-66.5 16.75-57.25 30.75-40 49.5-18.5 70.25h167.5q4-35.5 28.75-50.75t60.25-15.25q45.5 0 68.5 24.25t23 86.25v60.5h-6q-15-29-49-47t-81-18q-43 0-81.25 16.75t-68 48.5-47 81.5-17.25 111.75q0 63 17.5 113t47.25 80.75 66.75 46.75 77.5 16q43.5 0 79-17.75t55-49.75h6v57.5h171.5v-478.5q0-58.5-17-102.5t-43-69.25-63-41-70.75-20.75-72.25-5zM287.5 143.5q45 0 70 34.5t25 108q0 73-25.25 109.25t-70.25 36.25q-44.5 0-69-35.25t-24.5-108.75q0-144 94-144z" />
<glyph unicode="&#x126;" glyph-name="Hbar" horiz-adv-x="790" d="M755 619v-97.5h-38.5v-508.5h-176.5v280h-290.5v-280h-176.5v508.5h-33.5v97.5h33.5v100.5h176.5v-100.5h290.5v100.5h176.5v-100.5h38.5zM540 441v80.5h-290.5v-80.5h290.5z" />
<glyph unicode="&#x127;" glyph-name="hbar" d="M395 547.5q82.5 0 132.25-52.5t49.75-142v-340h-170v299.5q0 62-21.5 88.5t-62 26.5q-44.5 0-69-31.75t-24.5-106.25v-276.5h-172v574.5h-55.5v85.5h55.5v46.5h169v-46.5h110v-85.5h-110v-110.5h5.5q25 30.5 66.75 50.5t95.75 20z" />
<glyph unicode="&#x12a;" glyph-name="Imacron" horiz-adv-x="323" d="M-16 783.5v105.5h350v-105.5h-350zM73 13v706.5h176.5v-706.5h-176.5z" />
<glyph unicode="&#x12b;" glyph-name="imacron" horiz-adv-x="288" d="M-31 603v105.5h350v-105.5h-350zM58 13v524.5h171.5v-524.5h-171.5z" />
<glyph unicode="&#x12e;" glyph-name="Iogonek" horiz-adv-x="323" d="M249.5 13q-102.5-68-102.5-117 0-16 9.75-24.5t25.25-8.5q24.5 0 47 19.5v-101q-26-9.5-54-9.5-21.5 0-41.75 5.5t-39.25 17.5-30.5 34.75-11.5 53.75q0 76 81 129.5h-60v706.5h176.5v-706.5z" />
<glyph unicode="&#x12f;" glyph-name="iogonek" horiz-adv-x="288" d="M57 719.5h173v-113h-173v113zM230 13q-102.5-68-102.5-117 0-16 9.75-24.5t25.25-8.5q24.5 0 47 19.5v-101q-26-9.5-54-9.5-21.5 0-41.75 5.5t-39.25 17.5-30.5 34.75-11.5 53.75q0 76 81 129.5h-55.5v524.5h171.5v-524.5h0.5z" />
<glyph unicode="&#x130;" glyph-name="Idotaccent" horiz-adv-x="323" d="M72 787v113h173v-113h-173zM73 13v706.5h176.5v-706.5h-176.5z" />
<glyph unicode="&#x131;" glyph-name="dotlessi" horiz-adv-x="288" d="M58 13v524.5h171.5v-524.5h-171.5z" />
<glyph unicode="&#x136;" glyph-name="Kcommaaccent" horiz-adv-x="770" d="M526.5 471.5l238-458.5h-212l-150 324-153-165.5v-158.5h-176.5v706.5h176.5v-332.5l281 332.5h225zM233-203.5l72 151h157.5l-138-151h-91.5z" />
<glyph unicode="&#x137;" glyph-name="kcommaaccent" horiz-adv-x="620" d="M420.5 342.5l206.5-329.5h-194.5l-124.5 218-78-77.5v-140.5h-172v706.5h172v-375l176.5 193h211zM160-203.5l72 151h157.5l-138-151h-91.5z" />
<glyph unicode="&#x138;" glyph-name="kgreenlandic" horiz-adv-x="620" d="M432.5 13l-124.5 217.5-78-77v-140.5h-172v524.5h172v-193l177 193h210l-196.5-195 206.5-329.5h-194.5z" />
<glyph unicode="&#x139;" glyph-name="Lacute" horiz-adv-x="589" d="M97.5 784.5l93.5 117h155.5l-130-117h-119zM73 13v706.5h176.5v-557h328v-149.5h-504.5z" />
<glyph unicode="&#x13a;" glyph-name="lacute" horiz-adv-x="289" d="M88.5 784.5l93.5 117h155.5l-130-117h-119zM58 13v706.5h172v-706.5h-172z" />
<glyph unicode="&#x13b;" glyph-name="Lcommaaccent" horiz-adv-x="589" d="M73 13v706.5h176.5v-557h328v-149.5h-504.5zM143-203.5l72 151h157.5l-138-151h-91.5z" />
<glyph unicode="&#x13c;" glyph-name="lcommaaccent" horiz-adv-x="289" d="M58 13v706.5h172v-706.5h-172zM-8-203.5l72 151h157.5l-138-151h-91.5z" />
<glyph unicode="&#x13d;" glyph-name="Lcaron" horiz-adv-x="606" d="M73 13v706.5h176.5v-557h328v-149.5h-504.5zM354 407.5l68.5 156.5h-63.5v155.5h175v-155.5l-106-156.5h-74z" />
<glyph unicode="&#x13e;" glyph-name="lcaron" horiz-adv-x="438" d="M58 13v706.5h172v-706.5h-172zM279.5 407.5l68.5 156.5h-63.5v155.5h175v-155.5l-106-156.5h-74z" />
<glyph unicode="&#x141;" glyph-name="Lslash" horiz-adv-x="589" d="M249.5 162.5h328v-149.5h-504.5v153.5l-63.5-49v165.5l63.5 52v384.5h176.5v-240l79 64.5v-180l-79-61v-140.5z" />
<glyph unicode="&#x142;" glyph-name="lslash" horiz-adv-x="289" d="M302.5 583.5v-180l-72.5-56v-334.5h-172v201.5l-74.5-57.5v165.5l74.5 61v336h172v-195.5z" />
<glyph unicode="&#x143;" glyph-name="Nacute" horiz-adv-x="794" d="M342.5 784.5l93.5 117h155.5l-130-117h-119zM73 13v706.5h178l289-441.5h4v441.5h177v-706.5h-180l-285.5 436.5h-6v-436.5h-176.5z" />
<glyph unicode="&#x144;" glyph-name="nacute" d="M263 604.5l93.5 117h155.5l-130-117h-119zM58 13v524.5h168.5v-60.5h6q24 31 66 50.75t97 19.75q82 0 131.5-51.75t49.5-141.25v-341.5h-170v299.5q0 62-21.5 88.5t-62 26.5q-44 0-68.5-31.75t-24.5-106.25v-276.5h-172z" />
<glyph unicode="&#x145;" glyph-name="Ncommaaccent" horiz-adv-x="794" d="M73 13v706.5h178l289-441.5h4v441.5h177v-706.5h-180l-285.5 436.5h-6v-436.5h-176.5zM246-203.5l72 151h157.5l-138-151h-91.5z" />
<glyph unicode="&#x146;" glyph-name="ncommaaccent" d="M58 13v524.5h168.5v-60.5h6q24 31 66 50.75t97 19.75q82 0 131.5-51.75t49.5-141.25v-341.5h-170v299.5q0 62-21.5 88.5t-62 26.5q-44 0-68.5-31.75t-24.5-106.25v-276.5h-172zM166-203.5l72 151h157.5l-138-151h-91.5z" />
<glyph unicode="&#x147;" glyph-name="Ncaron" horiz-adv-x="794" d="M346.5 784.5l-111 117h117l44-47 44.5 47h117.5l-111-117h-101zM73 13v706.5h178l289-441.5h4v441.5h177v-706.5h-180l-285.5 436.5h-6v-436.5h-176.5z" />
<glyph unicode="&#x148;" glyph-name="ncaron" d="M267 604.5l-111 117h117l44-47 44.5 47h117.5l-111-117h-101zM58 13v524.5h168.5v-60.5h6q24 31 66 50.75t97 19.75q82 0 131.5-51.75t49.5-141.25v-341.5h-170v299.5q0 62-21.5 88.5t-62 26.5q-44 0-68.5-31.75t-24.5-106.25v-276.5h-172z" />
<glyph unicode="&#x14a;" glyph-name="Eng" horiz-adv-x="794" d="M435-131.5v87h56.5q24.5 0 38 10.25t13.5 27.25-12.5 36l-275 420.5h-6v-436.5h-176.5v706.5h178l289-441.5h4v441.5h177v-706.5q0-80.5-46.5-112.5t-141.5-32h-98z" />
<glyph unicode="&#x14b;" glyph-name="eng" d="M331.5-131.5v78.5h18q31.5 0 44.25 15.25t12.75 50.75v299.5q0 62-21.25 88.5t-61.75 26.5q-93.5 0-93.5-121v-293.5h-172v524.5h168.5v-60.5h6q25 30.5 66.5 50.5t95.5 20q82.5 0 132.25-52.25t49.75-142.25v-340q0-79.5-46.75-112t-137.25-32.5h-61z" />
<glyph unicode="&#x14c;" glyph-name="Omacron" horiz-adv-x="745" d="M194 783.5v105.5h350v-105.5h-350zM370.5 3q-161 0-250.25 93t-89.25 270.5q0 177 89.25 270.25t250.25 93.25q160.5 0 251.5-93.5t91-270-91-270-251.5-93.5zM370.5 152.5q82.5 0 124.5 56.5t42 157.5q0 100.5-42.25 157t-124.25 56.5-122.5-56-40.5-157.5 40.5-157.75 122.5-56.25z" />
<glyph unicode="&#x14d;" glyph-name="omacron" horiz-adv-x="574" d="M113 603v105.5h350v-105.5h-350zM287.5 1.5q-57 0-105.75 17.75t-85 51.25-56.75 85.75-20.5 117.25q0 66 20.5 118.5t56.75 86.25 84.75 51.5 106 17.75q77 0 136.5-30.25t94.75-93 35.25-150.75q0-86.5-35.25-149t-94.75-92.75-136.5-30.25zM288 119q98.5 0 98.5 154.5 0 88.5-26.25 125.25t-72.25 36.75q-98.5 0-98.5-162 0-154.5 98.5-154.5z" />
<glyph unicode="&#x150;" glyph-name="Ohungarumlaut" horiz-adv-x="745" d="M212.5 783l102 117h129l-114-117h-117zM410 783l102.5 117h151l-138.5-117h-115zM370.5 3q-161 0-250.25 93t-89.25 270.5q0 177 89.25 270.25t250.25 93.25q160.5 0 251.5-93.5t91-270-91-270-251.5-93.5zM370.5 152.5q82.5 0 124.5 56.5t42 157.5q0 100.5-42.25 157t-124.25 56.5-122.5-56-40.5-157.5 40.5-157.75 122.5-56.25z" />
<glyph unicode="&#x151;" glyph-name="ohungarumlaut" horiz-adv-x="574" d="M131.5 602.5l102 117h129l-114-117h-117zM329 602.5l102.5 117h151l-138.5-117h-115zM287.5 1.5q-57 0-105.75 17.75t-85 51.25-56.75 85.75-20.5 117.25q0 66 20.5 118.5t56.75 86.25 84.75 51.5 106 17.75q77 0 136.5-30.25t94.75-93 35.25-150.75q0-86.5-35.25-149t-94.75-92.75-136.5-30.25zM288 119q98.5 0 98.5 154.5 0 88.5-26.25 125.25t-72.25 36.75q-98.5 0-98.5-162 0-154.5 98.5-154.5z" />
<glyph unicode="&#x152;" glyph-name="OE" horiz-adv-x="1056" d="M387 13q-183 0-269.5 89.75t-86.5 261.75q0 84.5 20 148.75t62 111 110.5 71 162.5 24.25h610v-148.5h-350.5v-129.5h325.5v-148.5h-325.5v-130.5h376v-149.5h-634.5zM399 162.5h70v408.5h-81q-51.5 0-87.5-13.75t-56.5-41-29.5-63-9-84.25q0-103.5 44-155t149.5-51.5z" />
<glyph unicode="&#x153;" glyph-name="oe" horiz-adv-x="925" d="M898.5 256h-335.5q-1-29.5 2.5-52.5t13.25-43.5 30-31.5 49.75-11q66 0 71.5 70h168.5q-3.5-41-19-73.25t-38.25-52.75-53-34-61-19-64.25-5.5q-116.5 0-189.5 63.5-72-65-186-65-57 0-105.75 17.75t-85 51.25-56.75 85.75-20.5 117.25q0 66 20.5 118.5t56.75 86.25 84.75 51.5 106 17.75q111.5 0 182.5-62.5 68.5 62.5 180.5 62.5 53 0 97.5-15.5t78.5-45.75 53-79 19-111.75v-39.5zM288 120q98.5 0 98.5 153.5 0 89-26.25 126t-72.25 37q-98.5 0-98.5-163 0-153.5 98.5-153.5zM648.5 435q-71 0-82.5-72h164.5q-9 72-82 72z" />
<glyph unicode="&#x154;" glyph-name="Racute" horiz-adv-x="719" d="M526.5 900l-130-117h-119l93.5 117h155.5zM652 183l29-170h-180l-24 159.5q-5 33-11.25 52.75t-17 35.5-29.75 23-45.5 10.75-68 3.5h-56.5v-286h-176v707.5h338q130 0 196.25-55.25t66.25-156.75q0-74-31.75-114.5t-98.25-56.5q47.5-13.5 72.5-50.75t36-102.75zM250 571v-138h163q41.5 0 62.5 19.25t21 50.75q0 32.5-21.5 50.25t-64.5 17.75h-160.5z" />
<glyph unicode="&#x155;" glyph-name="racute" horiz-adv-x="412" d="M151.5 602.5l93.5 117h155.5l-130-117h-119zM58 13v524.5h157v-97h5.5q20 51 55.25 78.75t79.25 27.75q29 0 54.5-10v-138.5q-30.5 1-46 0.5-70-6-101.75-48t-31.75-125.5v-212.5h-172z" />
<glyph unicode="&#x156;" glyph-name="Rcommaaccent" horiz-adv-x="719" d="M652 183l29-170h-180l-24 159.5q-5 33-11.25 52.75t-17 35.5-29.75 23-45.5 10.75-68 3.5h-56.5v-286h-176v707.5h338q130 0 196.25-55.25t66.25-156.75q0-74-31.75-114.5t-98.25-56.5q47.5-13.5 72.5-50.75t36-102.75zM250 571v-138h163q41.5 0 62.5 19.25t21 50.75q0 32.5-21.5 50.25t-64.5 17.75h-160.5zM209-203.5l72 151h157.5l-138-151h-91.5z" />
<glyph unicode="&#x157;" glyph-name="rcommaaccent" horiz-adv-x="412" d="M58 13v524.5h157v-97h5.5q20 51 55.25 78.75t79.25 27.75q29 0 54.5-10v-138.5q-30.5 1-46 0.5-70-6-101.75-48t-31.75-125.5v-212.5h-172zM-7.5-203.5l72 151h157.5l-138-151h-91.5z" />
<glyph unicode="&#x158;" glyph-name="Rcaron" horiz-adv-x="719" d="M382.5 783h-101l-111 117h117l44-47 44.5 47h117.5zM652 183l29-170h-180l-24 159.5q-5 33-11.25 52.75t-17 35.5-29.75 23-45.5 10.75-68 3.5h-56.5v-286h-176v707.5h338q130 0 196.25-55.25t66.25-156.75q0-74-31.75-114.5t-98.25-56.5q47.5-13.5 72.5-50.75t36-102.75zM250 571v-138h163q41.5 0 62.5 19.25t21 50.75q0 32.5-21.5 50.25t-64.5 17.75h-160.5z" />
<glyph unicode="&#x159;" glyph-name="rcaron" horiz-adv-x="412" d="M155.5 602.5l-111 117h117l44-47 44.5 47h117.5l-111-117h-101zM58 13v524.5h157v-97h5.5q20 51 55.25 78.75t79.25 27.75q29 0 54.5-10v-138.5q-30.5 1-46 0.5-70-6-101.75-48t-31.75-125.5v-212.5h-172z" />
<glyph unicode="&#x15a;" glyph-name="Sacute" horiz-adv-x="631" d="M244 783l93.5 117h155.5l-130-117h-119zM320 5q-44.5 0-83.75 6.75t-78 24-66.5 44.5-44.75 71-17 100.25h173.5q3-55 36.25-81.25t86.25-26.25q46.5 0 72.75 18.5t26.25 51.5q0 18-8.25 32t-21.75 23.5-34 17.25-41 13-47.5 11.25q-6 1.5-9.5 2-28 6.5-45.75 11.5t-43.5 14.25-42.5 18.75-35.5 25-29.5 33.5-18 43-7.25 55q0 102.5 71.75 159.25t190.25 56.75q37.5 0 72.75-5.75t72.5-21.25 64.75-39.5 45.25-64.25 18.25-91.75h-168.5q-0.5 45.5-27.5 69.75t-76.5 24.25q-43.5 0-67-17.25t-23.5-47.25q0-12.5 4.75-22.25t14-17.25 21.25-13.25 28-10.5 32.25-8.75 36.25-8.5q6-1.5 9.5-2 30-6.5 48.75-11t47.25-14 46.75-19.75 39.25-27 33.25-36.75 20.5-48.25 8.25-62.25q0-106-73.25-168.25t-210.25-62.25z" />
<glyph unicode="&#x15b;" glyph-name="sacute" horiz-adv-x="539" d="M208.5 602.5l93.5 117h155.5l-130-117h-119zM279 2.5q-30 0-57.75 3.25t-57.5 10.75-54 21.5-43.75 33.75-30.5 49.25-11 66.5h168.5q1-44 23.5-61.25t63-17.25q35.5 0 55 13t19.5 45.5q0 16-8 27t-28 18.25-34.75 10.25-46.25 8q-4 0.5-6.75 1t-5.75 1q-24 3.5-39.75 6.5t-38.25 9-37.5 13.25-31.5 19.25-26 27-16 36.75-6.5 47.75q0 34 12.25 61t33 44.25 50.25 28.75 62 16.25 70.5 4.75q110.5 0 174.25-41.25t67.75-126.25h-162.5q0 65.5-78 65.5-32 0-50-11.75t-18-33.75q0-9.5 3.5-17.25t12.25-13.5 16.5-9.5 23.25-7.5 25.25-5.5l29.25-5.25h1.5l1-0.5q84-11.5 122-27.5 91-42 93-144.5 0-46-19.25-79.25t-53.75-51.75-75.5-27-90.5-8.5z" />
<glyph unicode="&#x15e;" glyph-name="Scedilla" horiz-adv-x="631" d="M603.5 235.5q0-102-68.25-163.75t-196.75-66.25l-30-44q43-10.5 68.75-32.25t25.75-64.25q0-50-32.75-75.25t-80.75-25.25q-44.5 0-78.25 20.75t-47.25 54.25l77 35q4.5-14.5 15.75-22.25t25.25-7.75q15 0 25.25 8.5t10.25 21.5q0 5.5-1.5 10t-5.5 8.25-8 7-11.5 6.5-13.75 5.5-16.75 5.25-18 5-20.75 5.5-22.25 6l47.5 76.5q-45.5 7-82.5 23t-68.25 43.5-48.75 72.25-17.5 102.75h173.5q3-55 36.25-81.25t86.25-26.25q46.5 0 72.75 18.5t26.25 51.5q0 18-8.25 32t-21.75 23.5-34 17.25-41 13-47.5 11.25q-6 1.5-9.5 2-28 6.5-45.75 11.5t-43.5 14.25-42.5 18.75-35.5 25-29.5 33.5-18 43-7.25 55q0 102.5 71.75 159.25t190.25 56.75q37.5 0 72.75-5.75t72.5-21.25 64.75-39.5 45.25-64.25 18.25-91.75h-168.5q-0.5 45.5-27.5 69.75t-76.5 24.25q-43.5 0-67-17.25t-23.5-47.25q0-12.5 4.75-22.25t14-17.25 21.25-13.25 28-10.5 32.25-8.75 36.25-8.5q6-1.5 9.5-2 30-6.5 48.75-11t47.25-14 46.75-19.75 39.25-27 33.25-36.75 20.5-48.25 8.25-62.25z" />
<glyph unicode="&#x15f;" glyph-name="scedilla" horiz-adv-x="539" d="M518 169q0-33-10.25-59.5t-28-44.75-43-31.25-53.5-20-61.75-9.5l-30.5-44q43-10.5 68.75-32.25t25.75-64.25q0-50-32.75-75.25t-80.75-25.25q-44.5 0-78.25 20.75t-47.25 54.25l77 35q4.5-14.5 15.75-22.25t25.25-7.75q15 0 25.25 8.5t10.25 21.5q0 5.5-1.5 10t-5.5 8.25-8 7-11.5 6.5-13.75 5.5-16.75 5.25-18 5-20.75 5.5-22.25 6l45.5 73q-32 3-59.5 10.25t-54.75 21.25-46.25 33.5-30.75 49.75-11.75 67.75h168.5q1-44 23.5-61.25t63-17.25q35.5 0 55 13t19.5 45.5q0 16-8 27t-28 18.25-34.75 10.25-46.25 8q-4 0.5-6.75 1t-5.75 1q-24 3.5-39.75 6.5t-38.25 9-37.5 13.25-31.5 19.25-26 27-16 36.75-6.5 47.75q0 34 12.25 61t33 44.25 50.25 28.75 62 16.25 70.5 4.75q110.5 0 174.25-41.25t67.75-126.25h-162.5q0 65.5-78 65.5-32 0-50-11.75t-18-33.75q0-9.5 3.5-17.25t12.25-13.5 16.5-9.5 23.25-7.5 25.25-5.5l29.25-5.25h1.5l1-0.5q84-11.5 122-27.5 91-42 93-144.5z" />
<glyph unicode="&#x160;" glyph-name="Scaron" horiz-adv-x="631" d="M248 783l-111 117h117l44-47 44.5 47h117.5l-111-117h-101zM320 5q-44.5 0-83.75 6.75t-78 24-66.5 44.5-44.75 71-17 100.25h173.5q3-55 36.25-81.25t86.25-26.25q46.5 0 72.75 18.5t26.25 51.5q0 18-8.25 32t-21.75 23.5-34 17.25-41 13-47.5 11.25q-6 1.5-9.5 2-28 6.5-45.75 11.5t-43.5 14.25-42.5 18.75-35.5 25-29.5 33.5-18 43-7.25 55q0 102.5 71.75 159.25t190.25 56.75q37.5 0 72.75-5.75t72.5-21.25 64.75-39.5 45.25-64.25 18.25-91.75h-168.5q-0.5 45.5-27.5 69.75t-76.5 24.25q-43.5 0-67-17.25t-23.5-47.25q0-12.5 4.75-22.25t14-17.25 21.25-13.25 28-10.5 32.25-8.75 36.25-8.5q6-1.5 9.5-2 30-6.5 48.75-11t47.25-14 46.75-19.75 39.25-27 33.25-36.75 20.5-48.25 8.25-62.25q0-106-73.25-168.25t-210.25-62.25z" />
<glyph unicode="&#x161;" glyph-name="scaron" horiz-adv-x="539" d="M212.5 602.5l-111 117h117l44-47 44.5 47h117.5l-111-117h-101zM279 2.5q-30 0-57.75 3.25t-57.5 10.75-54 21.5-43.75 33.75-30.5 49.25-11 66.5h168.5q1-44 23.5-61.25t63-17.25q35.5 0 55 13t19.5 45.5q0 16-8 27t-28 18.25-34.75 10.25-46.25 8q-4 0.5-6.75 1t-5.75 1q-24 3.5-39.75 6.5t-38.25 9-37.5 13.25-31.5 19.25-26 27-16 36.75-6.5 47.75q0 34 12.25 61t33 44.25 50.25 28.75 62 16.25 70.5 4.75q110.5 0 174.25-41.25t67.75-126.25h-162.5q0 65.5-78 65.5-32 0-50-11.75t-18-33.75q0-9.5 3.5-17.25t12.25-13.5 16.5-9.5 23.25-7.5 25.25-5.5l29.25-5.25h1.5l1-0.5q84-11.5 122-27.5 91-42 93-144.5 0-46-19.25-79.25t-53.75-51.75-75.5-27-90.5-8.5z" />
<glyph unicode="&#x162;" glyph-name="uni0162" horiz-adv-x="606" d="M390 13h-48l-36.5-53q43-10.5 68.75-32.25t25.75-64.25q0-50-32.75-75.25t-80.75-25.25q-44.5 0-78.25 20.75t-47.25 54.25l77 35q4.5-14.5 15.75-22.25t25.25-7.75q15 0 25.25 8.5t10.25 21.5q0 5.5-1.5 10t-5.5 8.25-8 7-11.5 6.5-13.75 5.5-16.75 5.25-18 5-20.75 5.5-22.25 6l50.5 81h-34v558.5h-202.5v148h584v-148h-204.5v-558.5z" />
<glyph unicode="&#x163;" glyph-name="uni0163" horiz-adv-x="372" d="M348 439.5h-103v-235.5q0-42 11.5-54.5t49-12.5h42.5v-124h-66.5l-36.5-53q43-10.5 68.75-32.25t25.75-64.25q0-50-32.75-75.25t-80.75-25.25q-44.5 0-78.25 20.75t-47.25 54.25l77 35q4.5-14.5 15.75-22.25t25.25-7.75q15 0 25.25 8.5t10.25 21.5q0 5.5-1.5 10t-5.5 8.25-8 7-11.5 6.5-13.75 5.5-16.75 5.25-18 5-20.75 5.5-22.25 6l51.5 83q-58 7.5-85.75 45.5t-27.75 109v270h-70v98h70v124l171 27.5v-151.5h103v-98z" />
<glyph unicode="&#x164;" glyph-name="Tcaron" horiz-adv-x="606" d="M248 783l-111 117h117l44-47 44.5 47h117.5l-111-117h-101zM213 13v558.5h-202.5v148h584v-148h-204.5v-558.5h-177z" />
<glyph unicode="&#x165;" glyph-name="tcaron" horiz-adv-x="372" d="M323 603l51 116.5h-66v155.5h175.5v-155.5l-78.5-116.5h-82zM218.5 13q-74 0-109.25 38.5t-35.25 118v270h-70v98h70v124l171 27.5v-151.5h103v-98h-103v-235.5q0-42 11.5-54.5t49-12.5h42.5v-124h-129.5z" />
<glyph unicode="&#x166;" glyph-name="Tbar" horiz-adv-x="606" d="M594.5 571.5h-204.5v-137.5h76v-134.5h-76v-286.5h-177v286.5h-81.5v134.5h81.5v137.5h-202.5v148h584v-148z" />
<glyph unicode="&#x167;" glyph-name="tbar" horiz-adv-x="411" d="M365.5 439.5h-103v-104.5h103v-79.5h-103v-51.5q0-37 11-52t41.5-15h50.5v-124h-129.5q-74 0-109.25 38.5t-35.25 118v86h-69.5v79.5h69.5v104.5h-69.5v98h69.5v124l171 27.5v-151.5h103v-98z" />
<glyph unicode="&#x16a;" glyph-name="Umacron" horiz-adv-x="706" d="M179 783.5v105.5h350v-105.5h-350zM350.5 3q-147.5 0-220.25 73.75t-72.75 209.75v433h177v-438.5q0-56 30-86.5t86-30.5q57.5 0 89.25 30.5t31.75 86.5v438.5h176.5v-428q0-139.5-73.75-214t-223.75-74.5z" />
<glyph unicode="&#x16b;" glyph-name="umacron" d="M137 603v105.5h350v-105.5h-350zM565.5 537.5v-524.5h-168.5v60.5h-6q-24-31-66-50.75t-97-19.75q-82 0-131.5 51.5t-49.5 141v342h169.5v-300q0-62 21.5-88.25t62.5-26.25q44 0 68.5 31.5t24.5 106v277h172z" />
<glyph unicode="&#x16e;" glyph-name="Uring" horiz-adv-x="706" d="M354 752.5q-48 0-81 33.25t-33 81.25q0 47 33.25 79.75t80.75 32.75q47 0 80.25-32.75t33.25-79.75q0-47.5-33.25-81t-80.25-33.5zM354 829q15.5 0 26.75 11t11.25 26q0 16-11 27t-27 11q-17.5 0-27.25-10t-9.75-28q0-17 10.25-27t26.75-10zM350.5 3q-147.5 0-220.25 73.75t-72.75 209.75v433h177v-438.5q0-56 30-86.5t86-30.5q57.5 0 89.25 30.5t31.75 86.5v438.5h176.5v-428q0-139.5-73.75-214t-223.75-74.5z" />
<glyph unicode="&#x16f;" glyph-name="uring" d="M312 572q-48 0-81 33.25t-33 81.25q0 47 33.25 79.75t80.75 32.75q47 0 80.25-32.75t33.25-79.75q0-47.5-33.25-81t-80.25-33.5zM312 648.5q15.5 0 26.75 11t11.25 26q0 15.5-11 26.75t-27 11.25q-17.5 0-27.25-10t-9.75-28q0-17 10.25-27t26.75-10zM565.5 537.5v-524.5h-168.5v60.5h-6q-24-31-66-50.75t-97-19.75q-82 0-131.5 51.5t-49.5 141v342h169.5v-300q0-62 21.5-88.25t62.5-26.25q44 0 68.5 31.5t24.5 106v277h172z" />
<glyph unicode="&#x170;" glyph-name="Uhungarumlaut" horiz-adv-x="706" d="M197.5 783l102 117h129l-114-117h-117zM395 783l102.5 117h151l-138.5-117h-115zM350.5 3q-147.5 0-220.25 73.75t-72.75 209.75v433h177v-438.5q0-56 30-86.5t86-30.5q57.5 0 89.25 30.5t31.75 86.5v438.5h176.5v-428q0-139.5-73.75-214t-223.75-74.5z" />
<glyph unicode="&#x171;" glyph-name="uhungarumlaut" d="M155.5 602.5l102 117h129l-114-117h-117zM353 602.5l102.5 117h151l-138.5-117h-115zM565.5 537.5v-524.5h-168.5v60.5h-6q-24-31-66-50.75t-97-19.75q-82 0-131.5 51.5t-49.5 141v342h169.5v-300q0-62 21.5-88.25t62.5-26.25q44 0 68.5 31.5t24.5 106v277h172z" />
<glyph unicode="&#x172;" glyph-name="Uogonek" horiz-adv-x="706" d="M471.5 719.5h176.5v-428q0-183.5-123.5-251-65-50.5-65-90 0-16 9.75-24.5t25.25-8.5q24.5 0 47 19.5v-101q-26-9.5-54-9.5-21.5 0-41.75 5.5t-39.25 17.5-30.5 34.75-11.5 53.75q0 35.5 17 66-20-1-31-1-147.5 0-220.25 73.75t-72.75 209.75v433h177v-438.5q0-56 30-86.5t86-30.5q57.5 0 89.25 30.5t31.75 86.5v438.5z" />
<glyph unicode="&#x173;" glyph-name="uogonek" d="M565.5 13q-102.5-68-102.5-117 0-16 9.75-24.5t25.25-8.5q24.5 0 47 19.5v-101q-26-9.5-54-9.5-21.5 0-41.75 5.5t-39.25 17.5-30.5 34.75-11.5 53.75q0 76 81 129.5h-52v60.5h-6q-24-31-66-50.75t-97-19.75q-82 0-131.5 51.5t-49.5 141v342h169.5v-300q0-62 21.5-88.25t62.5-26.25q44 0 68.5 31.5t24.5 106v277h172v-524.5z" />
<glyph unicode="&#x174;" glyph-name="Wcircumflex" horiz-adv-x="1029" d="M354.5 784.5l107.5 117h101l108-117h-116.5l-42.5 48-42.5-48h-115zM153.5 13l-139.5 706.5h187.5l95-559.5h7l113 559.5h196.5l113-559.5h6l95 559.5h187.5l-140.5-706.5h-260l-101.5 505-98-505h-261z" />
<glyph unicode="&#x175;" glyph-name="wcircumflex" horiz-adv-x="901" d="M449.5 650.5l-42.5-48h-115l107.5 117h101l108-117h-116.5zM719.5 537.5h181.5l-144-524.5h-231l-77.5 307-74.5-310.5h-231l-142.5 528h182l85-396.5 103.5 396.5h157.5l103-399z" />
<glyph unicode="&#x176;" glyph-name="Ycircumflex" horiz-adv-x="703" d="M192.5 783l107.5 117h101l108-117h-116.5l-42.5 48-42.5-48h-115zM263 13v275l-266 431.5h198.5l160.5-278 151.5 278h198l-265.5-431.5v-275h-177z" />
<glyph unicode="&#x177;" glyph-name="ycircumflex" horiz-adv-x="553" d="M119.5 602.5l107.5 117h101l108-117h-116.5l-42.5 48-42.5-48h-115zM27-169.5v124.5h79q46.5 0 67 28t0 81.5l-180.5 473h183l95-326h9l97 326h184l-204.5-529.5q-26.5-68-54.75-104.5t-74.75-54.75-120.5-18.25h-79z" />
<glyph unicode="&#x178;" glyph-name="Ydieresis" horiz-adv-x="703" d="M189 787v113h128.5v-113h-128.5zM383.5 787v113h129v-113h-129zM263 13v275l-266 431.5h198.5l160.5-278 151.5 278h198l-265.5-431.5v-275h-177z" />
<glyph unicode="&#x179;" glyph-name="Zacute" horiz-adv-x="632" d="M501 900l-130-117h-119l93.5 117h155.5zM599 719.5v-121.5l-331.5-436.5h331.5v-148.5h-570.5v113l345.5 445h-334v148.5h559z" />
<glyph unicode="&#x17a;" glyph-name="zacute" horiz-adv-x="488" d="M438 719.5l-130-117h-119l93.5 117h155.5zM230 138h228v-125h-427.5v119l236 281.5h-238v124h429v-125.5z" />
<glyph unicode="&#x17b;" glyph-name="Zdotaccent" horiz-adv-x="632" d="M393 900v-113h-173v113h173zM599 719.5v-121.5l-331.5-436.5h331.5v-148.5h-570.5v113l345.5 445h-334v148.5h559z" />
<glyph unicode="&#x17c;" glyph-name="zdotaccent" horiz-adv-x="488" d="M330 719.5v-113h-173v113h173zM230 138h228v-125h-427.5v119l236 281.5h-238v124h429v-125.5z" />
<glyph unicode="&#x17d;" glyph-name="Zcaron" horiz-adv-x="632" d="M357 783h-101l-111 117h117l44-47 44.5 47h117.5zM599 719.5v-121.5l-331.5-436.5h331.5v-148.5h-570.5v113l345.5 445h-334v148.5h559z" />
<glyph unicode="&#x17e;" glyph-name="zcaron" horiz-adv-x="488" d="M294 602.5h-101l-111 117h117l44-47 44.5 47h117.5zM230 138h228v-125h-427.5v119l236 281.5h-238v124h429v-125.5z" />
<glyph unicode="&#x192;" glyph-name="florin" horiz-adv-x="442" d="M37-209v137.5q53.5 0 75.75 18.75t22.25 65.75v426.5h-81v98h83v35q0 67.5 44.5 107.25t134.5 39.75h90v-111.5h-49q-29.5 0-39.75-14.75t-10.25-42.75v-13h99v-98h-99v-426.5q0-59.5-20.25-103.25t-57.5-69.25-84.75-37.5-107.5-12z" />
<glyph unicode="&#x218;" glyph-name="Scommaaccent" horiz-adv-x="631" d="M320 5q-44.5 0-83.75 6.75t-78 24-66.5 44.5-44.75 71-17 100.25h173.5q3-55 36.25-81.25t86.25-26.25q46.5 0 72.75 18.5t26.25 51.5q0 18-8.25 32t-21.75 23.5-34 17.25-41 13-47.5 11.25q-6 1.5-9.5 2-28 6.5-45.75 11.5t-43.5 14.25-42.5 18.75-35.5 25-29.5 33.5-18 43-7.25 55q0 102.5 71.75 159.25t190.25 56.75q37.5 0 72.75-5.75t72.5-21.25 64.75-39.5 45.25-64.25 18.25-91.75h-168.5q-0.5 45.5-27.5 69.75t-76.5 24.25q-43.5 0-67-17.25t-23.5-47.25q0-12.5 4.75-22.25t14-17.25 21.25-13.25 28-10.5 32.25-8.75 36.25-8.5q6-1.5 9.5-2 30-6.5 48.75-11t47.25-14 46.75-19.75 39.25-27 33.25-36.75 20.5-48.25 8.25-62.25q0-106-73.25-168.25t-210.25-62.25zM150.5-202l72 151h157.5l-138-151h-91.5z" />
<glyph unicode="&#x219;" glyph-name="scommaaccent" horiz-adv-x="539" d="M279 2.5q-30 0-57.75 3.25t-57.5 10.75-54 21.5-43.75 33.75-30.5 49.25-11 66.5h168.5q1-44 23.5-61.25t63-17.25q35.5 0 55 13t19.5 45.5q0 16-8 27t-28 18.25-34.75 10.25-46.25 8q-4 0.5-6.75 1t-5.75 1q-24 3.5-39.75 6.5t-38.25 9-37.5 13.25-31.5 19.25-26 27-16 36.75-6.5 47.75q0 34 12.25 61t33 44.25 50.25 28.75 62 16.25 70.5 4.75q110.5 0 174.25-41.25t67.75-126.25h-162.5q0 65.5-78 65.5-32 0-50-11.75t-18-33.75q0-9.5 3.5-17.25t12.25-13.5 16.5-9.5 23.25-7.5 25.25-5.5l29.25-5.25h1.5l1-0.5q84-11.5 122-27.5 91-42 93-144.5 0-46-19.25-79.25t-53.75-51.75-75.5-27-90.5-8.5zM133-203.5l72 151h157.5l-138-151h-91.5z" />
<glyph unicode="&#x21a;" glyph-name="uni021A" horiz-adv-x="606" d="M213 13v558.5h-202.5v148h584v-148h-204.5v-558.5h-177zM147.5-203.5l72 151h157.5l-138-151h-91.5z" />
<glyph unicode="&#x21b;" glyph-name="uni021B" horiz-adv-x="372" d="M218.5 13q-74 0-109.25 38.5t-35.25 118v270h-70v98h70v124l171 27.5v-151.5h103v-98h-103v-235.5q0-42 11.5-54.5t49-12.5h42.5v-124h-129.5zM87-203.5l72 151h157.5l-138-151h-91.5z" />
<glyph unicode="&#x237;" glyph-name="uni0237" horiz-adv-x="289" d="M-29-169.5v124.5q44 0 65.5 22.25t21.5 56.75v503.5h172v-491.5q0-110-62.25-162.75t-196.75-52.75z" />
<glyph unicode="&#x2c6;" glyph-name="circumflex" horiz-adv-x="335" d="M9 602.5l107.5 117h101l108-117h-116.5l-42.5 48-42.5-48h-115z" />
<glyph unicode="&#x2c7;" glyph-name="caron" horiz-adv-x="341" d="M120 602.5l-111 117h117l44-47 44.5 47h117.5l-111-117h-101z" />
<glyph unicode="&#x2d8;" glyph-name="breve" horiz-adv-x="343" d="M169 592.5q-63.5 0-101 33.25t-37.5 93.75h87.5q0-26.5 14-40.25t37-13.75q24 0 37.75 13.75t13.75 40.25h91q0-60.5-38.5-93.75t-104-33.25z" />
<glyph unicode="&#x2d9;" glyph-name="dotaccent" horiz-adv-x="284" d="M56 606.5v113h173v-113h-173z" />
<glyph unicode="&#x2da;" glyph-name="ring" horiz-adv-x="288" d="M144 572q-48 0-81 33.25t-33 81.25q0 47 33.25 79.75t80.75 32.75q47 0 80.25-32.75t33.25-79.75q0-47.5-33.25-81t-80.25-33.5zM144 648.5q15.5 0 26.75 11t11.25 26q0 15.5-11 26.75t-27 11.25q-17.5 0-27.25-10t-9.75-28q0-17 10.25-27t26.75-10z" />
<glyph unicode="&#x2db;" glyph-name="ogonek" horiz-adv-x="258" d="M151.5-228q-21.5 0-41.75 5.5t-39.25 17.5-30.5 34.75-11.5 53.75q0 13.5 2.5 26.5t7.5 23.75 10 20 13 18 13.75 14.75 14.75 12.75 13.25 9.75 12.25 8 9 5.5l101.5-9.5q-102.5-68-102.5-117 0-16 9.75-24.5t25.25-8.5q24.5 0 47 19.5v-101q-26-9.5-54-9.5z" />
<glyph unicode="&#x2dc;" glyph-name="tilde" horiz-adv-x="382" d="M258 602q-22.5 0-42.25 7.75t-31.25 17-25.5 17-26.5 7.75q-25.5 0-27-49h-64.5q0 65 21.25 92t63.25 27q23 0 42.75-7.25t30.75-16.25 25-16.25 27-7.25q15.5 0 22.25 10.75t6.75 34.25h60.5q0-61-20-89.25t-62.5-28.25z" />
<glyph unicode="&#x2dd;" glyph-name="hungarumlaut" horiz-adv-x="469" d="M10 602.5l102 117h129l-114-117h-117zM207.5 602.5l102.5 117h151l-138.5-117h-115z" />
<glyph unicode="&#x300;" glyph-name="gravecomb" horiz-adv-x="0" d="M-13 602.5h-119.5l-129.5 117h155.5z" />
<glyph unicode="&#x301;" glyph-name="acutecomb" horiz-adv-x="0" d="M-257 602.5l93.5 117h155.5l-130-117h-119z" />
<glyph unicode="&#x302;" glyph-name="uni0302" horiz-adv-x="0" d="M-325.5 602.5l107.5 117h101l108-117h-116.5l-42.5 48-42.5-48h-115z" />
<glyph unicode="&#x303;" glyph-name="tildecomb" horiz-adv-x="0" d="M-123.5 602q-22.5 0-42.25 7.75t-31.25 17-25.5 17-26.5 7.75q-25.5 0-27-49h-64.5q0 65 21.25 92t63.25 27q23 0 42.75-7.25t30.75-16.25 25-16.25 27-7.25q15.5 0 22.25 10.75t6.75 34.25h60.5q0-61-20-89.25t-62.5-28.25z" />
<glyph unicode="&#x304;" glyph-name="uni0304" horiz-adv-x="0" d="M-405.5 603v105.5h350v-105.5h-350z" />
<glyph unicode="&#x306;" glyph-name="uni0306" horiz-adv-x="0" d="M-173.5 592.5q-63.5 0-101 33.25t-37.5 93.75h87.5q0-26.5 13.75-40.25t37.25-13.75q24 0 37.75 13.75t13.75 40.25h91q0-60.5-38.5-93.75t-104-33.25z" />
<glyph unicode="&#x307;" glyph-name="uni0307" horiz-adv-x="0" d="M-229 606.5v113h173v-113h-173z" />
<glyph unicode="&#x308;" glyph-name="uni0308" horiz-adv-x="0" d="M-379 606.5v113h128.5v-113h-128.5zM-184.5 606.5v113h129v-113h-129z" />
<glyph unicode="&#x30a;" glyph-name="uni030A" horiz-adv-x="0" d="M-144 572q-48 0-81 33.25t-33 81.25q0 47 33.25 79.75t80.75 32.75q47 0 80.25-32.75t33.25-79.75q0-47.5-33.25-81t-80.25-33.5zM-144 648.5q15.5 0 26.75 11t11.25 26q0 15.5-11 26.75t-27 11.25q-17.5 0-27.25-10t-9.75-28q0-17 10.25-27t26.75-10z" />
<glyph unicode="&#x30b;" glyph-name="uni030B" horiz-adv-x="0" d="M-459 602.5l102 117h129l-114-117h-117zM-261.5 602.5l102.5 117h151l-138.5-117h-115z" />
<glyph unicode="&#x30c;" glyph-name="uni030C" horiz-adv-x="0" d="M-221 602.5l-111 117h117l44-47 44.5 47h117.5l-111-117h-101z" />
<glyph unicode="&#x312;" glyph-name="uni0312" horiz-adv-x="0" d="M-209.5 602.5l96.5 117h83l-55-117h-124.5z" />
<glyph unicode="&#x326;" glyph-name="uni0326" horiz-adv-x="0" d="M-232.5-203.5l72 151h157.5l-138-151h-91.5z" />
<glyph unicode="&#x327;" glyph-name="uni0327" horiz-adv-x="0" d="M-138-237q-44.5 0-78.25 20.75t-47.25 54.25l77 35q4.5-14.5 15.75-22.25t25.25-7.75q15 0 25.25 8.5t10.25 21.5q0 5.5-1.5 10t-5.5 8.25-8 7-11.5 6.5-13.75 5.5-16.75 5.25-18 5-20.75 5.5-22.25 6l62.5 100.5h96.5l-50-72.5q43-10.5 68.75-32.25t25.75-64.25q0-50-32.75-75.25t-80.75-25.25z" />
<glyph unicode="&#x328;" glyph-name="uni0328" horiz-adv-x="0" d="M-106-228q-21.5 0-41.75 5.5t-39.25 17.5-30.5 34.75-11.5 53.75q0 13.5 2.5 26.5t7.5 23.75 10 20 13 18 13.75 14.75 14.75 12.75 13.25 9.75 12.25 8 9 5.5l101.5-9.5q-102.5-68-102.5-117 0-16 9.75-24.5t25.25-8.5q24.5 0 47 19.5v-101q-26-9.5-54-9.5z" />
<glyph unicode="&#x3c0;" glyph-name="pi" horiz-adv-x="599" d="M487.5 3q-63 0-95 33.5t-32 113.5v249h-148v-386h-138v386h-53v138.5h536.5v-138.5h-59.5v-239q0-14.5 7-21.5t17.5-7q15.5 0 26 13.5l41.5-114.5q-26.5-17.5-50-22.5t-53-5z" />
<glyph unicode="&#x1e80;" glyph-name="Wgrave" horiz-adv-x="1029" d="M567 784.5h-119.5l-129.5 117h155.5zM153.5 13l-139.5 706.5h187.5l95-559.5h7l113 559.5h196.5l113-559.5h6l95 559.5h187.5l-140.5-706.5h-260l-101.5 505-98-505h-261z" />
<glyph unicode="&#x1e81;" glyph-name="wgrave" horiz-adv-x="901" d="M504.5 602.5h-119.5l-129.5 117h155.5zM719.5 537.5h181.5l-144-524.5h-231l-77.5 307-74.5-310.5h-231l-142.5 528h182l85-396.5 103.5 396.5h157.5l103-399z" />
<glyph unicode="&#x1e82;" glyph-name="Wacute" horiz-adv-x="1029" d="M458 784.5l93.5 117h155.5l-130-117h-119zM153.5 13l-139.5 706.5h187.5l95-559.5h7l113 559.5h196.5l113-559.5h6l95 559.5h187.5l-140.5-706.5h-260l-101.5 505-98-505h-261z" />
</font>
</defs>
</svg>
