<?xml version="1.0" encoding="utf-8"?>
<!-- Generator: Adobe Illustrator 23.0.1, SVG Export Plug-In . SVG Version: 6.00 Build 0)  -->
<svg version="1.1" id="Layer_1" xmlns="http://www.w3.org/2000/svg" xmlns:xlink="http://www.w3.org/1999/xlink" x="0px" y="0px"
	 viewBox="0 0 200 130" style="enable-background:new 0 0 200 130;" xml:space="preserve">
<style type="text/css">
	.st0{fill:url(#SVGID_1_);}
	.st1{fill:url(#SVGID_2_);}
	.st2{fill:url(#SVGID_3_);}
	.st3{fill:url(#SVGID_4_);}
	.st4{fill:url(#SVGID_5_);}
	.st5{fill:url(#SVGID_6_);}
	.st6{fill:url(#SVGID_7_);}
	.st7{fill:url(#SVGID_8_);}
	.st8{fill:url(#SVGID_9_);}
	.st9{fill:url(#SVGID_10_);}
	.st10{fill:url(#SVGID_11_);}
	.st11{fill:url(#SVGID_12_);}
	.st12{fill:url(#SVGID_13_);}
	.st13{fill:url(#SVGID_14_);}
</style>
<title>FSC_ICONS</title>
<linearGradient id="SVGID_1_" gradientUnits="userSpaceOnUse" x1="-164.7628" y1="585.4979" x2="-163.8238" y2="585.4979" gradientTransform="matrix(212.983 0 0 -212.983 35092.1875 124743.6563)">
	<stop  offset="0" style="stop-color:#774619"/>
	<stop  offset="6.624680e-02" style="stop-color:#B28727"/>
	<stop  offset="0.1545" style="stop-color:#B28727"/>
	<stop  offset="0.2989" style="stop-color:#F4C283"/>
	<stop  offset="0.36" style="stop-color:#EAC57A"/>
	<stop  offset="0.4303" style="stop-color:#E5C775"/>
	<stop  offset="0.4892" style="stop-color:#996C24"/>
	<stop  offset="0.6051" style="stop-color:#996C24"/>
	<stop  offset="0.6051" style="stop-color:#996C24"/>
	<stop  offset="0.6161" style="stop-color:#B68B3D"/>
	<stop  offset="0.6268" style="stop-color:#CAA04F"/>
	<stop  offset="0.6372" style="stop-color:#D7AE5A"/>
	<stop  offset="0.6466" style="stop-color:#DBB25E"/>
	<stop  offset="0.6494" style="stop-color:#D6AB59"/>
	<stop  offset="0.6649" style="stop-color:#BF8943"/>
	<stop  offset="0.6796" style="stop-color:#AE7132"/>
	<stop  offset="0.6931" style="stop-color:#A46228"/>
	<stop  offset="0.7043" style="stop-color:#A05D25"/>
	<stop  offset="0.7149" style="stop-color:#A6652D"/>
	<stop  offset="0.7311" style="stop-color:#B57A41"/>
	<stop  offset="0.751" style="stop-color:#CF9D63"/>
	<stop  offset="0.7735" style="stop-color:#F1CD92"/>
	<stop  offset="0.7756" style="stop-color:#F5D297"/>
	<stop  offset="0.8468" style="stop-color:#DEB763"/>
	<stop  offset="0.8861" style="stop-color:#B38D42"/>
	<stop  offset="0.9116" style="stop-color:#B28C42"/>
	<stop  offset="0.9134" style="stop-color:#B48E41"/>
	<stop  offset="0.9237" style="stop-color:#BB933C"/>
	<stop  offset="0.9509" style="stop-color:#BD943B"/>
	<stop  offset="1" style="stop-color:#774619"/>
</linearGradient>
<polyline class="st0" points="0.5,41.2 38.2,41.2 38.2,43.9 0.5,43.9 "/>
<linearGradient id="SVGID_2_" gradientUnits="userSpaceOnUse" x1="-164.7628" y1="585.4435" x2="-163.8238" y2="585.4435" gradientTransform="matrix(212.983 0 0 -212.983 35092.1875 124743.6563)">
	<stop  offset="0" style="stop-color:#774619"/>
	<stop  offset="6.624680e-02" style="stop-color:#B28727"/>
	<stop  offset="0.1545" style="stop-color:#B28727"/>
	<stop  offset="0.2989" style="stop-color:#F4C283"/>
	<stop  offset="0.36" style="stop-color:#EAC57A"/>
	<stop  offset="0.4303" style="stop-color:#E5C775"/>
	<stop  offset="0.4892" style="stop-color:#996C24"/>
	<stop  offset="0.6051" style="stop-color:#996C24"/>
	<stop  offset="0.6051" style="stop-color:#996C24"/>
	<stop  offset="0.6161" style="stop-color:#B68B3D"/>
	<stop  offset="0.6268" style="stop-color:#CAA04F"/>
	<stop  offset="0.6372" style="stop-color:#D7AE5A"/>
	<stop  offset="0.6466" style="stop-color:#DBB25E"/>
	<stop  offset="0.6494" style="stop-color:#D6AB59"/>
	<stop  offset="0.6649" style="stop-color:#BF8943"/>
	<stop  offset="0.6796" style="stop-color:#AE7132"/>
	<stop  offset="0.6931" style="stop-color:#A46228"/>
	<stop  offset="0.7043" style="stop-color:#A05D25"/>
	<stop  offset="0.7149" style="stop-color:#A6652D"/>
	<stop  offset="0.7311" style="stop-color:#B57A41"/>
	<stop  offset="0.751" style="stop-color:#CF9D63"/>
	<stop  offset="0.7735" style="stop-color:#F1CD92"/>
	<stop  offset="0.7756" style="stop-color:#F5D297"/>
	<stop  offset="0.8468" style="stop-color:#DEB763"/>
	<stop  offset="0.8861" style="stop-color:#B38D42"/>
	<stop  offset="0.9116" style="stop-color:#B28C42"/>
	<stop  offset="0.9134" style="stop-color:#B48E41"/>
	<stop  offset="0.9237" style="stop-color:#BB933C"/>
	<stop  offset="0.9509" style="stop-color:#BD943B"/>
	<stop  offset="1" style="stop-color:#774619"/>
</linearGradient>
<polyline class="st1" points="0.5,64.4 0.5,43.9 3.1,43.9 3.1,64.4 "/>
<linearGradient id="SVGID_3_" gradientUnits="userSpaceOnUse" x1="-164.7628" y1="585.3472" x2="-163.8238" y2="585.3472" gradientTransform="matrix(212.983 0 0 -212.983 35092.1875 124743.6563)">
	<stop  offset="0" style="stop-color:#774619"/>
	<stop  offset="6.624680e-02" style="stop-color:#B28727"/>
	<stop  offset="0.1545" style="stop-color:#B28727"/>
	<stop  offset="0.2989" style="stop-color:#F4C283"/>
	<stop  offset="0.36" style="stop-color:#EAC57A"/>
	<stop  offset="0.4303" style="stop-color:#E5C775"/>
	<stop  offset="0.4892" style="stop-color:#996C24"/>
	<stop  offset="0.6051" style="stop-color:#996C24"/>
	<stop  offset="0.6051" style="stop-color:#996C24"/>
	<stop  offset="0.6161" style="stop-color:#B68B3D"/>
	<stop  offset="0.6268" style="stop-color:#CAA04F"/>
	<stop  offset="0.6372" style="stop-color:#D7AE5A"/>
	<stop  offset="0.6466" style="stop-color:#DBB25E"/>
	<stop  offset="0.6494" style="stop-color:#D6AB59"/>
	<stop  offset="0.6649" style="stop-color:#BF8943"/>
	<stop  offset="0.6796" style="stop-color:#AE7132"/>
	<stop  offset="0.6931" style="stop-color:#A46228"/>
	<stop  offset="0.7043" style="stop-color:#A05D25"/>
	<stop  offset="0.7149" style="stop-color:#A6652D"/>
	<stop  offset="0.7311" style="stop-color:#B57A41"/>
	<stop  offset="0.751" style="stop-color:#CF9D63"/>
	<stop  offset="0.7735" style="stop-color:#F1CD92"/>
	<stop  offset="0.7756" style="stop-color:#F5D297"/>
	<stop  offset="0.8468" style="stop-color:#DEB763"/>
	<stop  offset="0.8861" style="stop-color:#B38D42"/>
	<stop  offset="0.9116" style="stop-color:#B28C42"/>
	<stop  offset="0.9134" style="stop-color:#B48E41"/>
	<stop  offset="0.9237" style="stop-color:#BB933C"/>
	<stop  offset="0.9509" style="stop-color:#BD943B"/>
	<stop  offset="1" style="stop-color:#774619"/>
</linearGradient>
<polyline class="st2" points="0.5,84.9 0.5,64.4 3.1,64.4 3.1,84.9 "/>
<linearGradient id="SVGID_4_" gradientUnits="userSpaceOnUse" x1="-164.7628" y1="585.2928" x2="-163.8238" y2="585.2928" gradientTransform="matrix(212.983 0 0 -212.983 35092.1875 124743.6563)">
	<stop  offset="0" style="stop-color:#774619"/>
	<stop  offset="6.624680e-02" style="stop-color:#B28727"/>
	<stop  offset="0.1545" style="stop-color:#B28727"/>
	<stop  offset="0.2989" style="stop-color:#F4C283"/>
	<stop  offset="0.36" style="stop-color:#EAC57A"/>
	<stop  offset="0.4303" style="stop-color:#E5C775"/>
	<stop  offset="0.4892" style="stop-color:#996C24"/>
	<stop  offset="0.6051" style="stop-color:#996C24"/>
	<stop  offset="0.6051" style="stop-color:#996C24"/>
	<stop  offset="0.6161" style="stop-color:#B68B3D"/>
	<stop  offset="0.6268" style="stop-color:#CAA04F"/>
	<stop  offset="0.6372" style="stop-color:#D7AE5A"/>
	<stop  offset="0.6466" style="stop-color:#DBB25E"/>
	<stop  offset="0.6494" style="stop-color:#D6AB59"/>
	<stop  offset="0.6649" style="stop-color:#BF8943"/>
	<stop  offset="0.6796" style="stop-color:#AE7132"/>
	<stop  offset="0.6931" style="stop-color:#A46228"/>
	<stop  offset="0.7043" style="stop-color:#A05D25"/>
	<stop  offset="0.7149" style="stop-color:#A6652D"/>
	<stop  offset="0.7311" style="stop-color:#B57A41"/>
	<stop  offset="0.751" style="stop-color:#CF9D63"/>
	<stop  offset="0.7735" style="stop-color:#F1CD92"/>
	<stop  offset="0.7756" style="stop-color:#F5D297"/>
	<stop  offset="0.8468" style="stop-color:#DEB763"/>
	<stop  offset="0.8861" style="stop-color:#B38D42"/>
	<stop  offset="0.9116" style="stop-color:#B28C42"/>
	<stop  offset="0.9134" style="stop-color:#B48E41"/>
	<stop  offset="0.9237" style="stop-color:#BB933C"/>
	<stop  offset="0.9509" style="stop-color:#BD943B"/>
	<stop  offset="1" style="stop-color:#774619"/>
</linearGradient>
<polyline class="st3" points="0.5,84.9 38.2,84.9 38.2,87.6 0.5,87.6 "/>
<linearGradient id="SVGID_5_" gradientUnits="userSpaceOnUse" x1="-164.7628" y1="585.4979" x2="-163.8238" y2="585.4979" gradientTransform="matrix(212.983 0 0 -212.983 35092.1875 124743.6563)">
	<stop  offset="0" style="stop-color:#774619"/>
	<stop  offset="6.624680e-02" style="stop-color:#B28727"/>
	<stop  offset="0.1545" style="stop-color:#B28727"/>
	<stop  offset="0.2989" style="stop-color:#F4C283"/>
	<stop  offset="0.36" style="stop-color:#EAC57A"/>
	<stop  offset="0.4303" style="stop-color:#E5C775"/>
	<stop  offset="0.4892" style="stop-color:#996C24"/>
	<stop  offset="0.6051" style="stop-color:#996C24"/>
	<stop  offset="0.6051" style="stop-color:#996C24"/>
	<stop  offset="0.6161" style="stop-color:#B68B3D"/>
	<stop  offset="0.6268" style="stop-color:#CAA04F"/>
	<stop  offset="0.6372" style="stop-color:#D7AE5A"/>
	<stop  offset="0.6466" style="stop-color:#DBB25E"/>
	<stop  offset="0.6494" style="stop-color:#D6AB59"/>
	<stop  offset="0.6649" style="stop-color:#BF8943"/>
	<stop  offset="0.6796" style="stop-color:#AE7132"/>
	<stop  offset="0.6931" style="stop-color:#A46228"/>
	<stop  offset="0.7043" style="stop-color:#A05D25"/>
	<stop  offset="0.7149" style="stop-color:#A6652D"/>
	<stop  offset="0.7311" style="stop-color:#B57A41"/>
	<stop  offset="0.751" style="stop-color:#CF9D63"/>
	<stop  offset="0.7735" style="stop-color:#F1CD92"/>
	<stop  offset="0.7756" style="stop-color:#F5D297"/>
	<stop  offset="0.8468" style="stop-color:#DEB763"/>
	<stop  offset="0.8861" style="stop-color:#B38D42"/>
	<stop  offset="0.9116" style="stop-color:#B28C42"/>
	<stop  offset="0.9134" style="stop-color:#B48E41"/>
	<stop  offset="0.9237" style="stop-color:#BB933C"/>
	<stop  offset="0.9509" style="stop-color:#BD943B"/>
	<stop  offset="1" style="stop-color:#774619"/>
</linearGradient>
<polyline class="st4" points="38.2,41.2 200.5,41.2 200.5,43.9 38.2,43.9 "/>
<linearGradient id="SVGID_6_" gradientUnits="userSpaceOnUse" x1="-164.7628" y1="585.4467" x2="-163.8238" y2="585.4467" gradientTransform="matrix(212.983 0 0 -212.983 35092.1875 124743.6563)">
	<stop  offset="0" style="stop-color:#774619"/>
	<stop  offset="6.624680e-02" style="stop-color:#B28727"/>
	<stop  offset="0.1545" style="stop-color:#B28727"/>
	<stop  offset="0.2989" style="stop-color:#F4C283"/>
	<stop  offset="0.36" style="stop-color:#EAC57A"/>
	<stop  offset="0.4303" style="stop-color:#E5C775"/>
	<stop  offset="0.4892" style="stop-color:#996C24"/>
	<stop  offset="0.6051" style="stop-color:#996C24"/>
	<stop  offset="0.6051" style="stop-color:#996C24"/>
	<stop  offset="0.6161" style="stop-color:#B68B3D"/>
	<stop  offset="0.6268" style="stop-color:#CAA04F"/>
	<stop  offset="0.6372" style="stop-color:#D7AE5A"/>
	<stop  offset="0.6466" style="stop-color:#DBB25E"/>
	<stop  offset="0.6494" style="stop-color:#D6AB59"/>
	<stop  offset="0.6649" style="stop-color:#BF8943"/>
	<stop  offset="0.6796" style="stop-color:#AE7132"/>
	<stop  offset="0.6931" style="stop-color:#A46228"/>
	<stop  offset="0.7043" style="stop-color:#A05D25"/>
	<stop  offset="0.7149" style="stop-color:#A6652D"/>
	<stop  offset="0.7311" style="stop-color:#B57A41"/>
	<stop  offset="0.751" style="stop-color:#CF9D63"/>
	<stop  offset="0.7735" style="stop-color:#F1CD92"/>
	<stop  offset="0.7756" style="stop-color:#F5D297"/>
	<stop  offset="0.8468" style="stop-color:#DEB763"/>
	<stop  offset="0.8861" style="stop-color:#B38D42"/>
	<stop  offset="0.9116" style="stop-color:#B28C42"/>
	<stop  offset="0.9134" style="stop-color:#B48E41"/>
	<stop  offset="0.9237" style="stop-color:#BB933C"/>
	<stop  offset="0.9509" style="stop-color:#BD943B"/>
	<stop  offset="1" style="stop-color:#774619"/>
</linearGradient>
<polyline class="st5" points="36.9,63.1 36.9,43.9 39.5,43.9 39.5,63.1 "/>
<linearGradient id="SVGID_7_" gradientUnits="userSpaceOnUse" x1="-164.7628" y1="585.4467" x2="-163.8238" y2="585.4467" gradientTransform="matrix(212.983 0 0 -212.983 35092.1875 124743.6563)">
	<stop  offset="0" style="stop-color:#774619"/>
	<stop  offset="6.624680e-02" style="stop-color:#B28727"/>
	<stop  offset="0.1545" style="stop-color:#B28727"/>
	<stop  offset="0.2989" style="stop-color:#F4C283"/>
	<stop  offset="0.36" style="stop-color:#EAC57A"/>
	<stop  offset="0.4303" style="stop-color:#E5C775"/>
	<stop  offset="0.4892" style="stop-color:#996C24"/>
	<stop  offset="0.6051" style="stop-color:#996C24"/>
	<stop  offset="0.6051" style="stop-color:#996C24"/>
	<stop  offset="0.6161" style="stop-color:#B68B3D"/>
	<stop  offset="0.6268" style="stop-color:#CAA04F"/>
	<stop  offset="0.6372" style="stop-color:#D7AE5A"/>
	<stop  offset="0.6466" style="stop-color:#DBB25E"/>
	<stop  offset="0.6494" style="stop-color:#D6AB59"/>
	<stop  offset="0.6649" style="stop-color:#BF8943"/>
	<stop  offset="0.6796" style="stop-color:#AE7132"/>
	<stop  offset="0.6931" style="stop-color:#A46228"/>
	<stop  offset="0.7043" style="stop-color:#A05D25"/>
	<stop  offset="0.7149" style="stop-color:#A6652D"/>
	<stop  offset="0.7311" style="stop-color:#B57A41"/>
	<stop  offset="0.751" style="stop-color:#CF9D63"/>
	<stop  offset="0.7735" style="stop-color:#F1CD92"/>
	<stop  offset="0.7756" style="stop-color:#F5D297"/>
	<stop  offset="0.8468" style="stop-color:#DEB763"/>
	<stop  offset="0.8861" style="stop-color:#B38D42"/>
	<stop  offset="0.9116" style="stop-color:#B28C42"/>
	<stop  offset="0.9134" style="stop-color:#B48E41"/>
	<stop  offset="0.9237" style="stop-color:#BB933C"/>
	<stop  offset="0.9509" style="stop-color:#BD943B"/>
	<stop  offset="1" style="stop-color:#774619"/>
</linearGradient>
<polyline class="st6" points="197.9,63.1 197.9,43.9 200.5,43.9 200.5,63.1 "/>
<linearGradient id="SVGID_8_" gradientUnits="userSpaceOnUse" x1="-164.7628" y1="585.3954" x2="-163.8238" y2="585.3954" gradientTransform="matrix(212.983 0 0 -212.983 35092.1875 124743.6563)">
	<stop  offset="0" style="stop-color:#774619"/>
	<stop  offset="6.624680e-02" style="stop-color:#B28727"/>
	<stop  offset="0.1545" style="stop-color:#B28727"/>
	<stop  offset="0.2989" style="stop-color:#F4C283"/>
	<stop  offset="0.36" style="stop-color:#EAC57A"/>
	<stop  offset="0.4303" style="stop-color:#E5C775"/>
	<stop  offset="0.4892" style="stop-color:#996C24"/>
	<stop  offset="0.6051" style="stop-color:#996C24"/>
	<stop  offset="0.6051" style="stop-color:#996C24"/>
	<stop  offset="0.6161" style="stop-color:#B68B3D"/>
	<stop  offset="0.6268" style="stop-color:#CAA04F"/>
	<stop  offset="0.6372" style="stop-color:#D7AE5A"/>
	<stop  offset="0.6466" style="stop-color:#DBB25E"/>
	<stop  offset="0.6494" style="stop-color:#D6AB59"/>
	<stop  offset="0.6649" style="stop-color:#BF8943"/>
	<stop  offset="0.6796" style="stop-color:#AE7132"/>
	<stop  offset="0.6931" style="stop-color:#A46228"/>
	<stop  offset="0.7043" style="stop-color:#A05D25"/>
	<stop  offset="0.7149" style="stop-color:#A6652D"/>
	<stop  offset="0.7311" style="stop-color:#B57A41"/>
	<stop  offset="0.751" style="stop-color:#CF9D63"/>
	<stop  offset="0.7735" style="stop-color:#F1CD92"/>
	<stop  offset="0.7756" style="stop-color:#F5D297"/>
	<stop  offset="0.8468" style="stop-color:#DEB763"/>
	<stop  offset="0.8861" style="stop-color:#B38D42"/>
	<stop  offset="0.9116" style="stop-color:#B28C42"/>
	<stop  offset="0.9134" style="stop-color:#B48E41"/>
	<stop  offset="0.9237" style="stop-color:#BB933C"/>
	<stop  offset="0.9509" style="stop-color:#BD943B"/>
	<stop  offset="1" style="stop-color:#774619"/>
</linearGradient>
<polyline class="st7" points="36.9,63.1 200.5,63.1 200.5,65.7 36.9,65.7 "/>
<linearGradient id="SVGID_9_" gradientUnits="userSpaceOnUse" x1="-164.7628" y1="585.3441" x2="-163.8238" y2="585.3441" gradientTransform="matrix(212.983 0 0 -212.983 35092.1875 124743.6563)">
	<stop  offset="0" style="stop-color:#774619"/>
	<stop  offset="6.624680e-02" style="stop-color:#B28727"/>
	<stop  offset="0.1545" style="stop-color:#B28727"/>
	<stop  offset="0.2989" style="stop-color:#F4C283"/>
	<stop  offset="0.36" style="stop-color:#EAC57A"/>
	<stop  offset="0.4303" style="stop-color:#E5C775"/>
	<stop  offset="0.4892" style="stop-color:#996C24"/>
	<stop  offset="0.6051" style="stop-color:#996C24"/>
	<stop  offset="0.6051" style="stop-color:#996C24"/>
	<stop  offset="0.6161" style="stop-color:#B68B3D"/>
	<stop  offset="0.6268" style="stop-color:#CAA04F"/>
	<stop  offset="0.6372" style="stop-color:#D7AE5A"/>
	<stop  offset="0.6466" style="stop-color:#DBB25E"/>
	<stop  offset="0.6494" style="stop-color:#D6AB59"/>
	<stop  offset="0.6649" style="stop-color:#BF8943"/>
	<stop  offset="0.6796" style="stop-color:#AE7132"/>
	<stop  offset="0.6931" style="stop-color:#A46228"/>
	<stop  offset="0.7043" style="stop-color:#A05D25"/>
	<stop  offset="0.7149" style="stop-color:#A6652D"/>
	<stop  offset="0.7311" style="stop-color:#B57A41"/>
	<stop  offset="0.751" style="stop-color:#CF9D63"/>
	<stop  offset="0.7735" style="stop-color:#F1CD92"/>
	<stop  offset="0.7756" style="stop-color:#F5D297"/>
	<stop  offset="0.8468" style="stop-color:#DEB763"/>
	<stop  offset="0.8861" style="stop-color:#B38D42"/>
	<stop  offset="0.9116" style="stop-color:#B28C42"/>
	<stop  offset="0.9134" style="stop-color:#B48E41"/>
	<stop  offset="0.9237" style="stop-color:#BB933C"/>
	<stop  offset="0.9509" style="stop-color:#BD943B"/>
	<stop  offset="1" style="stop-color:#774619"/>
</linearGradient>
<polyline class="st8" points="36.9,84.9 36.9,65.7 39.5,65.7 39.5,84.9 "/>
<linearGradient id="SVGID_10_" gradientUnits="userSpaceOnUse" x1="-164.7628" y1="585.3441" x2="-163.8238" y2="585.3441" gradientTransform="matrix(212.983 0 0 -212.983 35092.1875 124743.6563)">
	<stop  offset="0" style="stop-color:#774619"/>
	<stop  offset="6.624680e-02" style="stop-color:#B28727"/>
	<stop  offset="0.1545" style="stop-color:#B28727"/>
	<stop  offset="0.2989" style="stop-color:#F4C283"/>
	<stop  offset="0.36" style="stop-color:#EAC57A"/>
	<stop  offset="0.4303" style="stop-color:#E5C775"/>
	<stop  offset="0.4892" style="stop-color:#996C24"/>
	<stop  offset="0.6051" style="stop-color:#996C24"/>
	<stop  offset="0.6051" style="stop-color:#996C24"/>
	<stop  offset="0.6161" style="stop-color:#B68B3D"/>
	<stop  offset="0.6268" style="stop-color:#CAA04F"/>
	<stop  offset="0.6372" style="stop-color:#D7AE5A"/>
	<stop  offset="0.6466" style="stop-color:#DBB25E"/>
	<stop  offset="0.6494" style="stop-color:#D6AB59"/>
	<stop  offset="0.6649" style="stop-color:#BF8943"/>
	<stop  offset="0.6796" style="stop-color:#AE7132"/>
	<stop  offset="0.6931" style="stop-color:#A46228"/>
	<stop  offset="0.7043" style="stop-color:#A05D25"/>
	<stop  offset="0.7149" style="stop-color:#A6652D"/>
	<stop  offset="0.7311" style="stop-color:#B57A41"/>
	<stop  offset="0.751" style="stop-color:#CF9D63"/>
	<stop  offset="0.7735" style="stop-color:#F1CD92"/>
	<stop  offset="0.7756" style="stop-color:#F5D297"/>
	<stop  offset="0.8468" style="stop-color:#DEB763"/>
	<stop  offset="0.8861" style="stop-color:#B38D42"/>
	<stop  offset="0.9116" style="stop-color:#B28C42"/>
	<stop  offset="0.9134" style="stop-color:#B48E41"/>
	<stop  offset="0.9237" style="stop-color:#BB933C"/>
	<stop  offset="0.9509" style="stop-color:#BD943B"/>
	<stop  offset="1" style="stop-color:#774619"/>
</linearGradient>
<polyline class="st9" points="197.9,84.9 197.9,65.7 200.5,65.7 200.5,84.9 "/>
<linearGradient id="SVGID_11_" gradientUnits="userSpaceOnUse" x1="-164.7628" y1="585.2928" x2="-163.8238" y2="585.2928" gradientTransform="matrix(212.983 0 0 -212.983 35092.1875 124743.6563)">
	<stop  offset="0" style="stop-color:#774619"/>
	<stop  offset="6.624680e-02" style="stop-color:#B28727"/>
	<stop  offset="0.1545" style="stop-color:#B28727"/>
	<stop  offset="0.2989" style="stop-color:#F4C283"/>
	<stop  offset="0.36" style="stop-color:#EAC57A"/>
	<stop  offset="0.4303" style="stop-color:#E5C775"/>
	<stop  offset="0.4892" style="stop-color:#996C24"/>
	<stop  offset="0.6051" style="stop-color:#996C24"/>
	<stop  offset="0.6051" style="stop-color:#996C24"/>
	<stop  offset="0.6161" style="stop-color:#B68B3D"/>
	<stop  offset="0.6268" style="stop-color:#CAA04F"/>
	<stop  offset="0.6372" style="stop-color:#D7AE5A"/>
	<stop  offset="0.6466" style="stop-color:#DBB25E"/>
	<stop  offset="0.6494" style="stop-color:#D6AB59"/>
	<stop  offset="0.6649" style="stop-color:#BF8943"/>
	<stop  offset="0.6796" style="stop-color:#AE7132"/>
	<stop  offset="0.6931" style="stop-color:#A46228"/>
	<stop  offset="0.7043" style="stop-color:#A05D25"/>
	<stop  offset="0.7149" style="stop-color:#A6652D"/>
	<stop  offset="0.7311" style="stop-color:#B57A41"/>
	<stop  offset="0.751" style="stop-color:#CF9D63"/>
	<stop  offset="0.7735" style="stop-color:#F1CD92"/>
	<stop  offset="0.7756" style="stop-color:#F5D297"/>
	<stop  offset="0.8468" style="stop-color:#DEB763"/>
	<stop  offset="0.8861" style="stop-color:#B38D42"/>
	<stop  offset="0.9116" style="stop-color:#B28C42"/>
	<stop  offset="0.9134" style="stop-color:#B48E41"/>
	<stop  offset="0.9237" style="stop-color:#BB933C"/>
	<stop  offset="0.9509" style="stop-color:#BD943B"/>
	<stop  offset="1" style="stop-color:#774619"/>
</linearGradient>
<polyline class="st10" points="38.2,84.9 200.5,84.9 200.5,87.6 38.2,87.6 "/>
<linearGradient id="SVGID_12_" gradientUnits="userSpaceOnUse" x1="-164.7628" y1="585.3954" x2="-163.8238" y2="585.3954" gradientTransform="matrix(212.983 0 0 -212.983 35092.1875 124743.6563)">
	<stop  offset="0" style="stop-color:#774619"/>
	<stop  offset="6.624680e-02" style="stop-color:#B28727"/>
	<stop  offset="9.847340e-02" style="stop-color:#B28727"/>
	<stop  offset="0.188" style="stop-color:#F6D28B"/>
	<stop  offset="0.194" style="stop-color:#F5D18A"/>
	<stop  offset="0.2726" style="stop-color:#E9CA7A"/>
	<stop  offset="0.3361" style="stop-color:#E5C775"/>
	<stop  offset="0.4442" style="stop-color:#996C24"/>
	<stop  offset="0.4443" style="stop-color:#996C24"/>
	<stop  offset="0.4804" style="stop-color:#B68B3D"/>
	<stop  offset="0.5157" style="stop-color:#CAA04F"/>
	<stop  offset="0.5497" style="stop-color:#D7AE5A"/>
	<stop  offset="0.5807" style="stop-color:#DBB25E"/>
	<stop  offset="0.5842" style="stop-color:#D6AB59"/>
	<stop  offset="0.6036" style="stop-color:#BF8943"/>
	<stop  offset="0.622" style="stop-color:#AE7132"/>
	<stop  offset="0.639" style="stop-color:#A46228"/>
	<stop  offset="0.653" style="stop-color:#A05D25"/>
	<stop  offset="0.6719" style="stop-color:#A5642D"/>
	<stop  offset="0.701" style="stop-color:#B27842"/>
	<stop  offset="0.7368" style="stop-color:#C89966"/>
	<stop  offset="0.7774" style="stop-color:#E6C596"/>
	<stop  offset="0.7952" style="stop-color:#F5DBAE"/>
	<stop  offset="0.8468" style="stop-color:#DEB763"/>
	<stop  offset="0.8861" style="stop-color:#B38D42"/>
	<stop  offset="0.9116" style="stop-color:#B28C42"/>
	<stop  offset="0.9134" style="stop-color:#B48E41"/>
	<stop  offset="0.9237" style="stop-color:#BB933C"/>
	<stop  offset="0.9509" style="stop-color:#BD943B"/>
	<stop  offset="1" style="stop-color:#774619"/>
</linearGradient>
<path class="st11" d="M20,77c-1.8,0-3.4-0.3-4.8-0.9c-1.4-0.6-2.5-1.4-3.3-2.5c-0.8-1.1-1.2-2.4-1.2-3.8c0-1,0.2-1.9,0.6-2.8
	c0.4-0.9,1-1.6,1.7-2.2c0.7-0.6,1.6-1,2.6-1.3v-0.1c-0.7-0.2-1.3-0.6-1.9-1.1c-0.6-0.5-1-1.1-1.3-1.8c-0.3-0.7-0.5-1.4-0.5-2.2
	c0-1.2,0.3-2.4,1-3.4c0.7-1,1.6-1.8,2.9-2.3c1.2-0.6,2.6-0.8,4.2-0.8c1.6,0,2.9,0.3,4.2,0.8c1.2,0.6,2.2,1.3,2.9,2.3
	c0.7,1,1,2.1,1,3.4c0,0.8-0.2,1.5-0.5,2.2c-0.3,0.7-0.7,1.3-1.3,1.8c-0.6,0.5-1.2,0.9-1.9,1.1v0.1c1,0.2,1.9,0.7,2.6,1.3
	c0.7,0.6,1.3,1.4,1.7,2.2c0.4,0.9,0.6,1.8,0.6,2.8c0,1.5-0.4,2.8-1.2,3.8c-0.8,1.1-1.9,1.9-3.3,2.5C23.4,76.7,21.8,77,20,77L20,77z
	 M20,72.7c0.8,0,1.5-0.2,2.1-0.5c0.6-0.3,1.1-0.7,1.4-1.3c0.3-0.5,0.5-1.2,0.5-1.9c0-0.7-0.2-1.3-0.5-1.8c-0.3-0.5-0.8-1-1.4-1.3
	c-0.6-0.3-1.3-0.5-2.1-0.5c-0.8,0-1.5,0.2-2.1,0.5c-0.6,0.3-1.1,0.7-1.4,1.3C16.2,67.7,16,68.3,16,69c0,0.7,0.2,1.3,0.5,1.9
	c0.3,0.5,0.8,1,1.4,1.3C18.5,72.5,19.2,72.7,20,72.7L20,72.7z M20,61.7c0.6,0,1.1-0.1,1.6-0.4c0.5-0.3,0.9-0.6,1.1-1.1
	c0.3-0.5,0.4-1,0.4-1.5c0-0.6-0.1-1.1-0.4-1.5c-0.3-0.5-0.6-0.8-1.1-1.1c-0.5-0.3-1-0.4-1.6-0.4c-0.6,0-1.1,0.1-1.6,0.4
	c-0.5,0.3-0.9,0.6-1.1,1.1c-0.3,0.5-0.4,1-0.4,1.5c0,0.6,0.1,1.1,0.4,1.5c0.3,0.5,0.7,0.8,1.1,1.1C18.9,61.6,19.4,61.7,20,61.7
	L20,61.7z"/>
<linearGradient id="SVGID_13_" gradientUnits="userSpaceOnUse" x1="-164.7628" y1="585.4467" x2="-163.8238" y2="585.4467" gradientTransform="matrix(212.983 0 0 -212.983 35092.1875 124743.6563)">
	<stop  offset="0" style="stop-color:#774619"/>
	<stop  offset="6.624680e-02" style="stop-color:#B28727"/>
	<stop  offset="0.1545" style="stop-color:#B28727"/>
	<stop  offset="0.2989" style="stop-color:#F4C283"/>
	<stop  offset="0.36" style="stop-color:#EAC57A"/>
	<stop  offset="0.4303" style="stop-color:#E5C775"/>
	<stop  offset="0.4892" style="stop-color:#996C24"/>
	<stop  offset="0.6051" style="stop-color:#996C24"/>
	<stop  offset="0.6051" style="stop-color:#996C24"/>
	<stop  offset="0.6161" style="stop-color:#B68B3D"/>
	<stop  offset="0.6268" style="stop-color:#CAA04F"/>
	<stop  offset="0.6372" style="stop-color:#D7AE5A"/>
	<stop  offset="0.6466" style="stop-color:#DBB25E"/>
	<stop  offset="0.6494" style="stop-color:#D6AB59"/>
	<stop  offset="0.6649" style="stop-color:#BF8943"/>
	<stop  offset="0.6796" style="stop-color:#AE7132"/>
	<stop  offset="0.6931" style="stop-color:#A46228"/>
	<stop  offset="0.7043" style="stop-color:#A05D25"/>
	<stop  offset="0.7149" style="stop-color:#A6652D"/>
	<stop  offset="0.7311" style="stop-color:#B57A41"/>
	<stop  offset="0.751" style="stop-color:#CF9D63"/>
	<stop  offset="0.7735" style="stop-color:#F1CD92"/>
	<stop  offset="0.7756" style="stop-color:#F5D297"/>
	<stop  offset="0.8468" style="stop-color:#DEB763"/>
	<stop  offset="0.8861" style="stop-color:#B38D42"/>
	<stop  offset="0.9116" style="stop-color:#B28C42"/>
	<stop  offset="0.9134" style="stop-color:#B48E41"/>
	<stop  offset="0.9237" style="stop-color:#BB933C"/>
	<stop  offset="0.9509" style="stop-color:#BD943B"/>
	<stop  offset="1" style="stop-color:#774619"/>
</linearGradient>
<path class="st12" d="M49.4,58.1c-0.9,0-1.6-0.2-2.3-0.5c-0.6-0.4-1.1-0.9-1.5-1.6c-0.3-0.7-0.5-1.5-0.5-2.5c0-1,0.2-1.8,0.5-2.5
	c0.3-0.7,0.8-1.2,1.5-1.6c0.6-0.4,1.4-0.5,2.3-0.5c0.9,0,1.6,0.2,2.3,0.5c0.6,0.4,1.1,0.9,1.5,1.6c0.3,0.7,0.5,1.5,0.5,2.5
	c0,1-0.2,1.8-0.5,2.5c-0.3,0.7-0.8,1.2-1.5,1.6C51,57.9,50.2,58.1,49.4,58.1L49.4,58.1z M49.4,56.4c0.5,0,0.9-0.1,1.3-0.4
	c0.3-0.2,0.6-0.6,0.8-1c0.2-0.4,0.3-1,0.3-1.6c0-0.6-0.1-1.1-0.3-1.6c-0.2-0.4-0.4-0.8-0.8-1c-0.3-0.2-0.8-0.4-1.3-0.4
	c-0.7,0-1.3,0.3-1.7,0.8c-0.4,0.5-0.6,1.2-0.6,2.1c0,0.9,0.2,1.6,0.6,2.1C48,56.1,48.6,56.4,49.4,56.4L49.4,56.4z M57.7,49h2.1
	l3.8,6.1h0.1V49h2v8.9h-2.1l-3.8-6h-0.1v6h-2V49z M70.2,49h2v7.3h4.2v1.7h-6.2V49z M80.6,54.5L77.2,49h2.2l2.2,3.7l2.1-3.7h2.2
	l-3.3,5.4v3.5h-2V54.5z M98,58.1c-0.7,0-1.2-0.1-1.8-0.3c-0.5-0.2-0.9-0.5-1.2-0.9c-0.3-0.4-0.4-0.9-0.4-1.4c0-0.4,0.1-0.7,0.2-1
	c0.1-0.3,0.3-0.6,0.6-0.8c0.3-0.2,0.6-0.4,1-0.5v0c-0.3-0.1-0.5-0.2-0.7-0.4c-0.2-0.2-0.4-0.4-0.5-0.7c-0.1-0.3-0.2-0.5-0.2-0.8
	c0-0.5,0.1-0.9,0.4-1.2c0.3-0.4,0.6-0.6,1-0.9c0.4-0.2,0.9-0.3,1.5-0.3c0.6,0,1.1,0.1,1.5,0.3c0.4,0.2,0.8,0.5,1,0.9
	c0.3,0.4,0.4,0.8,0.4,1.2c0,0.3-0.1,0.5-0.2,0.8s-0.3,0.5-0.5,0.7c-0.2,0.2-0.4,0.3-0.7,0.4v0c0.4,0.1,0.7,0.2,1,0.5
	c0.3,0.2,0.5,0.5,0.6,0.8c0.1,0.3,0.2,0.7,0.2,1c0,0.5-0.1,1-0.4,1.4c-0.3,0.4-0.7,0.7-1.2,0.9C99.2,57.9,98.6,58.1,98,58.1L98,58.1
	z M98,56.5c0.3,0,0.5-0.1,0.8-0.2c0.2-0.1,0.4-0.3,0.5-0.5c0.1-0.2,0.2-0.4,0.2-0.7c0-0.2-0.1-0.5-0.2-0.7c-0.1-0.2-0.3-0.4-0.5-0.5
	c-0.2-0.1-0.5-0.2-0.8-0.2c-0.3,0-0.5,0.1-0.8,0.2c-0.2,0.1-0.4,0.3-0.5,0.5c-0.1,0.2-0.2,0.4-0.2,0.7c0,0.3,0.1,0.5,0.2,0.7
	c0.1,0.2,0.3,0.4,0.5,0.5C97.4,56.4,97.7,56.5,98,56.5L98,56.5z M98,52.5c0.2,0,0.4,0,0.6-0.1c0.2-0.1,0.3-0.2,0.4-0.4
	c0.1-0.2,0.1-0.4,0.1-0.6c0-0.2,0-0.4-0.1-0.6c-0.1-0.2-0.2-0.3-0.4-0.4c-0.2-0.1-0.4-0.1-0.6-0.1c-0.2,0-0.4,0-0.6,0.1
	c-0.2,0.1-0.3,0.2-0.4,0.4c-0.1,0.2-0.1,0.3-0.1,0.5c0,0.2,0,0.4,0.1,0.6c0.1,0.2,0.2,0.3,0.4,0.4C97.6,52.4,97.8,52.5,98,52.5
	L98,52.5z M114.7,58.1c-0.9,0-1.6-0.2-2.3-0.5c-0.6-0.4-1.1-0.9-1.5-1.6c-0.3-0.7-0.5-1.5-0.5-2.5c0-1,0.2-1.8,0.5-2.5
	c0.3-0.7,0.8-1.2,1.5-1.6c0.6-0.4,1.4-0.5,2.3-0.5c0.8,0,1.5,0.1,2.1,0.4c0.6,0.3,1.1,0.7,1.4,1.2c0.3,0.5,0.5,1.2,0.6,2h-2
	c0-0.6-0.3-1.1-0.6-1.5c-0.4-0.3-0.9-0.5-1.5-0.5c-0.7,0-1.3,0.3-1.7,0.8c-0.4,0.5-0.6,1.2-0.6,2.1c0,0.9,0.2,1.6,0.6,2.1
	c0.4,0.5,1,0.8,1.7,0.8c0.6,0,1.1-0.2,1.5-0.5c0.4-0.3,0.6-0.8,0.6-1.5h2c-0.1,0.8-0.3,1.5-0.6,2c-0.3,0.5-0.8,1-1.4,1.2
	C116.2,57.9,115.5,58.1,114.7,58.1L114.7,58.1z M127.9,55.8h-3.2l-0.7,2.1h-2.1L125,49h2.6l3.1,8.9h-2.1L127.9,55.8z M127.4,54.2
	l-1.1-3.5h-0.1l-1.1,3.5H127.4z M134.4,49h2v7.3h4.2v1.7h-6.2V49z M147.9,58.1c-0.9,0-1.6-0.2-2.3-0.5c-0.6-0.4-1.1-0.9-1.5-1.6
	c-0.3-0.7-0.5-1.5-0.5-2.5c0-1,0.2-1.8,0.5-2.5c0.3-0.7,0.8-1.2,1.5-1.6c0.6-0.4,1.4-0.5,2.3-0.5c0.9,0,1.6,0.2,2.3,0.5
	c0.6,0.4,1.1,0.9,1.5,1.6c0.3,0.7,0.5,1.5,0.5,2.5c0,1-0.2,1.8-0.5,2.5c-0.3,0.7-0.8,1.2-1.5,1.6C149.5,57.9,148.8,58.1,147.9,58.1
	L147.9,58.1z M147.9,56.4c0.5,0,0.9-0.1,1.3-0.4c0.3-0.2,0.6-0.6,0.8-1c0.2-0.4,0.3-1,0.3-1.6c0-0.6-0.1-1.1-0.3-1.6
	c-0.2-0.4-0.4-0.8-0.8-1c-0.3-0.2-0.8-0.4-1.3-0.4c-0.7,0-1.3,0.3-1.7,0.8c-0.4,0.5-0.6,1.2-0.6,2.1c0,0.9,0.2,1.6,0.6,2.1
	C146.6,56.1,147.2,56.4,147.9,56.4L147.9,56.4z M163.7,57.9h-2l-0.3-2.1c-0.1-0.5-0.2-0.8-0.3-1c-0.1-0.2-0.3-0.4-0.7-0.4
	c-0.3-0.1-0.8-0.1-1.4-0.1h-0.8v3.7h-2V49h4.1c1,0,1.8,0.2,2.4,0.7c0.5,0.5,0.8,1.1,0.8,1.9c0,0.6-0.1,1.1-0.4,1.4
	c-0.3,0.3-0.7,0.6-1.2,0.7c0.4,0.1,0.7,0.3,0.9,0.6c0.2,0.3,0.4,0.7,0.4,1.3L163.7,57.9z M158.2,52.7h2.2c0.4,0,0.7-0.1,0.9-0.3
	c0.2-0.2,0.3-0.4,0.3-0.8c0-0.3-0.1-0.6-0.3-0.8c-0.2-0.2-0.5-0.3-0.9-0.3h-2.2V52.7z M167.8,49h2v8.9h-2V49z M174.4,49h6.6v1.7
	h-4.6v2h4.3v1.7h-4.3v2h4.9v1.7h-6.9V49z M188.4,58c-0.6,0-1.2-0.1-1.7-0.3c-0.5-0.2-1-0.5-1.3-1c-0.3-0.5-0.5-1.1-0.5-1.8h1.9
	c0,0.5,0.2,0.9,0.5,1.2c0.3,0.3,0.7,0.4,1.2,0.4c0.4,0,0.8-0.1,1-0.3c0.3-0.2,0.4-0.4,0.4-0.8c0-0.3-0.1-0.5-0.3-0.7
	c-0.2-0.2-0.4-0.3-0.7-0.4c-0.3-0.1-0.7-0.2-1.2-0.3c-0.6-0.1-1-0.3-1.4-0.4s-0.7-0.4-1-0.7c-0.3-0.3-0.4-0.8-0.4-1.3
	c0-0.6,0.1-1,0.4-1.4c0.3-0.4,0.6-0.7,1.1-0.9c0.5-0.2,1-0.3,1.7-0.3c0.5,0,1.1,0.1,1.6,0.2c0.5,0.2,0.9,0.5,1.3,0.9
	c0.3,0.4,0.5,1,0.5,1.6h-1.9c0-0.4-0.1-0.8-0.4-1c-0.3-0.2-0.6-0.3-1-0.3c-0.4,0-0.7,0.1-1,0.3c-0.2,0.2-0.3,0.4-0.3,0.7
	c0,0.2,0.1,0.4,0.2,0.6c0.2,0.1,0.4,0.3,0.6,0.3c0.2,0.1,0.6,0.2,1,0.3c0.6,0.1,1.2,0.3,1.6,0.4c0.4,0.2,0.8,0.4,1.1,0.8
	c0.3,0.4,0.4,0.8,0.4,1.5c0,0.6-0.1,1.1-0.4,1.5c-0.3,0.4-0.7,0.8-1.2,1C189.7,57.9,189.1,58,188.4,58L188.4,58z"/>
<linearGradient id="SVGID_14_" gradientUnits="userSpaceOnUse" x1="-164.7628" y1="585.3441" x2="-163.8238" y2="585.3441" gradientTransform="matrix(212.983 0 0 -212.983 35092.1875 124743.6563)">
	<stop  offset="0" style="stop-color:#774619"/>
	<stop  offset="6.624680e-02" style="stop-color:#B28727"/>
	<stop  offset="0.1545" style="stop-color:#B28727"/>
	<stop  offset="0.2989" style="stop-color:#F4C283"/>
	<stop  offset="0.36" style="stop-color:#EAC57A"/>
	<stop  offset="0.4303" style="stop-color:#E5C775"/>
	<stop  offset="0.4892" style="stop-color:#996C24"/>
	<stop  offset="0.6051" style="stop-color:#996C24"/>
	<stop  offset="0.6051" style="stop-color:#996C24"/>
	<stop  offset="0.6161" style="stop-color:#B68B3D"/>
	<stop  offset="0.6268" style="stop-color:#CAA04F"/>
	<stop  offset="0.6372" style="stop-color:#D7AE5A"/>
	<stop  offset="0.6466" style="stop-color:#DBB25E"/>
	<stop  offset="0.6494" style="stop-color:#D6AB59"/>
	<stop  offset="0.6649" style="stop-color:#BF8943"/>
	<stop  offset="0.6796" style="stop-color:#AE7132"/>
	<stop  offset="0.6931" style="stop-color:#A46228"/>
	<stop  offset="0.7043" style="stop-color:#A05D25"/>
	<stop  offset="0.7149" style="stop-color:#A6652D"/>
	<stop  offset="0.7311" style="stop-color:#B57A41"/>
	<stop  offset="0.751" style="stop-color:#CF9D63"/>
	<stop  offset="0.7735" style="stop-color:#F1CD92"/>
	<stop  offset="0.7756" style="stop-color:#F5D297"/>
	<stop  offset="0.8468" style="stop-color:#DEB763"/>
	<stop  offset="0.8861" style="stop-color:#B38D42"/>
	<stop  offset="0.9116" style="stop-color:#B28C42"/>
	<stop  offset="0.9134" style="stop-color:#B48E41"/>
	<stop  offset="0.9237" style="stop-color:#BB933C"/>
	<stop  offset="0.9509" style="stop-color:#BD943B"/>
	<stop  offset="1" style="stop-color:#774619"/>
</linearGradient>
<path class="st13" d="M52.1,74.3l-0.3,1.9h1.6l-0.3,1.4h-1.6l-0.4,2.2h-1.5l0.4-2.2h-1.9l-0.4,2.2h-1.5l0.4-2.2H45l0.3-1.4h1.6
	l0.3-1.9h-1.6l0.3-1.4h1.6l0.4-2h1.5l-0.4,2h1.9l0.4-2h1.5l-0.4,2H54l-0.3,1.4H52.1z M50.6,74.3h-1.9l-0.3,1.9h1.9L50.6,74.3z
	 M61,79.9c-0.6,0-1.2-0.1-1.7-0.3c-0.5-0.2-1-0.5-1.3-1c-0.3-0.5-0.5-1.1-0.5-1.8h1.9c0,0.5,0.2,0.9,0.5,1.2
	c0.3,0.3,0.7,0.4,1.2,0.4c0.4,0,0.8-0.1,1-0.3c0.3-0.2,0.4-0.4,0.4-0.8c0-0.3-0.1-0.5-0.3-0.7c-0.2-0.2-0.4-0.3-0.7-0.4
	c-0.3-0.1-0.7-0.2-1.2-0.3c-0.6-0.1-1-0.3-1.4-0.4c-0.4-0.2-0.7-0.4-1-0.7c-0.3-0.3-0.4-0.8-0.4-1.3c0-0.6,0.1-1,0.4-1.4
	c0.3-0.4,0.6-0.7,1.1-0.9c0.5-0.2,1-0.3,1.7-0.3c0.5,0,1.1,0.1,1.6,0.2c0.5,0.2,0.9,0.5,1.3,0.9c0.3,0.4,0.5,1,0.5,1.6h-1.9
	c0-0.4-0.1-0.8-0.4-1c-0.3-0.2-0.6-0.3-1-0.3c-0.4,0-0.7,0.1-1,0.3c-0.2,0.2-0.3,0.4-0.3,0.7c0,0.2,0.1,0.4,0.2,0.6
	c0.2,0.1,0.4,0.3,0.6,0.3c0.2,0.1,0.6,0.2,1,0.3c0.6,0.1,1.2,0.3,1.6,0.4c0.4,0.2,0.8,0.4,1.1,0.8c0.3,0.4,0.4,0.8,0.4,1.5
	c0,0.6-0.1,1.1-0.4,1.5c-0.3,0.4-0.7,0.8-1.2,1C62.4,79.8,61.7,79.9,61,79.9L61,79.9z M72.2,79.9c-0.9,0-1.6-0.2-2.3-0.5
	c-0.6-0.4-1.1-0.9-1.5-1.6c-0.3-0.7-0.5-1.5-0.5-2.5c0-1,0.2-1.8,0.5-2.5c0.3-0.7,0.8-1.2,1.5-1.6c0.6-0.4,1.4-0.5,2.3-0.5
	c0.9,0,1.6,0.2,2.3,0.5c0.6,0.4,1.1,0.9,1.5,1.6c0.3,0.7,0.5,1.5,0.5,2.5c0,1-0.2,1.8-0.5,2.5c-0.3,0.7-0.8,1.2-1.5,1.6
	C73.9,79.7,73.1,79.9,72.2,79.9L72.2,79.9z M72.2,78.2c0.5,0,0.9-0.1,1.3-0.4c0.3-0.2,0.6-0.6,0.8-1c0.2-0.4,0.3-1,0.3-1.6
	c0-0.6-0.1-1.1-0.3-1.6c-0.2-0.4-0.4-0.8-0.8-1c-0.3-0.2-0.8-0.4-1.3-0.4c-0.7,0-1.3,0.3-1.7,0.8c-0.4,0.5-0.6,1.2-0.6,2.1
	c0,0.9,0.2,1.6,0.6,2.1C70.9,78,71.5,78.2,72.2,78.2L72.2,78.2z M80.6,70.9H84c1.5,0,2.7,0.4,3.4,1.2c0.7,0.8,1.1,1.9,1.1,3.3
	c0,1.4-0.4,2.5-1.1,3.3c-0.7,0.8-1.9,1.1-3.4,1.1h-3.4V70.9z M83.8,78.1c0.7,0,1.2-0.1,1.6-0.3c0.4-0.2,0.7-0.5,0.9-0.9
	c0.2-0.4,0.3-0.9,0.3-1.6c0-0.9-0.2-1.6-0.6-2.1c-0.4-0.5-1-0.7-2-0.7h-1.5v5.6H83.8z M97.4,77.7h-3.2l-0.7,2.1h-2.1l3.1-8.9H97
	l3.1,8.9H98L97.4,77.7z M96.9,76.1l-1.1-3.5h-0.1l-1.1,3.5H96.9z M103.9,70.9h2v7.3h4.2v1.7h-6.2V70.9z M113.8,70.9h2v8.9h-2V70.9z
	 M124.1,79.9c-0.9,0-1.6-0.2-2.3-0.5c-0.6-0.4-1.1-0.9-1.5-1.6c-0.3-0.7-0.5-1.5-0.5-2.5c0-1,0.2-1.8,0.5-2.5
	c0.3-0.7,0.8-1.2,1.5-1.6c0.6-0.4,1.4-0.5,2.3-0.5c0.8,0,1.5,0.1,2.1,0.4c0.6,0.3,1.1,0.7,1.4,1.2c0.3,0.5,0.5,1.2,0.6,2h-2
	c0-0.6-0.3-1.1-0.6-1.5c-0.4-0.3-0.9-0.5-1.5-0.5c-0.7,0-1.3,0.3-1.7,0.8c-0.4,0.5-0.6,1.2-0.6,2.1c0,0.9,0.2,1.6,0.6,2.1
	c0.4,0.5,1,0.8,1.7,0.8c0.6,0,1.1-0.2,1.5-0.5c0.4-0.3,0.6-0.8,0.6-1.5h2c-0.1,0.8-0.3,1.5-0.6,2c-0.3,0.5-0.8,1-1.4,1.2
	C125.6,79.8,124.9,79.9,124.1,79.9L124.1,79.9z M132.2,70.9h2v8.9h-2V70.9z M142.5,79.9c-0.9,0-1.6-0.2-2.3-0.5
	c-0.6-0.4-1.1-0.9-1.5-1.6c-0.3-0.7-0.5-1.5-0.5-2.5c0-1,0.2-1.8,0.5-2.5c0.3-0.7,0.8-1.2,1.5-1.6c0.6-0.4,1.4-0.5,2.3-0.5
	c0.9,0,1.6,0.2,2.3,0.5c0.6,0.4,1.1,0.9,1.5,1.6c0.3,0.7,0.5,1.5,0.5,2.5c0,1-0.2,1.8-0.5,2.5c-0.3,0.7-0.8,1.2-1.5,1.6
	C144.1,79.7,143.3,79.9,142.5,79.9L142.5,79.9z M142.5,78.2c0.5,0,0.9-0.1,1.3-0.4c0.3-0.2,0.6-0.6,0.8-1c0.2-0.4,0.3-1,0.3-1.6
	c0-0.6-0.1-1.1-0.3-1.6c-0.2-0.4-0.4-0.8-0.8-1c-0.3-0.2-0.8-0.4-1.3-0.4c-0.7,0-1.3,0.3-1.7,0.8c-0.4,0.5-0.6,1.2-0.6,2.1
	c0,0.9,0.2,1.6,0.6,2.1C141.1,78,141.7,78.2,142.5,78.2L142.5,78.2z M154.2,79.9c-1.2,0-2.1-0.3-2.7-0.9c-0.6-0.6-0.9-1.5-0.9-2.6
	v-5.5h2v5.6c0,0.5,0.1,0.9,0.4,1.2c0.3,0.3,0.7,0.4,1.2,0.4c0.5,0,0.9-0.1,1.2-0.4c0.3-0.3,0.4-0.7,0.4-1.2v-5.6h2v5.5
	c0,1.1-0.3,2-0.9,2.6C156.3,79.6,155.4,79.9,154.2,79.9L154.2,79.9z M165.2,79.9c-0.6,0-1.2-0.1-1.7-0.3c-0.5-0.2-1-0.5-1.3-1
	c-0.3-0.5-0.5-1.1-0.5-1.8h1.9c0,0.5,0.2,0.9,0.5,1.2c0.3,0.3,0.7,0.4,1.2,0.4c0.4,0,0.8-0.1,1-0.3c0.3-0.2,0.4-0.4,0.4-0.8
	c0-0.3-0.1-0.5-0.3-0.7c-0.2-0.2-0.4-0.3-0.7-0.4c-0.3-0.1-0.7-0.2-1.2-0.3c-0.6-0.1-1-0.3-1.4-0.4s-0.7-0.4-1-0.7
	c-0.3-0.3-0.4-0.8-0.4-1.3c0-0.6,0.1-1,0.4-1.4c0.3-0.4,0.6-0.7,1.1-0.9c0.5-0.2,1-0.3,1.7-0.3c0.5,0,1.1,0.1,1.6,0.2
	c0.5,0.2,0.9,0.5,1.3,0.9c0.3,0.4,0.5,1,0.5,1.6h-1.9c0-0.4-0.1-0.8-0.4-1c-0.3-0.2-0.6-0.3-1-0.3c-0.4,0-0.7,0.1-1,0.3
	c-0.2,0.2-0.3,0.4-0.3,0.7c0,0.2,0.1,0.4,0.2,0.6c0.2,0.1,0.4,0.3,0.6,0.3c0.2,0.1,0.6,0.2,1,0.3c0.6,0.1,1.2,0.3,1.6,0.4
	c0.4,0.2,0.8,0.4,1.1,0.8c0.3,0.4,0.4,0.8,0.4,1.5c0,0.6-0.1,1.1-0.4,1.5c-0.3,0.4-0.7,0.8-1.2,1C166.6,79.8,166,79.9,165.2,79.9
	L165.2,79.9z"/>
</svg>
