<svg id="Layer_1" data-name="Layer 1" xmlns="http://www.w3.org/2000/svg" viewBox="0 0 300 300"><defs><style>.cls-1{fill:none;stroke:#231f20;stroke-width:5px;}.cls-2{fill:#231f20;}</style></defs><title>FSC_ICONS</title><polyline class="cls-1" points="62.02 181.99 8.81 181.99 8.81 120.3 62.02 120.3"/><line class="cls-1" x1="60.16" y1="151.14" x2="291.19" y2="151.14"/><polyline class="cls-1" points="62.02 180.12 62.02 153.01 62.02 149.28 62.02 122.17"/><polyline class="cls-1" points="62.02 181.99 291.19 181.99 291.19 120.3 62.02 120.3"/><path class="cls-2" d="M29.56,167.71a10.62,10.62,0,0,1-4.65-3.55,9,9,0,0,1-1.68-5.43,9.59,9.59,0,0,1,.82-4,8.58,8.58,0,0,1,2.39-3.15,8.88,8.88,0,0,1,3.7-1.79v-.15a6.82,6.82,0,0,1-2.65-1.5,7.64,7.64,0,0,1-1.84-2.54,7.39,7.39,0,0,1-.66-3.06,8.22,8.22,0,0,1,1.46-4.77,9.77,9.77,0,0,1,4-3.31,14,14,0,0,1,5.87-1.19,13.93,13.93,0,0,1,5.87,1.19,9.8,9.8,0,0,1,4.05,3.31,8.22,8.22,0,0,1,1.45,4.77,7.26,7.26,0,0,1-.66,3.08,7.41,7.41,0,0,1-1.84,2.54,6.41,6.41,0,0,1-2.67,1.48v.15a9.27,9.27,0,0,1,3.71,1.81,8.83,8.83,0,0,1,2.4,3.15,9.6,9.6,0,0,1,.83,3.94,9,9,0,0,1-1.68,5.43,10.6,10.6,0,0,1-4.66,3.55,17.66,17.66,0,0,1-6.8,1.24A17.73,17.73,0,0,1,29.56,167.71Zm9.71-5.55A4.88,4.88,0,0,0,42,157.67a4.82,4.82,0,0,0-.72-2.6,5,5,0,0,0-2-1.8,7,7,0,0,0-5.86,0,5,5,0,0,0-2,1.8,4.82,4.82,0,0,0-.72,2.6,4.88,4.88,0,0,0,2.73,4.49,6.83,6.83,0,0,0,5.86,0Zm-.59-15.35a4.08,4.08,0,0,0,1.59-1.52,4.12,4.12,0,0,0,.58-2.17,4.12,4.12,0,0,0-2.17-3.67,4.76,4.76,0,0,0-2.27-.55,4.88,4.88,0,0,0-2.3.55,4,4,0,0,0-2.18,3.64,4.19,4.19,0,0,0,.57,2.17,4.09,4.09,0,0,0,1.61,1.53,4.67,4.67,0,0,0,2.3.57A4.76,4.76,0,0,0,38.68,146.81Z"/><path class="cls-2" d="M74.6,141.45a5,5,0,0,1-2.06-2.2,9.13,9.13,0,0,1,0-7.06A5,5,0,0,1,74.6,130,7.16,7.16,0,0,1,81,130a5,5,0,0,1,2.08,2.2,8.9,8.9,0,0,1,0,7.06,5,5,0,0,1-2.08,2.2,7.16,7.16,0,0,1-6.38,0Zm5-2.11a3.07,3.07,0,0,0,1.11-1.42,6.73,6.73,0,0,0,0-4.4,2.93,2.93,0,0,0-2.89-1.92,2.82,2.82,0,0,0-2.41,1.09,6.07,6.07,0,0,0,0,6.06,2.82,2.82,0,0,0,2.41,1.09A3,3,0,0,0,79.57,139.34Z"/><path class="cls-2" d="M89.55,129.43h2.91L97.85,138h.08v-8.55h2.77V142h-3l-5.34-8.52h-.1V142H89.55Z"/><path class="cls-2" d="M107.18,129.43h2.76v10.24h5.94V142h-8.7Z"/><path class="cls-2" d="M121.85,137.12l-4.72-7.69h3.11l3.05,5.27,2.93-5.27h3.11l-4.72,7.69V142h-2.76Z"/><path class="cls-2" d="M144,141.74a3.77,3.77,0,0,1-1.7-1.29,3.32,3.32,0,0,1-.61-2,3.51,3.51,0,0,1,.3-1.44,3.16,3.16,0,0,1,.87-1.15,3.27,3.27,0,0,1,1.35-.65v-.05a2.42,2.42,0,0,1-1-.55,2.79,2.79,0,0,1-.9-2,3,3,0,0,1,.53-1.74,3.52,3.52,0,0,1,1.47-1.2,5,5,0,0,1,2.13-.43,5,5,0,0,1,2.14.43,3.65,3.65,0,0,1,1.47,1.2,3,3,0,0,1,.53,1.74,2.89,2.89,0,0,1-.24,1.12,3,3,0,0,1-.67.92,2.37,2.37,0,0,1-1,.54v.05a3.41,3.41,0,0,1,1.35.66,3.16,3.16,0,0,1,.87,1.15,3.47,3.47,0,0,1-.3,3.4,3.72,3.72,0,0,1-1.7,1.29,6.86,6.86,0,0,1-4.94,0Zm3.53-2a1.89,1.89,0,0,0,.73-.67,1.88,1.88,0,0,0,0-1.91,1.77,1.77,0,0,0-.73-.65,2.31,2.31,0,0,0-1.07-.24,2.27,2.27,0,0,0-1.06.24,1.76,1.76,0,0,0-1,1.6,1.74,1.74,0,0,0,.27,1,1.82,1.82,0,0,0,.73.67,2.27,2.27,0,0,0,1.06.24A2.31,2.31,0,0,0,147.48,139.73Zm-.22-5.59a1.4,1.4,0,0,0,.58-.55,1.48,1.48,0,0,0,.21-.79,1.48,1.48,0,0,0-.79-1.33,1.72,1.72,0,0,0-.82-.2,1.8,1.8,0,0,0-.84.2,1.54,1.54,0,0,0-.58.55,1.46,1.46,0,0,0-.21.77,1.51,1.51,0,0,0,.21.79,1.49,1.49,0,0,0,.58.56,1.69,1.69,0,0,0,.84.21A1.61,1.61,0,0,0,147.26,134.14Z"/><path class="cls-2" d="M166.86,141.45a5,5,0,0,1-2.05-2.2,9,9,0,0,1,0-7.06,5,5,0,0,1,2.05-2.2,6.43,6.43,0,0,1,3.19-.75,6.78,6.78,0,0,1,2.91.58,4.61,4.61,0,0,1,2,1.74,5.94,5.94,0,0,1,.85,2.84H173a3.05,3.05,0,0,0-.88-2.07,2.94,2.94,0,0,0-2.1-.73,2.82,2.82,0,0,0-2.4,1.09,6.07,6.07,0,0,0,0,6.06,2.82,2.82,0,0,0,2.4,1.09,2.94,2.94,0,0,0,2.1-.73A3,3,0,0,0,173,137h2.77a5.86,5.86,0,0,1-.85,2.83,4.61,4.61,0,0,1-2,1.74,6.78,6.78,0,0,1-2.91.59A6.43,6.43,0,0,1,166.86,141.45Z"/><path class="cls-2" d="M188.6,139H184l-1,3h-3l4.38-12.59h3.67L192.53,142h-3Zm-.7-2.22-1.55-4.87h-.08l-1.55,4.87Z"/><path class="cls-2" d="M197.76,129.43h2.77v10.24h5.93V142h-8.7Z"/><path class="cls-2" d="M213.66,141.45a5,5,0,0,1-2.06-2.2,9,9,0,0,1,0-7.06,5,5,0,0,1,2.06-2.2,7.16,7.16,0,0,1,6.38,0,5,5,0,0,1,2.08,2.2,8.9,8.9,0,0,1,0,7.06,5.09,5.09,0,0,1-2.08,2.2,7.16,7.16,0,0,1-6.38,0Zm5-2.11a2.93,2.93,0,0,0,1.1-1.42,6.56,6.56,0,0,0,0-4.4,3,3,0,0,0-1.1-1.42,3.11,3.11,0,0,0-1.78-.5,2.79,2.79,0,0,0-2.4,1.09,6,6,0,0,0,0,6.06,2.79,2.79,0,0,0,2.4,1.09A3,3,0,0,0,218.63,139.34Z"/><path class="cls-2" d="M239.16,142h-2.81l-.49-3a4.26,4.26,0,0,0-.45-1.48,1.48,1.48,0,0,0-.92-.63,8.93,8.93,0,0,0-2-.17h-1.1V142H228.6V129.43h5.84a5.11,5.11,0,0,1,3.37,1,3.39,3.39,0,0,1,1.16,2.74,3.22,3.22,0,0,1-.56,2,2.93,2.93,0,0,1-1.71,1,2.27,2.27,0,0,1,1.27.91,4.73,4.73,0,0,1,.63,1.77Zm-7.78-7.35h3.15a1.79,1.79,0,0,0,1.25-.4,1.37,1.37,0,0,0,.43-1.07,1.31,1.31,0,0,0-.45-1.06,2,2,0,0,0-1.33-.38h-3.05Z"/><path class="cls-2" d="M245,129.43h2.76V142H245Z"/><path class="cls-2" d="M254.24,129.43h9.26v2.33H257v2.78h6v2.33h-6v2.81h6.92V142h-9.68Z"/><path class="cls-2" d="M271.48,141.76a3.9,3.9,0,0,1-1.86-1.39,4.22,4.22,0,0,1-.73-2.6h2.72a2.11,2.11,0,0,0,.69,1.67A2.64,2.64,0,0,0,274,140a2.42,2.42,0,0,0,1.47-.39,1.3,1.3,0,0,0,.54-1.11,1.24,1.24,0,0,0-.4-1,2.66,2.66,0,0,0-1-.55c-.38-.12-.92-.27-1.65-.43a15.18,15.18,0,0,1-2-.63,3.39,3.39,0,0,1-1.35-1,2.87,2.87,0,0,1-.56-1.85,3.6,3.6,0,0,1,.57-2.05,3.54,3.54,0,0,1,1.58-1.29,5.93,5.93,0,0,1,2.35-.44,6.8,6.8,0,0,1,2.2.35,3.82,3.82,0,0,1,1.78,1.21,3.52,3.52,0,0,1,.73,2.3h-2.64a1.73,1.73,0,0,0-.56-1.37,2.22,2.22,0,0,0-1.48-.46,2.12,2.12,0,0,0-1.34.37,1.2,1.2,0,0,0-.49,1,1,1,0,0,0,.35.81,2.48,2.48,0,0,0,.86.49c.35.11.84.24,1.47.38a15,15,0,0,1,2.21.63,3.66,3.66,0,0,1,1.5,1.1,3.21,3.21,0,0,1,.62,2.07,4,4,0,0,1-.56,2.12,3.78,3.78,0,0,1-1.65,1.42,6.44,6.44,0,0,1-2.66.5A7.21,7.21,0,0,1,271.48,141.76Z"/><path class="cls-2" d="M81.73,165.14l-.47,2.63h2.3l-.35,2h-2.3l-.55,3.05H78.25l.54-3.05H76.05l-.54,3.05H73.4l.54-3.05h-2.3l.35-2H74.3l.47-2.63H72.46l.36-2h2.3l.5-2.83h2.11l-.5,2.83H80l.5-2.83h2.11l-.5,2.83h2.29l-.35,2Zm-2.11,0H76.87l-.46,2.63h2.74Z"/><path class="cls-2" d="M91.75,172.6a3.92,3.92,0,0,1-1.86-1.38,4.3,4.3,0,0,1-.73-2.61h2.72a2.14,2.14,0,0,0,.7,1.67,2.62,2.62,0,0,0,1.72.54,2.47,2.47,0,0,0,1.47-.39,1.3,1.3,0,0,0,.53-1.11,1.24,1.24,0,0,0-.39-1,2.64,2.64,0,0,0-1-.55c-.37-.13-.92-.27-1.64-.44a13.17,13.17,0,0,1-2-.62,3.45,3.45,0,0,1-1.36-1,2.92,2.92,0,0,1-.55-1.86,3.64,3.64,0,0,1,.56-2,3.51,3.51,0,0,1,1.59-1.29,5.68,5.68,0,0,1,2.34-.45,7.08,7.08,0,0,1,2.2.35,3.84,3.84,0,0,1,1.78,1.21,3.48,3.48,0,0,1,.73,2.3H95.94a1.76,1.76,0,0,0-.56-1.37,2.27,2.27,0,0,0-1.48-.45,2.2,2.2,0,0,0-1.34.36,1.19,1.19,0,0,0-.48,1,1,1,0,0,0,.34.81,2.28,2.28,0,0,0,.87.48c.34.11.83.24,1.46.38a15.9,15.9,0,0,1,2.21.63,3.62,3.62,0,0,1,1.5,1.11,3.17,3.17,0,0,1,.62,2.07,3.87,3.87,0,0,1-.56,2.11,3.61,3.61,0,0,1-1.65,1.42,6.23,6.23,0,0,1-2.65.51A7.27,7.27,0,0,1,91.75,172.6Z"/><path class="cls-2" d="M106.89,172.29a5,5,0,0,1-2.06-2.2,9.13,9.13,0,0,1,0-7.06,5,5,0,0,1,2.06-2.2,7.16,7.16,0,0,1,6.38,0,5,5,0,0,1,2.08,2.21,8.77,8.77,0,0,1,0,7.05,5,5,0,0,1-2.08,2.2,7.16,7.16,0,0,1-6.38,0Zm5-2.1a3,3,0,0,0,1.1-1.43,6.53,6.53,0,0,0,0-4.39,3,3,0,0,0-1.1-1.43,3.11,3.11,0,0,0-1.78-.5,2.8,2.8,0,0,0-2.4,1.1,4.88,4.88,0,0,0-.82,3,5,5,0,0,0,.82,3,2.82,2.82,0,0,0,2.4,1.09A3.11,3.11,0,0,0,111.86,170.19Z"/><path class="cls-2" d="M121.84,160.27h4.84a6.29,6.29,0,0,1,4.78,1.63,6.69,6.69,0,0,1,1.53,4.72,5.56,5.56,0,0,1-6.32,6.24h-4.83Zm4.6,10.23a4.75,4.75,0,0,0,2.23-.45,2.62,2.62,0,0,0,1.21-1.33,5.55,5.55,0,0,0,.38-2.19,4.39,4.39,0,0,0-.84-2.92,3.43,3.43,0,0,0-2.77-1H124.6v7.88Z"/><path class="cls-2" d="M145.55,169.88H141l-.94,3h-3l4.39-12.59h3.67l4.38,12.59h-3Zm-.7-2.22-1.55-4.88h-.07l-1.55,4.88Z"/><path class="cls-2" d="M154.72,160.27h2.76v10.24h5.94v2.35h-8.7Z"/><path class="cls-2" d="M168.77,160.27h2.76v12.59h-2.76Z"/><path class="cls-2" d="M180.05,172.29a5,5,0,0,1-2.06-2.2,9.13,9.13,0,0,1,0-7.06,5,5,0,0,1,2.06-2.2,6.4,6.4,0,0,1,3.19-.75,6.84,6.84,0,0,1,2.91.59,4.72,4.72,0,0,1,2,1.74,6.13,6.13,0,0,1,.85,2.83h-2.78a2.76,2.76,0,0,0-3-2.8,2.8,2.8,0,0,0-2.4,1.1,4.88,4.88,0,0,0-.82,3,5,5,0,0,0,.82,3,2.82,2.82,0,0,0,2.4,1.09,2.74,2.74,0,0,0,3-2.8H189a6.09,6.09,0,0,1-.85,2.83,4.72,4.72,0,0,1-2,1.74,6.84,6.84,0,0,1-2.91.58A6.4,6.4,0,0,1,180.05,172.29Z"/><path class="cls-2" d="M194.7,160.27h2.77v12.59H194.7Z"/><path class="cls-2" d="M206,172.29a4.92,4.92,0,0,1-2-2.2,9,9,0,0,1,0-7.06,4.92,4.92,0,0,1,2-2.2,6.4,6.4,0,0,1,3.19-.75,6.52,6.52,0,0,1,3.2.75,5.06,5.06,0,0,1,2.08,2.21,8.88,8.88,0,0,1,0,7.05,5,5,0,0,1-2.08,2.2,6.52,6.52,0,0,1-3.2.75A6.4,6.4,0,0,1,206,172.29Zm5-2.1a3.09,3.09,0,0,0,1.11-1.43,6.7,6.7,0,0,0,0-4.39,2.92,2.92,0,0,0-2.89-1.93,2.8,2.8,0,0,0-2.4,1.1,5,5,0,0,0-.82,3,5,5,0,0,0,.82,3,2.82,2.82,0,0,0,2.4,1.09A3.08,3.08,0,0,0,211,170.19Z"/><path class="cls-2" d="M221.93,171.75a5,5,0,0,1-1.27-3.66v-7.82h2.77v7.91a2.36,2.36,0,0,0,.59,1.73,2.25,2.25,0,0,0,1.69.62,2.14,2.14,0,0,0,2.33-2.35v-7.91h2.76V168a5.38,5.38,0,0,1-8.87,3.74Z"/><path class="cls-2" d="M238.85,172.6a3.88,3.88,0,0,1-1.86-1.38,4.3,4.3,0,0,1-.73-2.61H239a2.14,2.14,0,0,0,.7,1.67,2.6,2.6,0,0,0,1.72.54,2.47,2.47,0,0,0,1.47-.39,1.3,1.3,0,0,0,.53-1.11,1.24,1.24,0,0,0-.39-1,2.64,2.64,0,0,0-1-.55c-.38-.13-.92-.27-1.64-.44a13.71,13.71,0,0,1-2-.62,3.49,3.49,0,0,1-1.35-1,2.92,2.92,0,0,1-.55-1.86,3.41,3.41,0,0,1,2.14-3.33,5.76,5.76,0,0,1,2.35-.45,7.08,7.08,0,0,1,2.2.35,3.84,3.84,0,0,1,1.78,1.21,3.48,3.48,0,0,1,.73,2.3H243a1.76,1.76,0,0,0-.56-1.37,2.27,2.27,0,0,0-1.48-.45,2.2,2.2,0,0,0-1.34.36,1.19,1.19,0,0,0-.48,1,1,1,0,0,0,.34.81,2.32,2.32,0,0,0,.86.48c.35.11.84.24,1.47.38a15.9,15.9,0,0,1,2.21.63,3.68,3.68,0,0,1,1.5,1.11,3.17,3.17,0,0,1,.62,2.07,4,4,0,0,1-.56,2.11A3.61,3.61,0,0,1,244,172.5a6.23,6.23,0,0,1-2.65.51A7.27,7.27,0,0,1,238.85,172.6Z"/></svg>