<svg id="Layer_1" data-name="Layer 1" xmlns="http://www.w3.org/2000/svg" viewBox="0 0 300 300"><defs><style>.cls-1{fill:#231f20;}.cls-2{fill:none;stroke:#231f20;stroke-width:5px;}</style></defs><title>FSC_ICONS</title><path class="cls-1" d="M33.46,204.6h4.36l4,11.59,3.95-11.59h4.34v14.73H47.28v-12H47.2l-4.09,12h-2.7l-4.07-12h-.1v12H33.46Z"/><path class="cls-1" d="M64,215.49H58.58l-1.21,3.84h-3l5.06-14.73h3.72l5,14.73h-3Zm-.71-2.24-2-6.17h-.08l-2,6.17Z"/><path class="cls-1" d="M72.5,204.6h5.38q3.74,0,5.56,1.92A7.7,7.7,0,0,1,85.26,212a7.35,7.35,0,0,1-1.86,5.41,7.46,7.46,0,0,1-5.54,1.88H72.5Zm5.11,12.33a4.91,4.91,0,0,0,3.73-1.24,5.34,5.34,0,0,0,1.16-3.76,5.4,5.4,0,0,0-1.11-3.7A4.51,4.51,0,0,0,77.84,207H75.27v9.94Z"/><path class="cls-1" d="M90.11,204.6h10.71V207H92.88v3.8h7.32v2.37H92.88V217h8.37v2.36H90.11Z"/><path class="cls-1" d="M113.36,204.6h2.77v14.73h-2.77Z"/><path class="cls-1" d="M121.92,204.6H125l6.59,10.82h.09V204.6h2.78v14.73h-3.15l-6.54-10.82h-.1v10.82h-2.77Z"/><path class="cls-1" d="M155.7,215.49h-5.42l-1.21,3.84h-3l5.06-14.73h3.72l5,14.73h-3Zm-.71-2.24-2-6.17H153l-2,6.17Z"/><path class="cls-1" d="M165.7,218.87a4.44,4.44,0,0,1-1.92-1.94,6.8,6.8,0,0,1-.63-3.05V204.6h2.78V214a3.14,3.14,0,0,0,.76,2.25,2.8,2.8,0,0,0,2.13.8,2.87,2.87,0,0,0,2.17-.81,3.08,3.08,0,0,0,.78-2.24V204.6h2.78v9.16a5.88,5.88,0,0,1-1.46,4.27,5.66,5.66,0,0,1-4.27,1.51A6.72,6.72,0,0,1,165.7,218.87Z"/><path class="cls-1" d="M182,219a4.51,4.51,0,0,1-2.12-1.62,5.06,5.06,0,0,1-.83-3h2.73a2.84,2.84,0,0,0,.88,2.2,3.34,3.34,0,0,0,2.22.71,3.17,3.17,0,0,0,1.94-.53,1.77,1.77,0,0,0,.69-1.5,1.7,1.7,0,0,0-.48-1.26,3.25,3.25,0,0,0-1.18-.7c-.47-.15-1.14-.34-2-.55a16.64,16.64,0,0,1-2.34-.72,4,4,0,0,1-1.56-1.18,3.33,3.33,0,0,1-.63-2.13,4.13,4.13,0,0,1,.64-2.33,4,4,0,0,1,1.78-1.48,6.24,6.24,0,0,1,2.63-.52,7.74,7.74,0,0,1,2.49.41,4.29,4.29,0,0,1,2,1.38,4,4,0,0,1,.83,2.6h-2.67a2.18,2.18,0,0,0-.75-1.73,3.35,3.35,0,0,0-3.6-.09,1.64,1.64,0,0,0-.64,1.37,1.42,1.42,0,0,0,.42,1.07,2.74,2.74,0,0,0,1.06.64,16.93,16.93,0,0,0,1.74.48,22,22,0,0,1,2.61.75,4.29,4.29,0,0,1,1.72,1.25,3.55,3.55,0,0,1,.72,2.35,4.58,4.58,0,0,1-.64,2.42,4.27,4.27,0,0,1-1.88,1.64,7.07,7.07,0,0,1-3,.58A8.09,8.09,0,0,1,182,219Z"/><path class="cls-1" d="M197.81,207h-4.57V204.6h11.92V207h-4.58v12.37h-2.77Z"/><path class="cls-1" d="M221.5,219.33h-2.81l-.64-3.57a5,5,0,0,0-.58-1.79,1.83,1.83,0,0,0-1.17-.74,12.62,12.62,0,0,0-2.62-.19h-1.41v6.31h-2.76V204.6h6.59a6.88,6.88,0,0,1,2.79.52,3.81,3.81,0,0,1,1.74,1.46,4.22,4.22,0,0,1,.59,2.29,3.81,3.81,0,0,1-.64,2.33,3.46,3.46,0,0,1-2,1.2,2.7,2.7,0,0,1,1.47,1,5.24,5.24,0,0,1,.72,2Zm-9.21-8.45h4a2.31,2.31,0,0,0,1.64-.53,1.85,1.85,0,0,0,.55-1.42,1.79,1.79,0,0,0-.6-1.45,2.63,2.63,0,0,0-1.75-.51h-3.81Z"/><path class="cls-1" d="M234.63,215.49h-5.42L228,219.33h-3l5.06-14.73h3.72l5.06,14.73h-3Zm-.71-2.24-2-6.17h-.09l-2,6.17Z"/><path class="cls-1" d="M243.13,204.6h2.77V217h7v2.37h-9.81Z"/><path class="cls-1" d="M257.32,204.6h2.77v14.73h-2.77Z"/><path class="cls-1" d="M274,215.49h-5.42l-1.21,3.84h-3l5-14.73h3.72l5.06,14.73h-3Zm-.71-2.24-2-6.17h-.09l-1.95,6.17Z"/><path class="cls-1" d="M129,114.73h13.7l10,30.07,9.95-30.07h13.67v40.5h-8.86V123.62h-.26L156.7,155.23h-8.08l-10.43-31.61h-.29v31.61H129Z"/><path class="cls-2" d="M155.2,179.83A44.85,44.85,0,1,0,110.35,135,44.84,44.84,0,0,0,155.2,179.83Z"/><path class="cls-2" d="M155.2,179.83c45.05,0,81.58-20.08,81.58-44.85S200.25,90.14,155.2,90.14,73.62,110.22,73.62,135,110.14,179.83,155.2,179.83Z"/><path class="cls-2" d="M155.2,179.83c63.57,0,115.11-20.08,115.11-44.85S218.77,90.14,155.2,90.14,40.09,110.22,40.09,135,91.62,179.83,155.2,179.83Z"/><line class="cls-2" x1="37.84" y1="134.98" x2="109.09" y2="134.98"/><line class="cls-2" x1="201.18" y1="134.98" x2="268.36" y2="134.98"/><line class="cls-2" x1="30.28" y1="192.98" x2="280.12" y2="192.98"/></svg>