<?xml version="1.0" encoding="utf-8"?>
<!-- Generator: Adobe Illustrator 24.0.2, SVG Export Plug-In . SVG Version: 6.00 Build 0)  -->
<svg version="1.1" id="Layer_1" xmlns="http://www.w3.org/2000/svg" xmlns:xlink="http://www.w3.org/1999/xlink" x="0px" y="0px"
	 viewBox="0 0 1200 1200" style="enable-background:new 0 0 1200 1200;" xml:space="preserve">
<g>
	<defs>
		<path id="SVGID_1_" d="M688.1,40.94c16.14,5.36,4.18,23.82,4.71,23.28c12.93,9.66,0.03,22.21,0.03,22.75
			c12.94,16.66-1.68,27.97-1.68,27.97l0.28,0l32.64,245.74c0,0,5.44,41.95,26.99,64.5c14.19,14.87,35.57,48.9,35.67,110.74
			c0.09,61.85,0.73,485.67,0.73,485.67s4.38,52.7-3.11,77.98c-7.5,25.29-10.26,35.37-27.92,39.3
			c-143.69,31.95-254.53,0.38-254.53,0.38c-16.69-6.96-20.46-13.95-28.03-39.22c-7.57-25.25-3.34-77.97-3.34-77.97
			s-0.63-423.82-0.73-485.67c-0.09-61.84,21.18-95.94,35.33-110.85c21.48-22.61,26.8-64.58,26.8-64.58l31.9-245.84
			c0,0-14.65-11.26-1.76-27.96c0-0.54-12.94-13.05-0.03-22.75c0.53,0.54-10.58-17.89,5.55-23.3
			C557.36,44.02,617.83,30.62,688.1,40.94z"/>
	</defs>
	<use xlink:href="#SVGID_1_"  style="overflow:visible;fill:#FFFFFF;"/>
	<clipPath id="SVGID_2_">
		<use xlink:href="#SVGID_1_"  style="overflow:visible;"/>
	</clipPath>
</g>
</svg>
