<svg xmlns="http://www.w3.org/2000/svg" viewBox="0 0 705.91 65.43"><defs><style>.cls-1{fill:#fff;}.cls-2{fill:#010101;}.cls-3{fill:#24a6d1;}.cls-4{fill:#606469;}.cls-5{fill:#557ebf;}.cls-6{fill:#36a852;}.cls-7{fill:#f8bb16;}.cls-8{fill:#e94335;}.cls-9{fill:#f26122;}.cls-10{fill:#ea1d25;}.cls-11{fill:#f69e1e;}.cls-12{fill:#253d80;}.cls-13{fill:#189bd7;}.cls-14{fill:#242e65;}.cls-15{fill:#0066b3;}.cls-16{fill:#faa634;}</style></defs><title>FSC_WEB_PAYMENT_ICONS</title><g id="Layer_2" data-name="Layer 2"><path class="cls-1" d="M416.92,418.51h1.89a10.63,10.63,0,0,1,1.72.15,5.48,5.48,0,0,1,1.45.47,4.8,4.8,0,0,1,2.09,2.09,5.44,5.44,0,0,1,.47,1.46,10.42,10.42,0,0,1,.15,1.71c0,.28,0,.57,0,.86s0,.69,0,1v47.12c0,.34,0,.69,0,1s0,.57,0,.85a10.63,10.63,0,0,1-.15,1.72,5,5,0,0,1-.47,1.45,4.8,4.8,0,0,1-2.09,2.09,5,5,0,0,1-1.45.47,11,11,0,0,1-1.72.15H331.13a11,11,0,0,1-1.72-.15,4.93,4.93,0,0,1-1.45-.47,4.82,4.82,0,0,1-1.21-.88,4.93,4.93,0,0,1-.88-1.21,5.37,5.37,0,0,1-.48-1.45,11,11,0,0,1-.14-1.72c0-.28,0-.57,0-.85v-49.2c0-.29,0-.57,0-.86a11.82,11.82,0,0,1,.14-1.72,5.37,5.37,0,0,1,.48-1.45,4.8,4.8,0,0,1,2.09-2.09,4.93,4.93,0,0,1,1.45-.47,12.35,12.35,0,0,1,1.72-.15h85.79" transform="translate(-203.13 -417.14)"/><path class="cls-2" d="M416.92,418.51h1.89a10.63,10.63,0,0,1,1.72.15,5.48,5.48,0,0,1,1.45.47,4.8,4.8,0,0,1,2.09,2.09,5.44,5.44,0,0,1,.47,1.46,10.42,10.42,0,0,1,.15,1.71c0,.28,0,.57,0,.86s0,.69,0,1v47.12c0,.34,0,.69,0,1s0,.57,0,.85a10.63,10.63,0,0,1-.15,1.72,5,5,0,0,1-.47,1.45,4.8,4.8,0,0,1-2.09,2.09,5,5,0,0,1-1.45.47,11,11,0,0,1-1.72.15H331.13a11,11,0,0,1-1.72-.15,4.93,4.93,0,0,1-1.45-.47,4.82,4.82,0,0,1-1.21-.88,4.93,4.93,0,0,1-.88-1.21,5.37,5.37,0,0,1-.48-1.45,11,11,0,0,1-.14-1.72c0-.28,0-.57,0-.85v-49.2c0-.29,0-.57,0-.86a11.82,11.82,0,0,1,.14-1.72,5.37,5.37,0,0,1,.48-1.45,4.8,4.8,0,0,1,2.09-2.09,4.93,4.93,0,0,1,1.45-.47,12.35,12.35,0,0,1,1.72-.15h85.79m0-1.37H332l-.88,0a12.34,12.34,0,0,0-1.92.17,6.55,6.55,0,0,0-1.83.6,6.16,6.16,0,0,0-2.68,2.69,6.51,6.51,0,0,0-.61,1.82,13.84,13.84,0,0,0-.17,1.93c0,.29,0,.58,0,.88v49.22c0,.29,0,.58,0,.88a12.47,12.47,0,0,0,.18,1.92,6.34,6.34,0,0,0,.6,1.83,6.09,6.09,0,0,0,2.68,2.68,6.34,6.34,0,0,0,1.83.6,11.23,11.23,0,0,0,1.92.17l.88,0h86l.89,0a11.32,11.32,0,0,0,1.92-.17,6.34,6.34,0,0,0,1.83-.6,6.14,6.14,0,0,0,2.68-2.68,6.34,6.34,0,0,0,.6-1.83,12.45,12.45,0,0,0,.17-1.92c0-.3,0-.59,0-.88V425.25c0-.3,0-.59,0-.89a12.45,12.45,0,0,0-.17-1.92,6.66,6.66,0,0,0-.6-1.83,6.19,6.19,0,0,0-2.68-2.68,6.66,6.66,0,0,0-1.83-.6,12.45,12.45,0,0,0-1.92-.17l-.89,0Z" transform="translate(-203.13 -417.14)"/><path class="cls-2" d="M353.14,436.77a5.93,5.93,0,0,0,1.41-4.31,6,6,0,0,0-4,2.05,5.62,5.62,0,0,0-1.43,4.18A5,5,0,0,0,353.14,436.77Zm3.92,10.05a6.13,6.13,0,0,1,2.92-5.15A6.34,6.34,0,0,0,355,439c-2.11-.2-4.11,1.24-5.18,1.24s-2.71-1.2-4.46-1.17a6.63,6.63,0,0,0-5.59,3.39c-2.38,4.15-.61,10.28,1.71,13.63,1.14,1.64,2.49,3.49,4.27,3.42s2.36-1.11,4.43-1.11,2.66,1.11,4.46,1.08,3-1.68,4.14-3.33a14.94,14.94,0,0,0,1.87-3.84,6,6,0,0,1-3.63-5.48ZM379,436.77a6.84,6.84,0,0,0-2.64-1.53,11.94,11.94,0,0,0-3.75-.53,25.2,25.2,0,0,0-2.75.15c-.77.08-1.53.19-2.28.32l-.23,0v24.08h2.2V449.15a14.78,14.78,0,0,0,2.52.19,12.34,12.34,0,0,0,3.47-.47,7.79,7.79,0,0,0,2.78-1.45,7,7,0,0,0,1.85-2.41,7.78,7.78,0,0,0,.68-3.34,7.39,7.39,0,0,0-.49-2.79,6.37,6.37,0,0,0-1.36-2.11Zm-2,9.2a7.25,7.25,0,0,1-4.75,1.42,15.37,15.37,0,0,1-1.57-.07,6.94,6.94,0,0,1-1.11-.18V436.9l1.08-.15a17.74,17.74,0,0,1,1.91-.08,9.32,9.32,0,0,1,2.52.32,5.7,5.7,0,0,1,1.93.95,4.1,4.1,0,0,1,1.23,1.58,5.62,5.62,0,0,1,.43,2.3A5.15,5.15,0,0,1,377,446ZM394,457c0-.68,0-1.37,0-2.05V448.3a12.39,12.39,0,0,0-.24-2.41,6.09,6.09,0,0,0-.91-2.24A5.16,5.16,0,0,0,391,442a6.36,6.36,0,0,0-3-.63,9.64,9.64,0,0,0-2.59.35,8.1,8.1,0,0,0-2.43,1.15l-.18.12.75,1.74.27-.18a7.24,7.24,0,0,1,1.9-.91,7.15,7.15,0,0,1,2.11-.32,4.2,4.2,0,0,1,2.17.49,3.29,3.29,0,0,1,1.18,1.23,4.65,4.65,0,0,1,.53,1.56,11.11,11.11,0,0,1,.12,1.52v.19c-3.26,0-5.81.53-7.5,1.62a5.45,5.45,0,0,0-2.67,4.83,5.31,5.31,0,0,0,.32,1.78,4.37,4.37,0,0,0,1,1.59,4.65,4.65,0,0,0,1.63,1.13,5.76,5.76,0,0,0,2.28.42,6.39,6.39,0,0,0,3.46-.94,6.67,6.67,0,0,0,1.19-.94,6,6,0,0,0,.42-.46h.09l.2,2h2.12l-.06-.31A12.65,12.65,0,0,1,394,457Zm-2.23-3.43a4.07,4.07,0,0,1-.16.94,5.25,5.25,0,0,1-.6,1.18,4.55,4.55,0,0,1-2.3,1.74,5.52,5.52,0,0,1-1.76.26,3.53,3.53,0,0,1-1.16-.19,2.84,2.84,0,0,1-1.66-1.58,3.75,3.75,0,0,1-.26-1.47,3.33,3.33,0,0,1,.75-2.26,5,5,0,0,1,2-1.33,10.52,10.52,0,0,1,2.65-.61c.84-.08,1.69-.11,2.54-.11v3.43Zm17.15-11.85-4.1,11.15c-.26.68-.5,1.36-.71,2l-.31.94h-.08c-.1-.33-.21-.65-.31-1-.21-.65-.44-1.29-.68-1.91l-4.39-11.22H396l6.28,16.14a1.76,1.76,0,0,1,.18.64,2.1,2.1,0,0,1-.19.64,11.61,11.61,0,0,1-1.33,2.48,14.74,14.74,0,0,1-1.37,1.65,8,8,0,0,1-1.47,1.16c-.51.3-1,.54-1.39.73l-.24.11.77,1.85.24-.09c.2-.07.57-.24,1.14-.52a8.91,8.91,0,0,0,1.88-1.33,9.61,9.61,0,0,0,1.58-1.79,20.71,20.71,0,0,0,1.39-2.31c.45-.87.89-1.85,1.33-2.93s.91-2.29,1.4-3.59l5.07-12.84Z" transform="translate(-203.13 -417.14)"/><path class="cls-3" d="M296.17,418.51h1.9a10.63,10.63,0,0,1,1.72.15,5.48,5.48,0,0,1,1.45.47,4.72,4.72,0,0,1,2.08,2.09,5.11,5.11,0,0,1,.48,1.46,13.2,13.2,0,0,1,.15,1.71c0,.28,0,.57,0,.86v49.2c0,.28,0,.57,0,.85a13.5,13.5,0,0,1-.15,1.72,5.37,5.37,0,0,1-.48,1.45,4.75,4.75,0,0,1-2.09,2.09,4.87,4.87,0,0,1-1.44.47,11,11,0,0,1-1.72.15H210.39a11,11,0,0,1-1.72-.15,4.81,4.81,0,0,1-2.66-1.35,4.69,4.69,0,0,1-.88-1.21,5.37,5.37,0,0,1-.48-1.45,12.35,12.35,0,0,1-.15-1.72c0-.28,0-.57,0-.85v-49.2c0-.29,0-.57,0-.86a13.5,13.5,0,0,1,.15-1.72,5.37,5.37,0,0,1,.48-1.45,4.8,4.8,0,0,1,3.54-2.56,12.22,12.22,0,0,1,1.72-.15h85.78" transform="translate(-203.13 -417.14)"/><path class="cls-3" d="M296.17,418.51h1.9a10.63,10.63,0,0,1,1.72.15,5.48,5.48,0,0,1,1.45.47,4.72,4.72,0,0,1,2.08,2.09,5.11,5.11,0,0,1,.48,1.46,13.2,13.2,0,0,1,.15,1.71c0,.28,0,.57,0,.86v49.2c0,.28,0,.57,0,.85a13.5,13.5,0,0,1-.15,1.72,5.37,5.37,0,0,1-.48,1.45,4.75,4.75,0,0,1-2.09,2.09,4.87,4.87,0,0,1-1.44.47,11,11,0,0,1-1.72.15H210.39a11,11,0,0,1-1.72-.15,4.81,4.81,0,0,1-2.66-1.35,4.69,4.69,0,0,1-.88-1.21,5.37,5.37,0,0,1-.48-1.45,12.35,12.35,0,0,1-.15-1.72c0-.28,0-.57,0-.85v-49.2c0-.29,0-.57,0-.86a13.5,13.5,0,0,1,.15-1.72,5.37,5.37,0,0,1,.48-1.45,4.8,4.8,0,0,1,3.54-2.56,12.22,12.22,0,0,1,1.72-.15h85.78m0-1.37H211.23l-.88,0a12.24,12.24,0,0,0-1.92.17,6.45,6.45,0,0,0-1.83.6,6.14,6.14,0,0,0-2.69,2.69,6.49,6.49,0,0,0-.6,1.82,13.84,13.84,0,0,0-.17,1.93c0,.29,0,.58,0,.88v49.22c0,.29,0,.58,0,.88a13.83,13.83,0,0,0,.17,1.92,7,7,0,0,0,.6,1.83,6.21,6.21,0,0,0,4.52,3.28,11.23,11.23,0,0,0,1.92.17l.88,0h86l.88,0a11.35,11.35,0,0,0,1.93-.17,6.18,6.18,0,0,0,1.82-.6,6.11,6.11,0,0,0,2.69-2.68,6.34,6.34,0,0,0,.6-1.83,13.83,13.83,0,0,0,.17-1.92c0-.3,0-.59,0-.88s0-.7,0-1.05V426.3c0-.35,0-.7,0-1.05s0-.59,0-.89a13.83,13.83,0,0,0-.17-1.92,6.66,6.66,0,0,0-.6-1.83,6.16,6.16,0,0,0-2.69-2.68,6.49,6.49,0,0,0-1.82-.6,12.47,12.47,0,0,0-1.93-.17l-.88,0Z" transform="translate(-203.13 -417.14)"/><path class="cls-1" d="M223.59,439.73l-8.93,19.76h10.69l1.33-3.15h3l1.32,3.15H242.8v-2.4l1,2.4h6.09l1-2.45v2.45h24.48l3-3.07,2.79,3.07,12.57,0-9-9.85,9-9.94H281.42l-2.9,3-2.7-3H249.2l-2.29,5.1-2.34-5.1H233.9v2.32l-1.18-2.32Zm2.07,2.81h5.21l5.93,13.4v-13.4h5.7l4.58,9.61,4.22-9.61H257v14.18h-3.46l0-11.11-5,11.11h-3.09l-5.07-11.11v11.11h-7.11l-1.34-3.18h-7.29l-1.34,3.18H219.4Zm34.48,0h14.05l4.3,4.64,4.44-4.64h4.3l-6.54,7.13,6.54,7h-4.5l-4.3-4.7-4.46,4.7H260.14V442.54Zm-31.94,2.4-2.4,5.66h4.79Zm35.41.53v2.59h7.67V451h-7.67v2.82h8.6l4-4.16-3.82-4.14Z" transform="translate(-203.13 -417.14)"/><path class="cls-1" d="M537.66,418.51h1.89a10.63,10.63,0,0,1,1.72.15,5.48,5.48,0,0,1,1.45.47,4.79,4.79,0,0,1,2.56,3.55,10.42,10.42,0,0,1,.15,1.71c0,.28,0,.57,0,.86v49.2c0,.28,0,.57,0,.85a10.63,10.63,0,0,1-.15,1.72,5,5,0,0,1-.47,1.45,4.8,4.8,0,0,1-2.09,2.09,5,5,0,0,1-1.45.47,11,11,0,0,1-1.71.15H451.87a11,11,0,0,1-1.72-.15,5,5,0,0,1-1.45-.47,4.82,4.82,0,0,1-1.21-.88,5.21,5.21,0,0,1-.88-1.21,5,5,0,0,1-.47-1.45,11,11,0,0,1-.15-1.72c0-.28,0-.57,0-.85v-49.2c0-.29,0-.57,0-.86a10.63,10.63,0,0,1,.15-1.72,5,5,0,0,1,.47-1.45,4.8,4.8,0,0,1,2.09-2.09,5,5,0,0,1,1.45-.47,12.35,12.35,0,0,1,1.72-.15h85.79" transform="translate(-203.13 -417.14)"/><path class="cls-4" d="M537.66,418.51h1.89a10.63,10.63,0,0,1,1.72.15,5.48,5.48,0,0,1,1.45.47,4.79,4.79,0,0,1,2.56,3.55,10.42,10.42,0,0,1,.15,1.71c0,.28,0,.57,0,.86v49.2c0,.28,0,.57,0,.85a10.63,10.63,0,0,1-.15,1.72,5,5,0,0,1-.47,1.45,4.8,4.8,0,0,1-2.09,2.09,5,5,0,0,1-1.45.47,11,11,0,0,1-1.71.15H451.87a11,11,0,0,1-1.72-.15,5,5,0,0,1-1.45-.47,4.82,4.82,0,0,1-1.21-.88,5.21,5.21,0,0,1-.88-1.21,5,5,0,0,1-.47-1.45,11,11,0,0,1-.15-1.72c0-.28,0-.57,0-.85v-49.2c0-.29,0-.57,0-.86a10.63,10.63,0,0,1,.15-1.72,5,5,0,0,1,.47-1.45,4.8,4.8,0,0,1,2.09-2.09,5,5,0,0,1,1.45-.47,12.35,12.35,0,0,1,1.72-.15h85.79m0-1.37H452.72l-.89,0a12.45,12.45,0,0,0-1.92.17,6.66,6.66,0,0,0-1.83.6,6.22,6.22,0,0,0-3.28,4.51,11.35,11.35,0,0,0-.17,1.93c0,.29,0,.58,0,.88v49.22c0,.29,0,.58,0,.88a12.45,12.45,0,0,0,.17,1.92,6.34,6.34,0,0,0,.6,1.83,6.22,6.22,0,0,0,4.51,3.28,11.32,11.32,0,0,0,1.92.17l.89,0h86l.88,0a11.23,11.23,0,0,0,1.92-.17,6.24,6.24,0,0,0,1.83-.6A6,6,0,0,0,546,479.1a6.68,6.68,0,0,0,.61-1.83,12.43,12.43,0,0,0,.16-1.92c0-.3,0-.59,0-.88V425.25c0-.3,0-.59,0-.89a12.43,12.43,0,0,0-.16-1.92,6.68,6.68,0,0,0-.61-1.83,6.14,6.14,0,0,0-2.68-2.68,6.55,6.55,0,0,0-1.83-.6,12.34,12.34,0,0,0-1.92-.17l-.88,0Z" transform="translate(-203.13 -417.14)"/><g id="GPay-Light-themed-buttons"><g id="GPAY---SVGs"><g id="GPay-Brand-Mark"><g id="GPay"><g id="Pay"><path id="Fill-1" class="cls-4" d="M493.64,442.22v7.67h4.73a3.74,3.74,0,0,0,2.8-1.14,3.85,3.85,0,0,0-2.8-6.53Zm0,10.37v8.9h-2.82v-22h7.49a6.75,6.75,0,0,1,4.85,1.9,6.34,6.34,0,0,1,0,9.3,6.8,6.8,0,0,1-4.85,1.87Z" transform="translate(-203.13 -417.14)"/><path id="Fill-3" class="cls-4" d="M508.05,456.88a2.25,2.25,0,0,0,.93,1.84,3.48,3.48,0,0,0,2.2.74,4.52,4.52,0,0,0,3.18-1.32,4.13,4.13,0,0,0,1.39-3.1,5.84,5.84,0,0,0-3.68-1,4.78,4.78,0,0,0-2.87.83,2.44,2.44,0,0,0-1.15,2.05M511.7,446a7,7,0,0,1,4.95,1.67,5.94,5.94,0,0,1,1.81,4.59v9.27h-2.7V459.4h-.13A5.37,5.37,0,0,1,511,462a6.06,6.06,0,0,1-4.17-1.48,4.7,4.7,0,0,1-1.67-3.68,4.48,4.48,0,0,1,1.76-3.71,7.46,7.46,0,0,1,4.72-1.38,8.35,8.35,0,0,1,4.14.92V452a3.21,3.21,0,0,0-1.16-2.5,4,4,0,0,0-2.74-1,4.32,4.32,0,0,0-3.74,2l-2.49-1.56a6.93,6.93,0,0,1,6.08-3" transform="translate(-203.13 -417.14)"/><g id="Group-7"><polygon id="Fill-5" class="cls-4" points="330.84 29.31 321.41 50.97 318.49 50.97 322 43.39 315.79 29.31 318.86 29.31 323.35 40.11 323.41 40.11 327.77 29.31 330.84 29.31"/></g></g><g id="G"><path id="Fill-8" class="cls-5" d="M482.22,450.67a15.28,15.28,0,0,0-.21-2.57H470.09V453h6.83a5.85,5.85,0,0,1-2.53,3.84V460h4.08a12.36,12.36,0,0,0,3.75-9.29" transform="translate(-203.13 -417.14)"/><path id="Fill-10" class="cls-6" d="M470.09,463a12.12,12.12,0,0,0,8.38-3.05l-4.08-3.16a7.63,7.63,0,0,1-4.3,1.21A7.55,7.55,0,0,1,463,452.8h-4.2v3.25a12.65,12.65,0,0,0,11.29,7" transform="translate(-203.13 -417.14)"/><path id="Fill-12" class="cls-7" d="M463,452.8a7.49,7.49,0,0,1,0-4.83v-3.26h-4.2a12.58,12.58,0,0,0,0,11.34Z" transform="translate(-203.13 -417.14)"/><path id="Fill-14" class="cls-8" d="M470.09,442.76a6.89,6.89,0,0,1,4.85,1.89h0l3.6-3.6a12.12,12.12,0,0,0-8.45-3.29,12.64,12.64,0,0,0-11.29,6.95L463,448a7.54,7.54,0,0,1,7.09-5.21" transform="translate(-203.13 -417.14)"/></g></g></g></g></g><path class="cls-1" d="M658.4,418.51h1.9a10.51,10.51,0,0,1,1.71.15,5.25,5.25,0,0,1,1.45.47,4.75,4.75,0,0,1,2.09,2.09,5.11,5.11,0,0,1,.48,1.46,11.58,11.58,0,0,1,.14,1.71c0,.28,0,.57,0,.86v49.2c0,.28,0,.57,0,.85A11.82,11.82,0,0,1,666,477a5.37,5.37,0,0,1-.48,1.45,4.8,4.8,0,0,1-2.09,2.09A4.93,4.93,0,0,1,662,481a10.87,10.87,0,0,1-1.71.15H572.61a10.87,10.87,0,0,1-1.71-.15,5,5,0,0,1-1.46-.47,5.21,5.21,0,0,1-1.21-.88,4.89,4.89,0,0,1-.87-1.21,5,5,0,0,1-.48-1.45,12.35,12.35,0,0,1-.15-1.72c0-.28,0-.57,0-.85v-49.2c0-.29,0-.57,0-.86a11.89,11.89,0,0,1,.15-1.72,4.76,4.76,0,0,1,.48-1.45,4.7,4.7,0,0,1,2.09-2.09,4.87,4.87,0,0,1,1.44-.47,12.48,12.48,0,0,1,1.72-.15H658.4" transform="translate(-203.13 -417.14)"/><path class="cls-4" d="M658.4,418.51h1.9a10.51,10.51,0,0,1,1.71.15,5.25,5.25,0,0,1,1.45.47,4.75,4.75,0,0,1,2.09,2.09,5.11,5.11,0,0,1,.48,1.46,11.58,11.58,0,0,1,.14,1.71c0,.28,0,.57,0,.86v49.2c0,.28,0,.57,0,.85A11.82,11.82,0,0,1,666,477a5.37,5.37,0,0,1-.48,1.45,4.8,4.8,0,0,1-2.09,2.09A4.93,4.93,0,0,1,662,481a10.87,10.87,0,0,1-1.71.15H572.61a10.87,10.87,0,0,1-1.71-.15,5,5,0,0,1-1.46-.47,5.21,5.21,0,0,1-1.21-.88,4.89,4.89,0,0,1-.87-1.21,5,5,0,0,1-.48-1.45,12.35,12.35,0,0,1-.15-1.72c0-.28,0-.57,0-.85v-49.2c0-.29,0-.57,0-.86a11.89,11.89,0,0,1,.15-1.72,4.76,4.76,0,0,1,.48-1.45,4.7,4.7,0,0,1,2.09-2.09,4.87,4.87,0,0,1,1.44-.47,12.48,12.48,0,0,1,1.72-.15H658.4m0-1.37H573.46l-.88,0a12.47,12.47,0,0,0-1.93.17,6.49,6.49,0,0,0-1.82.6,6.14,6.14,0,0,0-2.69,2.69,6.49,6.49,0,0,0-.6,1.82,12.47,12.47,0,0,0-.17,1.93c0,.29,0,.58,0,.88v49.22c0,.29,0,.58,0,.88a13.83,13.83,0,0,0,.17,1.92,6.34,6.34,0,0,0,.6,1.83,6.22,6.22,0,0,0,4.51,3.28,11.35,11.35,0,0,0,1.93.17l.88,0h86l.88,0a11.23,11.23,0,0,0,1.92-.17,6.24,6.24,0,0,0,1.83-.6,6.11,6.11,0,0,0,2.69-2.68,6.66,6.66,0,0,0,.6-1.83,13.83,13.83,0,0,0,.17-1.92c0-.3,0-.59,0-.88V425.25c0-.3,0-.59,0-.89a13.83,13.83,0,0,0-.17-1.92,6.66,6.66,0,0,0-.6-1.83,6.16,6.16,0,0,0-2.69-2.68,6.55,6.55,0,0,0-1.83-.6,12.24,12.24,0,0,0-1.92-.17l-.88,0Z" transform="translate(-203.13 -417.14)"/><rect class="cls-9" x="404.35" y="15.97" width="17.95" height="32.25"/><path class="cls-10" d="M608.62,449.24a20.57,20.57,0,0,1,7.81-16.13,20.51,20.51,0,1,0,0,32.26A20.51,20.51,0,0,1,608.62,449.24Z" transform="translate(-203.13 -417.14)"/><path class="cls-11" d="M649.65,449.24a20.5,20.5,0,0,1-33.17,16.13,20.56,20.56,0,0,0,0-32.26,20.49,20.49,0,0,1,33.17,16.13Z" transform="translate(-203.13 -417.14)"/><path class="cls-1" d="M779.14,418.51H781a10.63,10.63,0,0,1,1.72.15,5.48,5.48,0,0,1,1.45.47,4.8,4.8,0,0,1,2.09,2.09,5.44,5.44,0,0,1,.47,1.46,13.2,13.2,0,0,1,.15,1.71c0,.28,0,.57,0,.86v49.2c0,.28,0,.57,0,.85a13.5,13.5,0,0,1-.15,1.72,5.72,5.72,0,0,1-.47,1.45,4.85,4.85,0,0,1-3.54,2.56,11,11,0,0,1-1.72.15H693.36a11,11,0,0,1-1.72-.15,4.81,4.81,0,0,1-2.66-1.35,4.69,4.69,0,0,1-.88-1.21,5.37,5.37,0,0,1-.48-1.45,12.35,12.35,0,0,1-.15-1.72c0-.28,0-.57,0-.85v-49.2c0-.29,0-.57,0-.86a13.5,13.5,0,0,1,.15-1.72,5.37,5.37,0,0,1,.48-1.45,4.8,4.8,0,0,1,3.54-2.56,12.22,12.22,0,0,1,1.72-.15h85.78" transform="translate(-203.13 -417.14)"/><path class="cls-4" d="M779.14,418.51H781a10.63,10.63,0,0,1,1.72.15,5.48,5.48,0,0,1,1.45.47,4.8,4.8,0,0,1,2.09,2.09,5.44,5.44,0,0,1,.47,1.46,13.2,13.2,0,0,1,.15,1.71c0,.28,0,.57,0,.86v49.2c0,.28,0,.57,0,.85a13.5,13.5,0,0,1-.15,1.72,5.72,5.72,0,0,1-.47,1.45,4.85,4.85,0,0,1-3.54,2.56,11,11,0,0,1-1.72.15H693.36a11,11,0,0,1-1.72-.15,4.81,4.81,0,0,1-2.66-1.35,4.69,4.69,0,0,1-.88-1.21,5.37,5.37,0,0,1-.48-1.45,12.35,12.35,0,0,1-.15-1.72c0-.28,0-.57,0-.85v-49.2c0-.29,0-.57,0-.86a13.5,13.5,0,0,1,.15-1.72,5.37,5.37,0,0,1,.48-1.45,4.8,4.8,0,0,1,3.54-2.56,12.22,12.22,0,0,1,1.72-.15h85.78m0-1.37H694.2l-.88,0a12.24,12.24,0,0,0-1.92.17,6.55,6.55,0,0,0-1.83.6,6.14,6.14,0,0,0-2.69,2.69,6.49,6.49,0,0,0-.6,1.82,13.84,13.84,0,0,0-.17,1.93c0,.29,0,.58,0,.88v49.22c0,.29,0,.58,0,.88a13.83,13.83,0,0,0,.17,1.92,7,7,0,0,0,.6,1.83,6.16,6.16,0,0,0,2.69,2.68,6.24,6.24,0,0,0,1.83.6,11.23,11.23,0,0,0,1.92.17l.88,0h86l.88,0a11.35,11.35,0,0,0,1.93-.17,6.18,6.18,0,0,0,1.82-.6,6.11,6.11,0,0,0,2.69-2.68,6.34,6.34,0,0,0,.6-1.83,12.45,12.45,0,0,0,.17-1.92c0-.3,0-.59,0-.88s0-.7,0-1.05V426.3c0-.35,0-.7,0-1.05s0-.59,0-.89a12.45,12.45,0,0,0-.17-1.92,6.66,6.66,0,0,0-.6-1.83,6.16,6.16,0,0,0-2.69-2.68,6.49,6.49,0,0,0-1.82-.6,12.47,12.47,0,0,0-1.93-.17l-.88,0Z" transform="translate(-203.13 -417.14)"/><path class="cls-12" d="M729.69,468.36l.71-4.51-1.58,0h-7.57l5.26-33.33a.42.42,0,0,1,.43-.36h12.75c4.23,0,7.15.88,8.68,2.62a5.86,5.86,0,0,1,1.39,2.6,9.37,9.37,0,0,1,0,3.6l0,.1V440l.72.41a4.89,4.89,0,0,1,1.45,1.1,5.09,5.09,0,0,1,1.17,2.63,11.3,11.3,0,0,1-.16,3.83,13.73,13.73,0,0,1-1.57,4.33,9.08,9.08,0,0,1-2.48,2.72,10,10,0,0,1-3.34,1.5,16.77,16.77,0,0,1-4.18.49h-1a3,3,0,0,0-1.94.71,3,3,0,0,0-1,1.81l-.07.4-1.26,8-.05.29c0,.1,0,.14-.08.17a.24.24,0,0,1-.13.05Z" transform="translate(-203.13 -417.14)"/><path class="cls-13" d="M751.15,439.15c0,.24-.08.49-.13.75-1.69,8.63-7.44,11.61-14.79,11.61h-3.74a1.83,1.83,0,0,0-1.8,1.54l-1.91,12.15-.54,3.45a.94.94,0,0,0,.79,1.09h6.79a1.59,1.59,0,0,0,1.57-1.34l.07-.34,1.25-7.93.08-.43a1.59,1.59,0,0,1,1.58-1.35h1c6.43,0,11.46-2.61,12.93-10.17.62-3.15.3-5.79-1.33-7.64A6.16,6.16,0,0,0,751.15,439.15Z" transform="translate(-203.13 -417.14)"/><path class="cls-14" d="M749.39,438.45a13.38,13.38,0,0,0-1.64-.37,20.2,20.2,0,0,0-3.3-.24h-10a1.59,1.59,0,0,0-1.58,1.35l-2.13,13.47-.06.39a1.83,1.83,0,0,1,1.8-1.54h3.74c7.35,0,13.1-3,14.79-11.61.05-.26.09-.51.13-.75a8.92,8.92,0,0,0-1.39-.59Z" transform="translate(-203.13 -417.14)"/><path class="cls-12" d="M732.88,439.19a1.59,1.59,0,0,1,1.58-1.35h10a21.14,21.14,0,0,1,3.3.24,14.12,14.12,0,0,1,2,.48,9.55,9.55,0,0,1,1.38.59c.5-3.19,0-5.37-1.73-7.33-1.9-2.17-5.34-3.1-9.73-3.1H726.94a1.82,1.82,0,0,0-1.8,1.54l-5.32,33.68a1.11,1.11,0,0,0,.91,1.25h8l2-12.54Z" transform="translate(-203.13 -417.14)"/><path class="cls-1" d="M899.89,418.51h1.89a10.63,10.63,0,0,1,1.72.15,5.48,5.48,0,0,1,1.45.47,4.8,4.8,0,0,1,2.09,2.09,5.44,5.44,0,0,1,.47,1.46,10.42,10.42,0,0,1,.15,1.71c0,.28,0,.57,0,.86s0,.69,0,1v47.12c0,.34,0,.69,0,1s0,.57,0,.85a10.63,10.63,0,0,1-.15,1.72,5,5,0,0,1-.47,1.45,4.8,4.8,0,0,1-2.09,2.09,5,5,0,0,1-1.45.47,11,11,0,0,1-1.72.15H814.1a11,11,0,0,1-1.72-.15,5,5,0,0,1-1.45-.47,4.82,4.82,0,0,1-1.21-.88,4.93,4.93,0,0,1-.88-1.21,5,5,0,0,1-.47-1.45,9.91,9.91,0,0,1-.15-1.72c0-.28,0-.57,0-.85v-49.2c0-.29,0-.57,0-.86a10.63,10.63,0,0,1,.15-1.72,5,5,0,0,1,.47-1.45,4.8,4.8,0,0,1,2.09-2.09,5,5,0,0,1,1.45-.47,12.35,12.35,0,0,1,1.72-.15h85.79" transform="translate(-203.13 -417.14)"/><path class="cls-4" d="M899.89,418.51h1.89a10.63,10.63,0,0,1,1.72.15,5.48,5.48,0,0,1,1.45.47,4.8,4.8,0,0,1,2.09,2.09,5.44,5.44,0,0,1,.47,1.46,10.42,10.42,0,0,1,.15,1.71c0,.28,0,.57,0,.86s0,.69,0,1v47.12c0,.34,0,.69,0,1s0,.57,0,.85a10.63,10.63,0,0,1-.15,1.72,5,5,0,0,1-.47,1.45,4.8,4.8,0,0,1-2.09,2.09,5,5,0,0,1-1.45.47,11,11,0,0,1-1.72.15H814.1a11,11,0,0,1-1.72-.15,5,5,0,0,1-1.45-.47,4.82,4.82,0,0,1-1.21-.88,4.93,4.93,0,0,1-.88-1.21,5,5,0,0,1-.47-1.45,9.91,9.91,0,0,1-.15-1.72c0-.28,0-.57,0-.85v-49.2c0-.29,0-.57,0-.86a10.63,10.63,0,0,1,.15-1.72,5,5,0,0,1,.47-1.45,4.8,4.8,0,0,1,2.09-2.09,5,5,0,0,1,1.45-.47,12.35,12.35,0,0,1,1.72-.15h85.79m0-1.37H814.94l-.88,0a12.34,12.34,0,0,0-1.92.17,6.55,6.55,0,0,0-1.83.6,6.16,6.16,0,0,0-2.68,2.69,6.51,6.51,0,0,0-.61,1.82,13.84,13.84,0,0,0-.17,1.93c0,.29,0,.58,0,.88v49.22c0,.29,0,.58,0,.88a11.32,11.32,0,0,0,.17,1.92,6.34,6.34,0,0,0,.6,1.83,6.14,6.14,0,0,0,2.68,2.68,6.34,6.34,0,0,0,1.83.6,11.23,11.23,0,0,0,1.92.17l.88,0h86l.89,0a11.32,11.32,0,0,0,1.92-.17,6.34,6.34,0,0,0,1.83-.6,6.14,6.14,0,0,0,2.68-2.68,6.34,6.34,0,0,0,.6-1.83,12.45,12.45,0,0,0,.17-1.92c0-.3,0-.59,0-.88V425.25c0-.3,0-.59,0-.89a12.45,12.45,0,0,0-.17-1.92,6.34,6.34,0,0,0-.6-1.83,6.19,6.19,0,0,0-2.68-2.68,6.66,6.66,0,0,0-1.83-.6,12.45,12.45,0,0,0-1.92-.17l-.89,0Z" transform="translate(-203.13 -417.14)"/><polygon class="cls-15" points="649.76 44.36 643.56 44.36 647.44 20.55 653.63 20.55 649.76 44.36"/><path class="cls-15" d="M841.47,437.7l-5.91,16.37-.69-3.52h0l-2.09-10.71s-.25-2.14-2.94-2.14h-9.77l-.11.4a23.2,23.2,0,0,1,6.48,2.72l5.39,20.69h6.45l9.87-23.81Z" transform="translate(-203.13 -417.14)"/><path class="cls-15" d="M890.23,461.51h5.69l-5-23.81h-5a2.87,2.87,0,0,0-2.87,1.77l-9.24,22h6.46l1.29-3.54h7.88Zm-6.82-8.43,3.26-8.91,1.83,8.91Z" transform="translate(-203.13 -417.14)"/><path class="cls-15" d="M874.36,443.42l.88-5.11a17.88,17.88,0,0,0-5.58-1c-3.07,0-10.38,1.34-10.38,7.88,0,6.15,8.58,6.23,8.58,9.46s-7.69,2.65-10.23.61l-.92,5.35a17.25,17.25,0,0,0,7,1.35c4.23,0,10.62-2.2,10.62-8.16,0-6.19-8.65-6.76-8.65-9.45S871.7,442,874.36,443.42Z" transform="translate(-203.13 -417.14)"/><path class="cls-16" d="M834.87,450.55l-2.09-10.71s-.25-2.14-2.94-2.14h-9.77l-.11.4a24,24,0,0,1,9.2,4.62A18.6,18.6,0,0,1,834.87,450.55Z" transform="translate(-203.13 -417.14)"/></g></svg>