<?xml version="1.0" encoding="utf-8"?>
<!-- Generator: Adobe Illustrator 23.0.1, SVG Export Plug-In . SVG Version: 6.00 Build 0)  -->
<svg version="1.1" id="Layer_1" xmlns="http://www.w3.org/2000/svg" xmlns:xlink="http://www.w3.org/1999/xlink" x="0px" y="0px"
	 viewBox="0 0 200 130" style="enable-background:new 0 0 200 130;" xml:space="preserve">
<style type="text/css">
	.st0{fill:url(#SVGID_1_);}
	.st1{fill:url(#SVGID_2_);}
	.st2{fill:url(#SVGID_3_);}
	.st3{clip-path:url(#SVGID_5_);fill:url(#SVGID_6_);}
</style>
<title>FSC_ICONS</title>
<linearGradient id="SVGID_1_" gradientUnits="userSpaceOnUse" x1="-153.7216" y1="550.6373" x2="-152.7216" y2="550.6373" gradientTransform="matrix(116.554 0 0 -116.554 17919.8711 64296.0586)">
	<stop  offset="0" style="stop-color:#774619"/>
	<stop  offset="6.624680e-02" style="stop-color:#B28727"/>
	<stop  offset="0.1545" style="stop-color:#B28727"/>
	<stop  offset="0.2989" style="stop-color:#F4C283"/>
	<stop  offset="0.36" style="stop-color:#EAC57A"/>
	<stop  offset="0.4303" style="stop-color:#E5C775"/>
	<stop  offset="0.4892" style="stop-color:#996C24"/>
	<stop  offset="0.6051" style="stop-color:#996C24"/>
	<stop  offset="0.6051" style="stop-color:#996C24"/>
	<stop  offset="0.6161" style="stop-color:#B68B3D"/>
	<stop  offset="0.6268" style="stop-color:#CAA04F"/>
	<stop  offset="0.6372" style="stop-color:#D7AE5A"/>
	<stop  offset="0.6466" style="stop-color:#DBB25E"/>
	<stop  offset="0.6494" style="stop-color:#D6AB59"/>
	<stop  offset="0.6649" style="stop-color:#BF8943"/>
	<stop  offset="0.6796" style="stop-color:#AE7132"/>
	<stop  offset="0.6931" style="stop-color:#A46228"/>
	<stop  offset="0.7043" style="stop-color:#A05D25"/>
	<stop  offset="0.7149" style="stop-color:#A6652D"/>
	<stop  offset="0.7311" style="stop-color:#B57A41"/>
	<stop  offset="0.751" style="stop-color:#CF9D63"/>
	<stop  offset="0.7735" style="stop-color:#F1CD92"/>
	<stop  offset="0.7756" style="stop-color:#F5D297"/>
	<stop  offset="0.8468" style="stop-color:#DEB763"/>
	<stop  offset="0.8861" style="stop-color:#B38D42"/>
	<stop  offset="0.9116" style="stop-color:#B28C42"/>
	<stop  offset="0.9134" style="stop-color:#B48E41"/>
	<stop  offset="0.9237" style="stop-color:#BB933C"/>
	<stop  offset="0.9509" style="stop-color:#BD943B"/>
	<stop  offset="1" style="stop-color:#774619"/>
</linearGradient>
<path class="st0" d="M9.6,109.9h3.3l6,9.6H19v-9.6h3.1V124h-3.3l-6-9.5h-0.1v9.5H9.6V109.9z M35.4,120.7h-5.1l-1.1,3.3h-3.3
	l4.9-14.1h4.1l4.9,14.1h-3.3L35.4,120.7z M34.6,118.2l-1.7-5.4h-0.1l-1.7,5.4H34.6z M44.8,112.5h-4.2v-2.6h11.5v2.6h-4.2V124h-3.1
	V112.5z M61.3,124.2c-1.9,0-3.3-0.5-4.2-1.4c-0.9-1-1.4-2.3-1.4-4.1v-8.7h3.1v8.8c0,0.8,0.2,1.5,0.7,1.9c0.4,0.5,1.1,0.7,1.9,0.7
	c0.8,0,1.5-0.2,1.9-0.7c0.5-0.5,0.7-1.1,0.7-1.9v-8.8H67v8.6c0,1.8-0.5,3.2-1.4,4.2C64.6,123.7,63.2,124.2,61.3,124.2L61.3,124.2z
	 M83.7,124h-3.1l-0.5-3.3c-0.1-0.8-0.3-1.3-0.5-1.6c-0.2-0.3-0.5-0.6-1-0.7c-0.5-0.1-1.2-0.2-2.3-0.2H75v5.9h-3.1v-14.1h6.5
	c1.6,0,2.9,0.4,3.8,1.1c0.9,0.7,1.3,1.7,1.3,3.1c0,1-0.2,1.7-0.6,2.2c-0.4,0.5-1.1,0.9-1.9,1.1c0.6,0.2,1.1,0.5,1.4,1
	c0.3,0.5,0.6,1.1,0.7,2L83.7,124z M75,115.8h3.5c0.6,0,1.1-0.1,1.4-0.4c0.3-0.3,0.5-0.7,0.5-1.2c0-0.5-0.2-0.9-0.5-1.2
	c-0.3-0.3-0.8-0.4-1.5-0.4H75V115.8z M96.3,120.7h-5.1l-1.1,3.3h-3.3l4.9-14.1h4.1l4.9,14.1h-3.3L96.3,120.7z M95.5,118.2l-1.7-5.4
	h-0.1l-1.7,5.4H95.5z M104.5,109.9h3.1v11.4h6.6v2.6h-9.7V109.9z"/>
<linearGradient id="SVGID_2_" gradientUnits="userSpaceOnUse" x1="-153.7216" y1="550.9131" x2="-152.7216" y2="550.9131" gradientTransform="matrix(116.554 0 0 -116.554 17919.8711 64262.8281)">
	<stop  offset="0" style="stop-color:#774619"/>
	<stop  offset="6.624680e-02" style="stop-color:#B28727"/>
	<stop  offset="0.1545" style="stop-color:#B28727"/>
	<stop  offset="0.2989" style="stop-color:#F4C283"/>
	<stop  offset="0.36" style="stop-color:#EAC57A"/>
	<stop  offset="0.4303" style="stop-color:#E5C775"/>
	<stop  offset="0.4892" style="stop-color:#996C24"/>
	<stop  offset="0.6051" style="stop-color:#996C24"/>
	<stop  offset="0.6051" style="stop-color:#996C24"/>
	<stop  offset="0.6161" style="stop-color:#B68B3D"/>
	<stop  offset="0.6268" style="stop-color:#CAA04F"/>
	<stop  offset="0.6372" style="stop-color:#D7AE5A"/>
	<stop  offset="0.6466" style="stop-color:#DBB25E"/>
	<stop  offset="0.6494" style="stop-color:#D6AB59"/>
	<stop  offset="0.6649" style="stop-color:#BF8943"/>
	<stop  offset="0.6796" style="stop-color:#AE7132"/>
	<stop  offset="0.6931" style="stop-color:#A46228"/>
	<stop  offset="0.7043" style="stop-color:#A05D25"/>
	<stop  offset="0.7149" style="stop-color:#A6652D"/>
	<stop  offset="0.7311" style="stop-color:#B57A41"/>
	<stop  offset="0.751" style="stop-color:#CF9D63"/>
	<stop  offset="0.7735" style="stop-color:#F1CD92"/>
	<stop  offset="0.7756" style="stop-color:#F5D297"/>
	<stop  offset="0.8468" style="stop-color:#DEB763"/>
	<stop  offset="0.8861" style="stop-color:#B38D42"/>
	<stop  offset="0.9116" style="stop-color:#B28C42"/>
	<stop  offset="0.9134" style="stop-color:#B48E41"/>
	<stop  offset="0.9237" style="stop-color:#BB933C"/>
	<stop  offset="0.9509" style="stop-color:#BD943B"/>
	<stop  offset="1" style="stop-color:#774619"/>
</linearGradient>
<path class="st1" d="M46.2,47.8H42v-2.3c1.4,0,2.5-0.2,3.3-0.7c0.8-0.4,1.3-1.2,1.5-2.3h3.3v18.2h-3.9V47.8z M60.1,61.1
	c-1.6,0-2.9-0.4-3.9-1.3c-1-0.8-1.8-2-2.2-3.4c-0.5-1.4-0.7-3-0.7-4.8c0-1.8,0.2-3.4,0.7-4.8c0.5-1.4,1.2-2.5,2.2-3.4
	c1-0.8,2.3-1.3,3.8-1.3c1.5,0,2.8,0.4,3.8,1.2c1,0.8,1.8,1.9,2.3,3.4c0.5,1.4,0.7,3,0.7,4.9c0,1.8-0.2,3.4-0.7,4.8
	c-0.5,1.4-1.2,2.5-2.2,3.3C62.9,60.7,61.6,61.1,60.1,61.1L60.1,61.1z M60.1,57.6c1,0,1.7-0.5,2.1-1.6c0.4-1,0.6-2.5,0.6-4.3
	c0-1.8-0.2-3.3-0.6-4.3c-0.4-1-1.1-1.6-2.2-1.6c-1.1,0-1.8,0.5-2.2,1.5c-0.4,1-0.6,2.4-0.6,4.2c0,1.9,0.2,3.3,0.6,4.4
	C58.2,57,59,57.6,60.1,57.6L60.1,57.6z M75.6,61.1c-1.6,0-2.9-0.4-3.9-1.3c-1-0.8-1.8-2-2.2-3.4c-0.5-1.4-0.7-3-0.7-4.8
	c0-1.8,0.2-3.4,0.7-4.8c0.5-1.4,1.2-2.5,2.2-3.4c1-0.8,2.3-1.3,3.8-1.3c1.5,0,2.8,0.4,3.8,1.2c1,0.8,1.8,1.9,2.3,3.4
	c0.5,1.4,0.7,3,0.7,4.9c0,1.8-0.2,3.4-0.7,4.8c-0.5,1.4-1.2,2.5-2.2,3.3C78.4,60.7,77.1,61.1,75.6,61.1L75.6,61.1z M75.5,57.6
	c1,0,1.7-0.5,2.1-1.6c0.4-1,0.6-2.5,0.6-4.3c0-1.8-0.2-3.3-0.6-4.3c-0.4-1-1.1-1.6-2.2-1.6c-1.1,0-1.8,0.5-2.2,1.5
	c-0.4,1-0.6,2.4-0.6,4.2c0,1.9,0.2,3.3,0.6,4.4C73.7,57,74.5,57.6,75.5,57.6L75.5,57.6z"/>
<linearGradient id="SVGID_3_" gradientUnits="userSpaceOnUse" x1="-153.7216" y1="550.7161" x2="-152.7216" y2="550.7161" gradientTransform="matrix(116.554 0 0 -116.554 17919.8711 64262.8281)">
	<stop  offset="0" style="stop-color:#774619"/>
	<stop  offset="6.624680e-02" style="stop-color:#B28727"/>
	<stop  offset="0.1545" style="stop-color:#B28727"/>
	<stop  offset="0.2989" style="stop-color:#F4C283"/>
	<stop  offset="0.36" style="stop-color:#EAC57A"/>
	<stop  offset="0.4303" style="stop-color:#E5C775"/>
	<stop  offset="0.4892" style="stop-color:#996C24"/>
	<stop  offset="0.6051" style="stop-color:#996C24"/>
	<stop  offset="0.6051" style="stop-color:#996C24"/>
	<stop  offset="0.6161" style="stop-color:#B68B3D"/>
	<stop  offset="0.6268" style="stop-color:#CAA04F"/>
	<stop  offset="0.6372" style="stop-color:#D7AE5A"/>
	<stop  offset="0.6466" style="stop-color:#DBB25E"/>
	<stop  offset="0.6494" style="stop-color:#D6AB59"/>
	<stop  offset="0.6649" style="stop-color:#BF8943"/>
	<stop  offset="0.6796" style="stop-color:#AE7132"/>
	<stop  offset="0.6931" style="stop-color:#A46228"/>
	<stop  offset="0.7043" style="stop-color:#A05D25"/>
	<stop  offset="0.7149" style="stop-color:#A6652D"/>
	<stop  offset="0.7311" style="stop-color:#B57A41"/>
	<stop  offset="0.751" style="stop-color:#CF9D63"/>
	<stop  offset="0.7735" style="stop-color:#F1CD92"/>
	<stop  offset="0.7756" style="stop-color:#F5D297"/>
	<stop  offset="0.8468" style="stop-color:#DEB763"/>
	<stop  offset="0.8861" style="stop-color:#B38D42"/>
	<stop  offset="0.9116" style="stop-color:#B28C42"/>
	<stop  offset="0.9134" style="stop-color:#B48E41"/>
	<stop  offset="0.9237" style="stop-color:#BB933C"/>
	<stop  offset="0.9509" style="stop-color:#BD943B"/>
	<stop  offset="1" style="stop-color:#774619"/>
</linearGradient>
<path class="st2" d="M56.2,73.8c-0.8,0-1.5-0.2-2.1-0.6c-0.6-0.4-1.2-0.9-1.5-1.6C52.2,71,52,70.3,52,69.5c0-0.8,0.2-1.5,0.6-2.1
	c0.4-0.6,0.9-1.2,1.5-1.5c0.6-0.4,1.4-0.6,2.1-0.6c0.8,0,1.5,0.2,2.1,0.6c0.6,0.4,1.2,0.9,1.5,1.5c0.4,0.6,0.6,1.4,0.6,2.1
	c0,0.8-0.2,1.5-0.6,2.2c-0.4,0.7-0.9,1.2-1.5,1.5C57.7,73.6,57,73.8,56.2,73.8L56.2,73.8z M56.2,71c0.4,0,0.8-0.1,1.1-0.4
	c0.3-0.3,0.5-0.6,0.5-1.1c0-0.4-0.2-0.8-0.5-1.1C57,68.2,56.6,68,56.2,68c-0.3,0-0.5,0.1-0.7,0.2c-0.2,0.1-0.4,0.3-0.6,0.5
	c-0.1,0.2-0.2,0.5-0.2,0.8c0,0.3,0.1,0.5,0.2,0.8c0.1,0.2,0.3,0.4,0.6,0.5C55.7,71,56,71,56.2,71L56.2,71z M64.7,65.6h2.9l-9.8,18.2
	h-2.9L64.7,65.6z M66.3,84c-0.8,0-1.5-0.2-2.1-0.6c-0.6-0.4-1.2-0.9-1.5-1.6c-0.4-0.7-0.6-1.4-0.6-2.2c0-0.8,0.2-1.5,0.6-2.1
	c0.4-0.6,0.9-1.2,1.5-1.5c0.6-0.4,1.4-0.6,2.1-0.6c0.8,0,1.5,0.2,2.1,0.6c0.7,0.4,1.2,0.9,1.6,1.5c0.4,0.6,0.6,1.4,0.6,2.1
	c0,0.8-0.2,1.5-0.6,2.2c-0.4,0.7-0.9,1.2-1.5,1.5C67.8,83.9,67.1,84,66.3,84L66.3,84z M66.3,81.3c0.4,0,0.8-0.2,1.1-0.5
	c0.3-0.3,0.4-0.7,0.4-1.1c0-0.3-0.1-0.5-0.2-0.7c-0.1-0.2-0.3-0.4-0.6-0.6c-0.2-0.1-0.5-0.2-0.7-0.2c-0.3,0-0.5,0.1-0.7,0.2
	c-0.2,0.1-0.4,0.3-0.6,0.6s-0.2,0.5-0.2,0.7c0,0.3,0.1,0.5,0.2,0.8c0.1,0.2,0.3,0.4,0.6,0.6C65.8,81.2,66.1,81.3,66.3,81.3
	L66.3,81.3z"/>
<g>
	<defs>
		<rect id="SVGID_4_" x="-6" y="2.5" width="146.8" height="127.5"/>
	</defs>
	<clipPath id="SVGID_5_">
		<use xlink:href="#SVGID_4_"  style="overflow:visible;"/>
	</clipPath>
	
		<linearGradient id="SVGID_6_" gradientUnits="userSpaceOnUse" x1="-153.7632" y1="550.8548" x2="-152.7632" y2="550.8548" gradientTransform="matrix(120.469 0 0 -120.469 18524.7383 66411.3594)">
		<stop  offset="0" style="stop-color:#774619"/>
		<stop  offset="6.624680e-02" style="stop-color:#B28727"/>
		<stop  offset="0.1545" style="stop-color:#B28727"/>
		<stop  offset="0.2989" style="stop-color:#F4C283"/>
		<stop  offset="0.36" style="stop-color:#EAC57A"/>
		<stop  offset="0.4303" style="stop-color:#E5C775"/>
		<stop  offset="0.4892" style="stop-color:#996C24"/>
		<stop  offset="0.6051" style="stop-color:#996C24"/>
		<stop  offset="0.6051" style="stop-color:#996C24"/>
		<stop  offset="0.6161" style="stop-color:#B68B3D"/>
		<stop  offset="0.6268" style="stop-color:#CAA04F"/>
		<stop  offset="0.6372" style="stop-color:#D7AE5A"/>
		<stop  offset="0.6466" style="stop-color:#DBB25E"/>
		<stop  offset="0.6494" style="stop-color:#D6AB59"/>
		<stop  offset="0.6649" style="stop-color:#BF8943"/>
		<stop  offset="0.6796" style="stop-color:#AE7132"/>
		<stop  offset="0.6931" style="stop-color:#A46228"/>
		<stop  offset="0.7043" style="stop-color:#A05D25"/>
		<stop  offset="0.7149" style="stop-color:#A6652D"/>
		<stop  offset="0.7311" style="stop-color:#B57A41"/>
		<stop  offset="0.751" style="stop-color:#CF9D63"/>
		<stop  offset="0.7735" style="stop-color:#F1CD92"/>
		<stop  offset="0.7756" style="stop-color:#F5D297"/>
		<stop  offset="0.8468" style="stop-color:#DEB763"/>
		<stop  offset="0.8861" style="stop-color:#B38D42"/>
		<stop  offset="0.9116" style="stop-color:#B28C42"/>
		<stop  offset="0.9134" style="stop-color:#B48E41"/>
		<stop  offset="0.9237" style="stop-color:#BB933C"/>
		<stop  offset="0.9509" style="stop-color:#BD943B"/>
		<stop  offset="1" style="stop-color:#774619"/>
	</linearGradient>
	<polygon class="st3" points="61.3,6.5 62.5,7.3 7.7,94.2 114.9,94.2 60,7.3 61.3,6.5 62.5,7.3 61.3,6.5 62.5,5.7 120.3,97.2 
		2.2,97.2 61.3,3.7 62.5,5.7 	"/>
</g>
</svg>
