<svg id="Layer_1" data-name="Layer 1" xmlns="http://www.w3.org/2000/svg" viewBox="0 0 300 300"><defs><style>.cls-1{fill:#231f20;}.cls-2{fill:none;stroke:#231f20;stroke-width:5px;}</style></defs><title>FSC_ICONS</title><path class="cls-1" d="M81.49,202.74h4.32l8,12.67h.12V202.74H98v18.65H93.64l-7.91-12.62h-.14v12.62h-4.1Z"/><path class="cls-1" d="M115.68,217h-6.79l-1.4,4.42h-4.42l6.49-18.65H115l6.5,18.65h-4.42Zm-1.05-3.29-2.29-7.22h-.11l-2.3,7.22Z"/><path class="cls-1" d="M128.12,206.18h-5.57v-3.44h15.26v3.44h-5.59v15.21h-4.1Z"/><path class="cls-1" d="M144.36,219.74a7.4,7.4,0,0,1-1.88-5.41V202.74h4.09v11.72a3.51,3.51,0,0,0,.89,2.56,3.31,3.31,0,0,0,2.49.92,3.42,3.42,0,0,0,2.55-.92,3.48,3.48,0,0,0,.91-2.56V202.74h4.1V214.2a6.73,6.73,0,0,1-7.56,7.46A7.51,7.51,0,0,1,144.36,219.74Z"/><path class="cls-1" d="M179.67,221.39h-4.15l-.73-4.37a6.65,6.65,0,0,0-.66-2.18,2.16,2.16,0,0,0-1.37-.94,12.7,12.7,0,0,0-3-.26h-1.64v7.78H164V202.74h8.65a7.58,7.58,0,0,1,5,1.44,5,5,0,0,1,1.72,4.06,4.8,4.8,0,0,1-.83,3,4.44,4.44,0,0,1-2.54,1.51,3.43,3.43,0,0,1,1.88,1.34,6.73,6.73,0,0,1,.93,2.62ZM168.15,210.5h4.67a2.64,2.64,0,0,0,1.86-.59,2.08,2.08,0,0,0,.62-1.57,2,2,0,0,0-.66-1.58,2.92,2.92,0,0,0-2-.56h-4.53Z"/><path class="cls-1" d="M196.36,217h-6.79l-1.4,4.42h-4.42l6.5-18.65h5.44l6.49,18.65h-4.42Zm-1-3.29-2.3-7.22h-.11l-2.29,7.22Z"/><path class="cls-1" d="M207.24,202.74h4.09v15.17h8.79v3.48H207.24Z"/><path class="cls-1" d="M130,120.38h-5.53v-3a8.88,8.88,0,0,0,4.37-.89,4.28,4.28,0,0,0,2-3h4.31v24.16H130Z"/><path class="cls-1" d="M143.33,136.3a9.49,9.49,0,0,1-3-4.48,20,20,0,0,1-.93-6.32,20.44,20.44,0,0,1,.91-6.31,9.61,9.61,0,0,1,2.89-4.46,7.66,7.66,0,0,1,5.1-1.67,7.91,7.91,0,0,1,5.08,1.63,9.49,9.49,0,0,1,3,4.45,21.74,21.74,0,0,1,0,12.81,9.44,9.44,0,0,1-2.95,4.41,7.75,7.75,0,0,1-5,1.61A7.87,7.87,0,0,1,143.33,136.3Zm7.89-5.06a17.06,17.06,0,0,0,.75-5.64,16.76,16.76,0,0,0-.77-5.72,3,3,0,0,0-5.75,0,16.34,16.34,0,0,0-.76,5.61,17,17,0,0,0,.78,5.78,2.91,2.91,0,0,0,2.93,2.06A2.8,2.8,0,0,0,151.22,131.24Z"/><path class="cls-1" d="M163.87,136.3a9.49,9.49,0,0,1-3-4.48,20,20,0,0,1-.93-6.32,20.44,20.44,0,0,1,.91-6.31,9.53,9.53,0,0,1,2.89-4.46,7.65,7.65,0,0,1,5.09-1.67,7.89,7.89,0,0,1,5.08,1.63,9.42,9.42,0,0,1,3,4.45A21.63,21.63,0,0,1,177,132a9.38,9.38,0,0,1-3,4.41,7.72,7.72,0,0,1-5,1.61A7.87,7.87,0,0,1,163.87,136.3Zm7.89-5.06a21.61,21.61,0,0,0,0-11.36,3,3,0,0,0-5.75,0,16.34,16.34,0,0,0-.76,5.61,17,17,0,0,0,.78,5.78,2.91,2.91,0,0,0,2.93,2.06A2.8,2.8,0,0,0,171.76,131.24Z"/><path class="cls-1" d="M140.49,154.08a5.7,5.7,0,0,1-2.05-2.06,5.59,5.59,0,0,1-.76-2.88,5.41,5.41,0,0,1,.76-2.81,5.57,5.57,0,0,1,2.05-2,5.51,5.51,0,0,1,2.81-.76,5.58,5.58,0,0,1,2.85.76,5.7,5.7,0,0,1,2,2,5.42,5.42,0,0,1,.76,2.82,5.82,5.82,0,0,1-.74,2.9,5.43,5.43,0,0,1-2,2.05,5.62,5.62,0,0,1-2.88.75A5.51,5.51,0,0,1,140.49,154.08Zm4.25-3.52a2,2,0,0,0,0-2.82,2,2,0,0,0-1.44-.58,2,2,0,0,0-1,.26,2.16,2.16,0,0,0-.75.72,1.93,1.93,0,0,0-.28,1,1.91,1.91,0,0,0,.28,1,2.18,2.18,0,0,0,.75.73,1.87,1.87,0,0,0,1,.27A2,2,0,0,0,144.74,150.56Zm9.83-6.67h3.88l-13,24.17h-3.85Zm-.71,23.76a5.6,5.6,0,0,1-2-2.06,5.69,5.69,0,0,1-.75-2.87,5.5,5.5,0,0,1,.75-2.81,5.65,5.65,0,0,1,2-2,5.51,5.51,0,0,1,2.82-.75,5.66,5.66,0,0,1,4.91,2.8,5.41,5.41,0,0,1,.76,2.81,5.69,5.69,0,0,1-.75,2.89,5.43,5.43,0,0,1-2,2,5.67,5.67,0,0,1-2.87.75A5.51,5.51,0,0,1,153.86,167.65Zm4.23-3.49a2,2,0,0,0,.59-1.44,2,2,0,0,0-.28-1,2.15,2.15,0,0,0-.73-.74,1.94,1.94,0,0,0-1-.27,2,2,0,0,0-1,.27,2.21,2.21,0,0,0-.75.74,1.86,1.86,0,0,0-.28,1,1.94,1.94,0,0,0,.28,1,2.13,2.13,0,0,0,.75.74,1.88,1.88,0,0,0,1,.28A1.93,1.93,0,0,0,158.09,164.16Z"/><polygon class="cls-2" points="150 65.58 75.3 183.81 224.71 183.81 150 65.58"/></svg>