<svg id="Layer_1" data-name="Layer 1" xmlns="http://www.w3.org/2000/svg" viewBox="0 0 300 300"><defs><style>.cls-1{fill:#231f20;}.cls-2{fill:none;stroke:#231f20;stroke-width:5px;}</style></defs><title>FSC_ICONS</title><path class="cls-1" d="M57,130.72l-9.67,12.66H57v3.55H41.71v-2.75l10-12.86H42v-3.55H57Z"/><path class="cls-1" d="M60.3,127.77H74.39v3.55H64.5v4.23h9.17v3.56H64.5v4.27H75v3.55H60.3Z"/><path class="cls-1" d="M94.39,146.93H90.12l-.74-4.49a6.85,6.85,0,0,0-.68-2.24,2.23,2.23,0,0,0-1.41-1,13.31,13.31,0,0,0-3.08-.26H82.53v8H78.34V127.77h8.88a7.79,7.79,0,0,1,5.13,1.48,5.17,5.17,0,0,1,1.76,4.17,4.9,4.9,0,0,1-.85,3.06A4.47,4.47,0,0,1,90.65,138a3.44,3.44,0,0,1,1.93,1.38,7,7,0,0,1,1,2.69ZM82.55,135.74h4.81a2.69,2.69,0,0,0,1.9-.6,2.13,2.13,0,0,0,.64-1.62,2,2,0,0,0-.67-1.62,3,3,0,0,0-2-.58H82.55Z"/><path class="cls-1" d="M100.7,146.06a7.54,7.54,0,0,1-3.13-3.35,13.77,13.77,0,0,1,0-10.74,7.59,7.59,0,0,1,3.13-3.35,10.93,10.93,0,0,1,9.72,0,7.62,7.62,0,0,1,3.16,3.36,13.41,13.41,0,0,1,0,10.73,7.6,7.6,0,0,1-3.16,3.35,10.93,10.93,0,0,1-9.72,0Zm7.57-3.2a4.63,4.63,0,0,0,1.68-2.17,10.07,10.07,0,0,0,0-6.68,4.43,4.43,0,0,0-4.39-2.93,4.28,4.28,0,0,0-3.66,1.66,9.19,9.19,0,0,0,0,9.22,4.28,4.28,0,0,0,3.66,1.66A4.67,4.67,0,0,0,108.27,142.86Z"/><rect class="cls-2" x="25.37" y="112.9" width="105.87" height="48.89"/><path class="cls-1" d="M157.46,146.53a6,6,0,0,1-2.83-2.1,6.47,6.47,0,0,1-1.1-4h4.13a3.22,3.22,0,0,0,1.06,2.54,4,4,0,0,0,2.62.82,3.72,3.72,0,0,0,2.24-.59,2,2,0,0,0,.81-1.68,1.91,1.91,0,0,0-.6-1.48,4.14,4.14,0,0,0-1.47-.83c-.57-.19-1.41-.41-2.5-.66a21.34,21.34,0,0,1-3.07-1,5.1,5.1,0,0,1-2.06-1.57,4.39,4.39,0,0,1-.84-2.82,5.23,5.23,0,0,1,3.27-5.08,9,9,0,0,1,3.57-.67A10.77,10.77,0,0,1,164,128a5.87,5.87,0,0,1,2.71,1.84,5.38,5.38,0,0,1,1.11,3.51h-4a2.67,2.67,0,0,0-.86-2.09,3.44,3.44,0,0,0-2.25-.7,3.35,3.35,0,0,0-2.05.56,1.83,1.83,0,0,0-.73,1.53,1.59,1.59,0,0,0,.52,1.24,3.65,3.65,0,0,0,1.32.73c.53.17,1.27.37,2.23.58a22.15,22.15,0,0,1,3.37,1,5.44,5.44,0,0,1,2.27,1.67,4.78,4.78,0,0,1,1,3.15,6,6,0,0,1-.85,3.23,5.64,5.64,0,0,1-2.52,2.15,9.59,9.59,0,0,1-4,.77A11.11,11.11,0,0,1,157.46,146.53Z"/><path class="cls-1" d="M173.37,145.24a7.63,7.63,0,0,1-1.94-5.57v-11.9h4.21v12a3.59,3.59,0,0,0,.91,2.63,3.37,3.37,0,0,0,2.56.94,3.26,3.26,0,0,0,3.55-3.57v-12h4.21v11.77a7.77,7.77,0,0,1-2,5.67c-1.31,1.33-3.24,2-5.81,2S174.65,146.55,173.37,145.24Z"/><path class="cls-1" d="M199.3,136.23h8.28v10.7H204.1l0-2.34a5.15,5.15,0,0,1-2.29,1.93,7.94,7.94,0,0,1-3.38.68,8.73,8.73,0,0,1-4.62-1.19,7.73,7.73,0,0,1-3-3.41,12.31,12.31,0,0,1-1-5.2,12,12,0,0,1,1.09-5.29,7.78,7.78,0,0,1,3.17-3.44,9.81,9.81,0,0,1,5-1.2,11.31,11.31,0,0,1,4.27.78,7.1,7.1,0,0,1,3.1,2.34,6.36,6.36,0,0,1,1.19,3.82h-4.27a3.24,3.24,0,0,0-2.07-3,5.52,5.52,0,0,0-2.17-.4,4.37,4.37,0,0,0-3.82,1.72,9.18,9.18,0,0,0,0,9.11,4.26,4.26,0,0,0,3.77,1.74,4.87,4.87,0,0,0,2.42-.55,3.81,3.81,0,0,0,1.5-1.45,5.19,5.19,0,0,0,.66-2H199.3Z"/><path class="cls-1" d="M222.61,142.39h-7l-1.44,4.54h-4.54l6.67-19.16h5.59l6.67,19.16h-4.54ZM221.54,139l-2.36-7.42h-.11L216.71,139Z"/><path class="cls-1" d="M247.2,146.93h-4.27l-.74-4.49a6.85,6.85,0,0,0-.68-2.24,2.23,2.23,0,0,0-1.41-1A13.31,13.31,0,0,0,237,139h-1.68v8h-4.19V127.77H240a7.79,7.79,0,0,1,5.13,1.48,5.17,5.17,0,0,1,1.76,4.17,4.9,4.9,0,0,1-.85,3.06,4.47,4.47,0,0,1-2.61,1.55,3.44,3.44,0,0,1,1.93,1.38,7,7,0,0,1,1,2.69Zm-11.84-11.19h4.81a2.69,2.69,0,0,0,1.9-.6,2.13,2.13,0,0,0,.64-1.62,2,2,0,0,0-.67-1.62,3,3,0,0,0-2-.58h-4.66Z"/><rect class="cls-2" x="131.24" y="112.9" width="138.49" height="48.89"/></svg>