<?xml version="1.0" encoding="utf-8"?>
<!-- Generator: Adobe Illustrator 23.0.1, SVG Export Plug-In . SVG Version: 6.00 Build 0)  -->
<svg version="1.1" id="Layer_1" xmlns="http://www.w3.org/2000/svg" xmlns:xlink="http://www.w3.org/1999/xlink" x="0px" y="0px"
	 viewBox="0 0 200 130" style="enable-background:new 0 0 200 130;" xml:space="preserve">
<style type="text/css">
	.st0{fill:url(#SVGID_1_);}
	.st1{clip-path:url(#SVGID_3_);fill:url(#SVGID_4_);}
	.st2{fill:url(#SVGID_5_);}
	.st3{clip-path:url(#SVGID_7_);fill:url(#SVGID_8_);}
</style>
<title>FSC_ICONS</title>
<linearGradient id="SVGID_1_" gradientUnits="userSpaceOnUse" x1="-150.1012" y1="595.8674" x2="-149.047" y2="595.8674" gradientTransform="matrix(75.6855 0 0 -75.6855 11365.3662 45162.5898)">
	<stop  offset="0" style="stop-color:#774619"/>
	<stop  offset="6.624680e-02" style="stop-color:#B28727"/>
	<stop  offset="0.1545" style="stop-color:#B28727"/>
	<stop  offset="0.2989" style="stop-color:#F4C283"/>
	<stop  offset="0.36" style="stop-color:#EAC57A"/>
	<stop  offset="0.4303" style="stop-color:#E5C775"/>
	<stop  offset="0.4892" style="stop-color:#996C24"/>
	<stop  offset="0.6051" style="stop-color:#996C24"/>
	<stop  offset="0.6051" style="stop-color:#996C24"/>
	<stop  offset="0.6161" style="stop-color:#B68B3D"/>
	<stop  offset="0.6268" style="stop-color:#CAA04F"/>
	<stop  offset="0.6372" style="stop-color:#D7AE5A"/>
	<stop  offset="0.6466" style="stop-color:#DBB25E"/>
	<stop  offset="0.6494" style="stop-color:#D6AB59"/>
	<stop  offset="0.6649" style="stop-color:#BF8943"/>
	<stop  offset="0.6796" style="stop-color:#AE7132"/>
	<stop  offset="0.6931" style="stop-color:#A46228"/>
	<stop  offset="0.7043" style="stop-color:#A05D25"/>
	<stop  offset="0.7149" style="stop-color:#A6652D"/>
	<stop  offset="0.7311" style="stop-color:#B57A41"/>
	<stop  offset="0.751" style="stop-color:#CF9D63"/>
	<stop  offset="0.7735" style="stop-color:#F1CD92"/>
	<stop  offset="0.7756" style="stop-color:#F5D297"/>
	<stop  offset="0.8468" style="stop-color:#DEB763"/>
	<stop  offset="0.8861" style="stop-color:#B38D42"/>
	<stop  offset="0.9116" style="stop-color:#B28C42"/>
	<stop  offset="0.9134" style="stop-color:#B48E41"/>
	<stop  offset="0.9237" style="stop-color:#BB933C"/>
	<stop  offset="0.9509" style="stop-color:#BD943B"/>
	<stop  offset="1" style="stop-color:#774619"/>
</linearGradient>
<path class="st0" d="M27.9,58.8l-7.7,10.1h7.7v2.8H15.7v-2.2l7.9-10.2h-7.7v-2.8h11.9V58.8z M30.5,56.5h11.2v2.8h-7.9v3.4h7.3v2.8
	h-7.3v3.4h8.4v2.8H30.5V56.5z M57.6,71.7h-3.4l-0.6-3.6c-0.1-0.8-0.3-1.4-0.5-1.8c-0.2-0.4-0.6-0.6-1.1-0.8
	c-0.5-0.1-1.3-0.2-2.5-0.2h-1.3v6.4h-3.3V56.5h7.1c1.8,0,3.1,0.4,4.1,1.2c0.9,0.8,1.4,1.9,1.4,3.3c0,1-0.2,1.8-0.7,2.4
	c-0.4,0.6-1.1,1-2.1,1.2c0.7,0.2,1.2,0.6,1.5,1.1c0.3,0.5,0.6,1.2,0.8,2.1L57.6,71.7z M48.2,62.8H52c0.7,0,1.2-0.2,1.5-0.5
	C53.9,62,54,61.6,54,61c0-0.6-0.2-1-0.5-1.3c-0.4-0.3-0.9-0.5-1.6-0.5h-3.7V62.8z M66.5,71.9c-1.5,0-2.8-0.3-3.9-0.9
	c-1.1-0.6-1.9-1.5-2.5-2.7c-0.6-1.2-0.9-2.6-0.9-4.3c0-1.7,0.3-3.1,0.9-4.3c0.6-1.2,1.4-2.1,2.5-2.7c1.1-0.6,2.4-0.9,3.9-0.9
	c1.5,0,2.8,0.3,3.9,0.9c1.1,0.6,1.9,1.5,2.5,2.7c0.6,1.2,0.9,2.6,0.9,4.3c0,1.7-0.3,3.1-0.9,4.3c-0.6,1.2-1.4,2.1-2.5,2.7
	C69.2,71.6,68,71.9,66.5,71.9L66.5,71.9z M66.5,69.1c0.8,0,1.6-0.2,2.2-0.6c0.6-0.4,1-1,1.3-1.7c0.3-0.7,0.5-1.6,0.5-2.7
	c0-1-0.2-1.9-0.5-2.7c-0.3-0.7-0.7-1.3-1.3-1.7c-0.6-0.4-1.3-0.6-2.2-0.6c-1.3,0-2.2,0.4-2.9,1.3c-0.7,0.9-1,2.1-1,3.7
	c0,1.6,0.3,2.8,1,3.7C64.2,68.6,65.2,69.1,66.5,69.1L66.5,69.1z"/>
<g>
	<defs>
		<rect id="SVGID_2_" x="-9" y="33" width="217.7" height="53.8"/>
	</defs>
	<clipPath id="SVGID_3_">
		<use xlink:href="#SVGID_2_"  style="overflow:visible;"/>
	</clipPath>
	
		<linearGradient id="SVGID_4_" gradientUnits="userSpaceOnUse" x1="-150.2923" y1="595.2353" x2="-149.2381" y2="595.2353" gradientTransform="matrix(84.0255 0 0 -84.0255 12628.876 50079.0195)">
		<stop  offset="0" style="stop-color:#774619"/>
		<stop  offset="6.624680e-02" style="stop-color:#B28727"/>
		<stop  offset="0.1545" style="stop-color:#B28727"/>
		<stop  offset="0.2989" style="stop-color:#F4C283"/>
		<stop  offset="0.36" style="stop-color:#EAC57A"/>
		<stop  offset="0.4303" style="stop-color:#E5C775"/>
		<stop  offset="0.4892" style="stop-color:#996C24"/>
		<stop  offset="0.6051" style="stop-color:#996C24"/>
		<stop  offset="0.6051" style="stop-color:#996C24"/>
		<stop  offset="0.6161" style="stop-color:#B68B3D"/>
		<stop  offset="0.6268" style="stop-color:#CAA04F"/>
		<stop  offset="0.6372" style="stop-color:#D7AE5A"/>
		<stop  offset="0.6466" style="stop-color:#DBB25E"/>
		<stop  offset="0.6494" style="stop-color:#D6AB59"/>
		<stop  offset="0.6649" style="stop-color:#BF8943"/>
		<stop  offset="0.6796" style="stop-color:#AE7132"/>
		<stop  offset="0.6931" style="stop-color:#A46228"/>
		<stop  offset="0.7043" style="stop-color:#A05D25"/>
		<stop  offset="0.7149" style="stop-color:#A6652D"/>
		<stop  offset="0.7311" style="stop-color:#B57A41"/>
		<stop  offset="0.751" style="stop-color:#CF9D63"/>
		<stop  offset="0.7735" style="stop-color:#F1CD92"/>
		<stop  offset="0.7756" style="stop-color:#F5D297"/>
		<stop  offset="0.8468" style="stop-color:#DEB763"/>
		<stop  offset="0.8861" style="stop-color:#B38D42"/>
		<stop  offset="0.9116" style="stop-color:#B28C42"/>
		<stop  offset="0.9134" style="stop-color:#B48E41"/>
		<stop  offset="0.9237" style="stop-color:#BB933C"/>
		<stop  offset="0.9509" style="stop-color:#BD943B"/>
		<stop  offset="1" style="stop-color:#774619"/>
	</linearGradient>
	<polygon class="st1" points="2.7,83.5 2.7,81.9 85.3,81.9 85.3,46.2 4.3,46.2 4.3,83.5 2.7,83.5 2.7,81.9 2.7,83.5 1.1,83.5 
		1.1,43.1 88.4,43.1 88.4,85.1 1.1,85.1 1.1,83.5 	"/>
</g>
<linearGradient id="SVGID_5_" gradientUnits="userSpaceOnUse" x1="-150.5238" y1="594.183" x2="-149.4696" y2="594.183" gradientTransform="matrix(100.283 0 0 -100.283 15184.041 59650.5156)">
	<stop  offset="0" style="stop-color:#774619"/>
	<stop  offset="6.624680e-02" style="stop-color:#B28727"/>
	<stop  offset="0.1545" style="stop-color:#B28727"/>
	<stop  offset="0.2989" style="stop-color:#F4C283"/>
	<stop  offset="0.36" style="stop-color:#EAC57A"/>
	<stop  offset="0.4303" style="stop-color:#E5C775"/>
	<stop  offset="0.4892" style="stop-color:#996C24"/>
	<stop  offset="0.6051" style="stop-color:#996C24"/>
	<stop  offset="0.6051" style="stop-color:#996C24"/>
	<stop  offset="0.6161" style="stop-color:#B68B3D"/>
	<stop  offset="0.6268" style="stop-color:#CAA04F"/>
	<stop  offset="0.6372" style="stop-color:#D7AE5A"/>
	<stop  offset="0.6466" style="stop-color:#DBB25E"/>
	<stop  offset="0.6494" style="stop-color:#D6AB59"/>
	<stop  offset="0.6649" style="stop-color:#BF8943"/>
	<stop  offset="0.6796" style="stop-color:#AE7132"/>
	<stop  offset="0.6931" style="stop-color:#A46228"/>
	<stop  offset="0.7043" style="stop-color:#A05D25"/>
	<stop  offset="0.7149" style="stop-color:#A6652D"/>
	<stop  offset="0.7311" style="stop-color:#B57A41"/>
	<stop  offset="0.751" style="stop-color:#CF9D63"/>
	<stop  offset="0.7735" style="stop-color:#F1CD92"/>
	<stop  offset="0.7756" style="stop-color:#F5D297"/>
	<stop  offset="0.8468" style="stop-color:#DEB763"/>
	<stop  offset="0.8861" style="stop-color:#B38D42"/>
	<stop  offset="0.9116" style="stop-color:#B28C42"/>
	<stop  offset="0.9134" style="stop-color:#B48E41"/>
	<stop  offset="0.9237" style="stop-color:#BB933C"/>
	<stop  offset="0.9509" style="stop-color:#BD943B"/>
	<stop  offset="1" style="stop-color:#774619"/>
</linearGradient>
<path class="st2" d="M110.7,71.9c-1.1,0-2.1-0.2-3-0.5c-0.9-0.3-1.7-0.9-2.2-1.7c-0.6-0.8-0.9-1.8-0.9-3.2h3.3c0,0.9,0.3,1.6,0.8,2
	c0.5,0.4,1.2,0.7,2.1,0.7c0.8,0,1.3-0.2,1.8-0.5c0.4-0.3,0.6-0.8,0.6-1.3c0-0.5-0.2-0.9-0.5-1.2c-0.3-0.3-0.7-0.5-1.2-0.7
	c-0.5-0.2-1.1-0.3-2-0.5c-1-0.2-1.8-0.5-2.4-0.8c-0.6-0.3-1.2-0.7-1.6-1.2c-0.4-0.6-0.7-1.3-0.7-2.2c0-1,0.2-1.8,0.7-2.5
	c0.5-0.7,1.1-1.2,1.9-1.6c0.8-0.4,1.8-0.5,2.8-0.5c0.9,0,1.8,0.1,2.7,0.4c0.9,0.3,1.6,0.8,2.2,1.5c0.6,0.7,0.9,1.6,0.9,2.8h-3.2
	c0-0.7-0.2-1.3-0.7-1.7c-0.4-0.4-1-0.6-1.8-0.6c-0.7,0-1.2,0.1-1.6,0.4c-0.4,0.3-0.6,0.7-0.6,1.2c0,0.4,0.1,0.7,0.4,1
	c0.3,0.3,0.6,0.4,1,0.6c0.4,0.1,1,0.3,1.8,0.5c1.1,0.2,2,0.5,2.7,0.8c0.7,0.3,1.3,0.7,1.8,1.3c0.5,0.6,0.8,1.5,0.8,2.5
	c0,1-0.2,1.8-0.7,2.6c-0.5,0.7-1.1,1.3-2,1.7C113,71.7,112,71.9,110.7,71.9L110.7,71.9z M124.9,71.9c-2,0-3.5-0.5-4.6-1.6
	c-1-1-1.5-2.5-1.5-4.4v-9.5h3.3V66c0,0.9,0.2,1.6,0.7,2.1c0.5,0.5,1.2,0.7,2,0.7c0.9,0,1.6-0.2,2.1-0.7c0.5-0.5,0.7-1.2,0.7-2.1
	v-9.6h3.3v9.4c0,1.9-0.5,3.5-1.6,4.5C128.5,71.4,127,71.9,124.9,71.9L124.9,71.9z M141,63.2h6.6v8.5h-2.8l0-1.9
	c-0.4,0.7-1,1.2-1.8,1.5c-0.8,0.4-1.7,0.5-2.7,0.5c-1.4,0-2.6-0.3-3.7-0.9c-1-0.6-1.8-1.5-2.4-2.7c-0.5-1.2-0.8-2.6-0.8-4.1
	c0-1.6,0.3-3,0.9-4.2c0.6-1.2,1.4-2.1,2.5-2.7c1.1-0.6,2.4-1,4-1c1.2,0,2.4,0.2,3.4,0.6c1,0.4,1.8,1,2.5,1.9c0.6,0.8,0.9,1.8,0.9,3
	h-3.4c0-0.6-0.2-1.1-0.5-1.5c-0.3-0.4-0.7-0.7-1.2-0.9c-0.5-0.2-1.1-0.3-1.7-0.3c-1.4,0-2.4,0.5-3,1.4c-0.6,0.9-1,2.1-1,3.6
	c0,1.5,0.3,2.7,1,3.6c0.6,0.9,1.6,1.4,3,1.4c0.8,0,1.4-0.1,1.9-0.4c0.5-0.3,0.9-0.7,1.2-1.2c0.3-0.5,0.5-1,0.5-1.6H141V63.2z
	 M159.5,68.1H154l-1.1,3.6h-3.6l5.3-15.2h4.4l5.3,15.2h-3.6L159.5,68.1z M158.7,65.4l-1.9-5.9h-0.1l-1.9,5.9H158.7z M179.1,71.7
	h-3.4l-0.6-3.6c-0.1-0.8-0.3-1.4-0.5-1.8c-0.2-0.4-0.6-0.6-1.1-0.8c-0.5-0.1-1.3-0.2-2.5-0.2h-1.3v6.4h-3.3V56.5h7.1
	c1.8,0,3.1,0.4,4.1,1.2c0.9,0.8,1.4,1.9,1.4,3.3c0,1-0.2,1.8-0.7,2.4c-0.4,0.6-1.1,1-2.1,1.2c0.7,0.2,1.2,0.6,1.5,1.1
	c0.3,0.5,0.6,1.2,0.8,2.1L179.1,71.7z M169.7,62.8h3.8c0.7,0,1.2-0.2,1.5-0.5c0.3-0.3,0.5-0.7,0.5-1.3c0-0.6-0.2-1-0.5-1.3
	c-0.4-0.3-0.9-0.5-1.6-0.5h-3.7V62.8z"/>
<g>
	<defs>
		<rect id="SVGID_6_" x="-9" y="33" width="217.7" height="53.8"/>
	</defs>
	<clipPath id="SVGID_7_">
		<use xlink:href="#SVGID_6_"  style="overflow:visible;"/>
	</clipPath>
	
		<linearGradient id="SVGID_8_" gradientUnits="userSpaceOnUse" x1="-150.6392" y1="593.8233" x2="-149.585" y2="593.8233" gradientTransform="matrix(108.623 0 0 -108.623 16447.5508 64566.9492)">
		<stop  offset="0" style="stop-color:#774619"/>
		<stop  offset="6.624680e-02" style="stop-color:#B28727"/>
		<stop  offset="0.1545" style="stop-color:#B28727"/>
		<stop  offset="0.2989" style="stop-color:#F4C283"/>
		<stop  offset="0.36" style="stop-color:#EAC57A"/>
		<stop  offset="0.4303" style="stop-color:#E5C775"/>
		<stop  offset="0.4892" style="stop-color:#996C24"/>
		<stop  offset="0.6051" style="stop-color:#996C24"/>
		<stop  offset="0.6051" style="stop-color:#996C24"/>
		<stop  offset="0.6161" style="stop-color:#B68B3D"/>
		<stop  offset="0.6268" style="stop-color:#CAA04F"/>
		<stop  offset="0.6372" style="stop-color:#D7AE5A"/>
		<stop  offset="0.6466" style="stop-color:#DBB25E"/>
		<stop  offset="0.6494" style="stop-color:#D6AB59"/>
		<stop  offset="0.6649" style="stop-color:#BF8943"/>
		<stop  offset="0.6796" style="stop-color:#AE7132"/>
		<stop  offset="0.6931" style="stop-color:#A46228"/>
		<stop  offset="0.7043" style="stop-color:#A05D25"/>
		<stop  offset="0.7149" style="stop-color:#A6652D"/>
		<stop  offset="0.7311" style="stop-color:#B57A41"/>
		<stop  offset="0.751" style="stop-color:#CF9D63"/>
		<stop  offset="0.7735" style="stop-color:#F1CD92"/>
		<stop  offset="0.7756" style="stop-color:#F5D297"/>
		<stop  offset="0.8468" style="stop-color:#DEB763"/>
		<stop  offset="0.8861" style="stop-color:#B38D42"/>
		<stop  offset="0.9116" style="stop-color:#B28C42"/>
		<stop  offset="0.9134" style="stop-color:#B48E41"/>
		<stop  offset="0.9237" style="stop-color:#BB933C"/>
		<stop  offset="0.9509" style="stop-color:#BD943B"/>
		<stop  offset="1" style="stop-color:#774619"/>
	</linearGradient>
	<polygon class="st3" points="86.9,83.5 86.9,81.9 195.4,81.9 195.4,46.2 88.4,46.2 88.4,83.5 86.9,83.5 86.9,81.9 86.9,83.5 
		85.3,83.5 85.3,43.1 198.6,43.1 198.6,85.1 85.3,85.1 85.3,83.5 	"/>
</g>
</svg>
